<?xml version="1.0" standalone="no"?>
 <!DOCTYPE svg PUBLIC "-//W3C//DTD SVG 1.1//EN" 
 "http://www.w3.org/Graphics/SVG/1.1/DTD/svg11.dtd"> 
<svg
  xmlns:svg="http://www.w3.org/2000/svg"
  xmlns="http://www.w3.org/2000/svg"
  xmlns:xlink="http://www.w3.org/1999/xlink"
  version="1.1"
  width="297.0022mm" height="210.0072mm" viewBox="0.0000 0.0000 297.0022 210.0072">
<title>SVG Image created as wirebug-B_Silkscreen.svg date 2024/01/07 22:50:55 </title>
  <desc>Image generated by PCBNEW </desc>
<g style="fill:#000000; fill-opacity:1.0000;stroke:#000000; stroke-opacity:1.0000;
stroke-linecap:round; stroke-linejoin:round;"
 transform="translate(0 0) scale(1 1)">
</g>
<g style="fill:#000000; fill-opacity:0.0; 
stroke:#000000; stroke-width:0.0000; stroke-opacity:1; 
stroke-linecap:round; stroke-linejoin:round;">
</g>
<g style="fill:#000000; fill-opacity:0.0; 
stroke:#000000; stroke-width:0.1500; stroke-opacity:1; 
stroke-linecap:round; stroke-linejoin:round;">
<g transform="rotate(-270.000000 161.2392 79.6290)">
<text x="161.2392" y="80.0290"
transform="scale(-1 1) translate(-322.478400 0)"
textLength="2.7281" font-size="1.0667" lengthAdjust="spacingAndGlyphs"
text-anchor="middle" opacity="0">GND</text>
</g>
<g class="stroked-text"><desc>GND</desc>
<path d="M160.8396 80.2385
L160.8015 80.3147
" />
<path d="M160.8015 80.3147
L160.8015 80.4290
" />
<path d="M160.8015 80.4290
L160.8396 80.5433
" />
<path d="M160.8396 80.5433
L160.9158 80.6195
" />
<path d="M160.9158 80.6195
L160.9920 80.6576
" />
<path d="M160.9920 80.6576
L161.1444 80.6957
" />
<path d="M161.1444 80.6957
L161.2586 80.6957
" />
<path d="M161.2586 80.6957
L161.4110 80.6576
" />
<path d="M161.4110 80.6576
L161.4872 80.6195
" />
<path d="M161.4872 80.6195
L161.5634 80.5433
" />
<path d="M161.5634 80.5433
L161.6015 80.4290
" />
<path d="M161.6015 80.4290
L161.6015 80.3528
" />
<path d="M161.6015 80.3528
L161.5634 80.2385
" />
<path d="M161.5634 80.2385
L161.5253 80.2004
" />
<path d="M161.5253 80.2004
L161.2586 80.2004
" />
<path d="M161.2586 80.2004
L161.2586 80.3528
" />
<path d="M161.6015 79.8576
L160.8015 79.8576
" />
<path d="M160.8015 79.8576
L161.6015 79.4004
" />
<path d="M161.6015 79.4004
L160.8015 79.4004
" />
<path d="M161.6015 79.0195
L160.8015 79.0195
" />
<path d="M160.8015 79.0195
L160.8015 78.8290
" />
<path d="M160.8015 78.8290
L160.8396 78.7147
" />
<path d="M160.8396 78.7147
L160.9158 78.6385
" />
<path d="M160.9158 78.6385
L160.9920 78.6004
" />
<path d="M160.9920 78.6004
L161.1444 78.5623
" />
<path d="M161.1444 78.5623
L161.2586 78.5623
" />
<path d="M161.2586 78.5623
L161.4110 78.6004
" />
<path d="M161.4110 78.6004
L161.4872 78.6385
" />
<path d="M161.4872 78.6385
L161.5634 78.7147
" />
<path d="M161.5634 78.7147
L161.6015 78.8290
" />
<path d="M161.6015 78.8290
L161.6015 79.0195
" />
</g><g transform="rotate(-270.000000 158.8142 78.9940)">
<text x="158.8142" y="79.3940"
transform="scale(-1 1) translate(-317.628400 0)"
textLength="3.9852" font-size="1.0667" lengthAdjust="spacingAndGlyphs"
text-anchor="middle" opacity="0">SWDIO</text>
</g>
<g class="stroked-text"><desc>SWDIO</desc>
<path d="M159.1384 80.6892
L159.1765 80.5750
" />
<path d="M159.1765 80.5750
L159.1765 80.3845
" />
<path d="M159.1765 80.3845
L159.1384 80.3083
" />
<path d="M159.1384 80.3083
L159.1003 80.2702
" />
<path d="M159.1003 80.2702
L159.0241 80.2321
" />
<path d="M159.0241 80.2321
L158.9479 80.2321
" />
<path d="M158.9479 80.2321
L158.8717 80.2702
" />
<path d="M158.8717 80.2702
L158.8336 80.3083
" />
<path d="M158.8336 80.3083
L158.7955 80.3845
" />
<path d="M158.7955 80.3845
L158.7574 80.5369
" />
<path d="M158.7574 80.5369
L158.7194 80.6130
" />
<path d="M158.7194 80.6130
L158.6813 80.6511
" />
<path d="M158.6813 80.6511
L158.6051 80.6892
" />
<path d="M158.6051 80.6892
L158.5289 80.6892
" />
<path d="M158.5289 80.6892
L158.4527 80.6511
" />
<path d="M158.4527 80.6511
L158.4146 80.6130
" />
<path d="M158.4146 80.6130
L158.3765 80.5369
" />
<path d="M158.3765 80.5369
L158.3765 80.3464
" />
<path d="M158.3765 80.3464
L158.4146 80.2321
" />
<path d="M158.3765 79.9654
L159.1765 79.7750
" />
<path d="M159.1765 79.7750
L158.6051 79.6226
" />
<path d="M158.6051 79.6226
L159.1765 79.4702
" />
<path d="M159.1765 79.4702
L158.3765 79.2797
" />
<path d="M159.1765 78.9750
L158.3765 78.9750
" />
<path d="M158.3765 78.9750
L158.3765 78.7845
" />
<path d="M158.3765 78.7845
L158.4146 78.6702
" />
<path d="M158.4146 78.6702
L158.4908 78.5940
" />
<path d="M158.4908 78.5940
L158.5670 78.5559
" />
<path d="M158.5670 78.5559
L158.7194 78.5178
" />
<path d="M158.7194 78.5178
L158.8336 78.5178
" />
<path d="M158.8336 78.5178
L158.9860 78.5559
" />
<path d="M158.9860 78.5559
L159.0622 78.5940
" />
<path d="M159.0622 78.5940
L159.1384 78.6702
" />
<path d="M159.1384 78.6702
L159.1765 78.7845
" />
<path d="M159.1765 78.7845
L159.1765 78.9750
" />
<path d="M159.1765 78.1750
L158.3765 78.1750
" />
<path d="M158.3765 77.6416
L158.3765 77.4892
" />
<path d="M158.3765 77.4892
L158.4146 77.4130
" />
<path d="M158.4146 77.4130
L158.4908 77.3369
" />
<path d="M158.4908 77.3369
L158.6432 77.2988
" />
<path d="M158.6432 77.2988
L158.9098 77.2988
" />
<path d="M158.9098 77.2988
L159.0622 77.3369
" />
<path d="M159.0622 77.3369
L159.1384 77.4130
" />
<path d="M159.1384 77.4130
L159.1765 77.4892
" />
<path d="M159.1765 77.4892
L159.1765 77.6416
" />
<path d="M159.1765 77.6416
L159.1384 77.7178
" />
<path d="M159.1384 77.7178
L159.0622 77.7940
" />
<path d="M159.0622 77.7940
L158.9098 77.8321
" />
<path d="M158.9098 77.8321
L158.6432 77.8321
" />
<path d="M158.6432 77.8321
L158.4908 77.7940
" />
<path d="M158.4908 77.7940
L158.4146 77.7178
" />
<path d="M158.4146 77.7178
L158.3765 77.6416
" />
</g><g transform="rotate(-270.000000 163.7792 78.9940)">
<text x="163.7792" y="79.3940"
transform="scale(-1 1) translate(-327.558400 0)"
textLength="4.2138" font-size="1.0667" lengthAdjust="spacingAndGlyphs"
text-anchor="middle" opacity="0">SWCLK</text>
</g>
<g class="stroked-text"><desc>SWCLK</desc>
<path d="M164.1034 80.8035
L164.1415 80.6892
" />
<path d="M164.1415 80.6892
L164.1415 80.4988
" />
<path d="M164.1415 80.4988
L164.1034 80.4226
" />
<path d="M164.1034 80.4226
L164.0653 80.3845
" />
<path d="M164.0653 80.3845
L163.9891 80.3464
" />
<path d="M163.9891 80.3464
L163.9129 80.3464
" />
<path d="M163.9129 80.3464
L163.8367 80.3845
" />
<path d="M163.8367 80.3845
L163.7986 80.4226
" />
<path d="M163.7986 80.4226
L163.7605 80.4988
" />
<path d="M163.7605 80.4988
L163.7224 80.6511
" />
<path d="M163.7224 80.6511
L163.6844 80.7273
" />
<path d="M163.6844 80.7273
L163.6463 80.7654
" />
<path d="M163.6463 80.7654
L163.5701 80.8035
" />
<path d="M163.5701 80.8035
L163.4939 80.8035
" />
<path d="M163.4939 80.8035
L163.4177 80.7654
" />
<path d="M163.4177 80.7654
L163.3796 80.7273
" />
<path d="M163.3796 80.7273
L163.3415 80.6511
" />
<path d="M163.3415 80.6511
L163.3415 80.4607
" />
<path d="M163.3415 80.4607
L163.3796 80.3464
" />
<path d="M163.3415 80.0797
L164.1415 79.8892
" />
<path d="M164.1415 79.8892
L163.5701 79.7369
" />
<path d="M163.5701 79.7369
L164.1415 79.5845
" />
<path d="M164.1415 79.5845
L163.3415 79.3940
" />
<path d="M164.0653 78.6321
L164.1034 78.6702
" />
<path d="M164.1034 78.6702
L164.1415 78.7845
" />
<path d="M164.1415 78.7845
L164.1415 78.8607
" />
<path d="M164.1415 78.8607
L164.1034 78.9750
" />
<path d="M164.1034 78.9750
L164.0272 79.0511
" />
<path d="M164.0272 79.0511
L163.9510 79.0892
" />
<path d="M163.9510 79.0892
L163.7986 79.1273
" />
<path d="M163.7986 79.1273
L163.6844 79.1273
" />
<path d="M163.6844 79.1273
L163.5320 79.0892
" />
<path d="M163.5320 79.0892
L163.4558 79.0511
" />
<path d="M163.4558 79.0511
L163.3796 78.9750
" />
<path d="M163.3796 78.9750
L163.3415 78.8607
" />
<path d="M163.3415 78.8607
L163.3415 78.7845
" />
<path d="M163.3415 78.7845
L163.3796 78.6702
" />
<path d="M163.3796 78.6702
L163.4177 78.6321
" />
<path d="M164.1415 77.9083
L164.1415 78.2892
" />
<path d="M164.1415 78.2892
L163.3415 78.2892
" />
<path d="M164.1415 77.6416
L163.3415 77.6416
" />
<path d="M164.1415 77.1845
L163.6844 77.5273
" />
<path d="M163.3415 77.1845
L163.7986 77.6416
" />
</g><g >
</g>
<g >
</g>
<g >
</g>
<g >
</g>
<g >
</g>
<g >
</g>
<g >
</g>
<g >
</g>
<g >
</g>
<g >
</g>
<g >
</g>
<g >
</g>
<g >
</g>
<g >
</g>
<g >
</g>
</g> 
</svg>
