<?xml version="1.0" standalone="no"?>
 <!DOCTYPE svg PUBLIC "-//W3C//DTD SVG 1.1//EN" 
 "http://www.w3.org/Graphics/SVG/1.1/DTD/svg11.dtd"> 
<svg
  xmlns:svg="http://www.w3.org/2000/svg"
  xmlns="http://www.w3.org/2000/svg"
  xmlns:xlink="http://www.w3.org/1999/xlink"
  version="1.1"
  width="297.0022mm" height="210.0072mm" viewBox="0.0000 0.0000 297.0022 210.0072">
<title>SVG Image created as template_project_kicad-F_Fab.svg date 2023/11/28 01:22:37 </title>
  <desc>Image generated by PCBNEW </desc>
<g style="fill:#000000; fill-opacity:1.0000;stroke:#000000; stroke-opacity:1.0000;
stroke-linecap:round; stroke-linejoin:round;"
 transform="translate(0 0) scale(1 1)">
</g>
<g style="fill:#000000; fill-opacity:0.0; 
stroke:#000000; stroke-width:0.0000; stroke-opacity:1; 
stroke-linecap:round; stroke-linejoin:round;">
</g>
<g style="fill:#000000; fill-opacity:0.0; 
stroke:#000000; stroke-width:0.1500; stroke-opacity:1; 
stroke-linecap:round; stroke-linejoin:round;">
<text x="104.4400" y="97.0200"
textLength="4.5357" font-size="1.3333" lengthAdjust="spacingAndGlyphs"
text-anchor="middle" opacity="0">REF**</text>
<g class="stroked-text"><desc>REF**</desc>
<path d="M103.1067 96.9748
L102.7733 96.4986
" />
<path d="M102.5352 96.9748
L102.5352 95.9748
" />
<path d="M102.5352 95.9748
L102.9162 95.9748
" />
<path d="M102.9162 95.9748
L103.0114 96.0224
" />
<path d="M103.0114 96.0224
L103.0590 96.0701
" />
<path d="M103.0590 96.0701
L103.1067 96.1653
" />
<path d="M103.1067 96.1653
L103.1067 96.3082
" />
<path d="M103.1067 96.3082
L103.0590 96.4034
" />
<path d="M103.0590 96.4034
L103.0114 96.4510
" />
<path d="M103.0114 96.4510
L102.9162 96.4986
" />
<path d="M102.9162 96.4986
L102.5352 96.4986
" />
<path d="M103.5352 96.4510
L103.8686 96.4510
" />
<path d="M104.0114 96.9748
L103.5352 96.9748
" />
<path d="M103.5352 96.9748
L103.5352 95.9748
" />
<path d="M103.5352 95.9748
L104.0114 95.9748
" />
<path d="M104.7733 96.4510
L104.4400 96.4510
" />
<path d="M104.4400 96.9748
L104.4400 95.9748
" />
<path d="M104.4400 95.9748
L104.9162 95.9748
" />
<path d="M105.4400 95.9748
L105.4400 96.2129
" />
<path d="M105.2019 96.1177
L105.4400 96.2129
" />
<path d="M105.4400 96.2129
L105.6781 96.1177
" />
<path d="M105.2971 96.4034
L105.4400 96.2129
" />
<path d="M105.4400 96.2129
L105.5829 96.4034
" />
<path d="M106.2019 95.9748
L106.2019 96.2129
" />
<path d="M105.9638 96.1177
L106.2019 96.2129
" />
<path d="M106.2019 96.2129
L106.4400 96.1177
" />
<path d="M106.0590 96.4034
L106.2019 96.2129
" />
<path d="M106.2019 96.2129
L106.3448 96.4034
" />
</g><text x="147.6200" y="97.0200"
textLength="4.5357" font-size="1.3333" lengthAdjust="spacingAndGlyphs"
text-anchor="middle" opacity="0">REF**</text>
<g class="stroked-text"><desc>REF**</desc>
<path d="M146.2867 96.9748
L145.9533 96.4986
" />
<path d="M145.7152 96.9748
L145.7152 95.9748
" />
<path d="M145.7152 95.9748
L146.0962 95.9748
" />
<path d="M146.0962 95.9748
L146.1914 96.0224
" />
<path d="M146.1914 96.0224
L146.2390 96.0701
" />
<path d="M146.2390 96.0701
L146.2867 96.1653
" />
<path d="M146.2867 96.1653
L146.2867 96.3082
" />
<path d="M146.2867 96.3082
L146.2390 96.4034
" />
<path d="M146.2390 96.4034
L146.1914 96.4510
" />
<path d="M146.1914 96.4510
L146.0962 96.4986
" />
<path d="M146.0962 96.4986
L145.7152 96.4986
" />
<path d="M146.7152 96.4510
L147.0486 96.4510
" />
<path d="M147.1914 96.9748
L146.7152 96.9748
" />
<path d="M146.7152 96.9748
L146.7152 95.9748
" />
<path d="M146.7152 95.9748
L147.1914 95.9748
" />
<path d="M147.9533 96.4510
L147.6200 96.4510
" />
<path d="M147.6200 96.9748
L147.6200 95.9748
" />
<path d="M147.6200 95.9748
L148.0962 95.9748
" />
<path d="M148.6200 95.9748
L148.6200 96.2129
" />
<path d="M148.3819 96.1177
L148.6200 96.2129
" />
<path d="M148.6200 96.2129
L148.8581 96.1177
" />
<path d="M148.4771 96.4034
L148.6200 96.2129
" />
<path d="M148.6200 96.2129
L148.7629 96.4034
" />
<path d="M149.3819 95.9748
L149.3819 96.2129
" />
<path d="M149.1438 96.1177
L149.3819 96.2129
" />
<path d="M149.3819 96.2129
L149.6200 96.1177
" />
<path d="M149.2390 96.4034
L149.3819 96.2129
" />
<path d="M149.3819 96.2129
L149.5248 96.4034
" />
</g><text x="104.4400" y="56.3800"
textLength="4.5357" font-size="1.3333" lengthAdjust="spacingAndGlyphs"
text-anchor="middle" opacity="0">REF**</text>
<g class="stroked-text"><desc>REF**</desc>
<path d="M103.1067 56.3348
L102.7733 55.8586
" />
<path d="M102.5352 56.3348
L102.5352 55.3348
" />
<path d="M102.5352 55.3348
L102.9162 55.3348
" />
<path d="M102.9162 55.3348
L103.0114 55.3824
" />
<path d="M103.0114 55.3824
L103.0590 55.4301
" />
<path d="M103.0590 55.4301
L103.1067 55.5253
" />
<path d="M103.1067 55.5253
L103.1067 55.6682
" />
<path d="M103.1067 55.6682
L103.0590 55.7634
" />
<path d="M103.0590 55.7634
L103.0114 55.8110
" />
<path d="M103.0114 55.8110
L102.9162 55.8586
" />
<path d="M102.9162 55.8586
L102.5352 55.8586
" />
<path d="M103.5352 55.8110
L103.8686 55.8110
" />
<path d="M104.0114 56.3348
L103.5352 56.3348
" />
<path d="M103.5352 56.3348
L103.5352 55.3348
" />
<path d="M103.5352 55.3348
L104.0114 55.3348
" />
<path d="M104.7733 55.8110
L104.4400 55.8110
" />
<path d="M104.4400 56.3348
L104.4400 55.3348
" />
<path d="M104.4400 55.3348
L104.9162 55.3348
" />
<path d="M105.4400 55.3348
L105.4400 55.5729
" />
<path d="M105.2019 55.4777
L105.4400 55.5729
" />
<path d="M105.4400 55.5729
L105.6781 55.4777
" />
<path d="M105.2971 55.7634
L105.4400 55.5729
" />
<path d="M105.4400 55.5729
L105.5829 55.7634
" />
<path d="M106.2019 55.3348
L106.2019 55.5729
" />
<path d="M105.9638 55.4777
L106.2019 55.5729
" />
<path d="M106.2019 55.5729
L106.4400 55.4777
" />
<path d="M106.0590 55.7634
L106.2019 55.5729
" />
<path d="M106.2019 55.5729
L106.3448 55.7634
" />
</g><text x="147.6200" y="56.3800"
textLength="4.5357" font-size="1.3333" lengthAdjust="spacingAndGlyphs"
text-anchor="middle" opacity="0">REF**</text>
<g class="stroked-text"><desc>REF**</desc>
<path d="M146.2867 56.3348
L145.9533 55.8586
" />
<path d="M145.7152 56.3348
L145.7152 55.3348
" />
<path d="M145.7152 55.3348
L146.0962 55.3348
" />
<path d="M146.0962 55.3348
L146.1914 55.3824
" />
<path d="M146.1914 55.3824
L146.2390 55.4301
" />
<path d="M146.2390 55.4301
L146.2867 55.5253
" />
<path d="M146.2867 55.5253
L146.2867 55.6682
" />
<path d="M146.2867 55.6682
L146.2390 55.7634
" />
<path d="M146.2390 55.7634
L146.1914 55.8110
" />
<path d="M146.1914 55.8110
L146.0962 55.8586
" />
<path d="M146.0962 55.8586
L145.7152 55.8586
" />
<path d="M146.7152 55.8110
L147.0486 55.8110
" />
<path d="M147.1914 56.3348
L146.7152 56.3348
" />
<path d="M146.7152 56.3348
L146.7152 55.3348
" />
<path d="M146.7152 55.3348
L147.1914 55.3348
" />
<path d="M147.9533 55.8110
L147.6200 55.8110
" />
<path d="M147.6200 56.3348
L147.6200 55.3348
" />
<path d="M147.6200 55.3348
L148.0962 55.3348
" />
<path d="M148.6200 55.3348
L148.6200 55.5729
" />
<path d="M148.3819 55.4777
L148.6200 55.5729
" />
<path d="M148.6200 55.5729
L148.8581 55.4777
" />
<path d="M148.4771 55.7634
L148.6200 55.5729
" />
<path d="M148.6200 55.5729
L148.7629 55.7634
" />
<path d="M149.3819 55.3348
L149.3819 55.5729
" />
<path d="M149.1438 55.4777
L149.3819 55.5729
" />
<path d="M149.3819 55.5729
L149.6200 55.4777
" />
<path d="M149.2390 55.7634
L149.3819 55.5729
" />
<path d="M149.3819 55.5729
L149.5248 55.7634
" />
</g><text x="125.7300" y="42.4100"
textLength="13.5833" font-size="1.3333" lengthAdjust="spacingAndGlyphs"
text-anchor="middle" opacity="0">RaspberryPi-Pico</text>
<g class="stroked-text"><desc>RaspberryPi-Pico</desc>
<path d="M119.8729 42.3648
L119.5395 41.8886
" />
<path d="M119.3014 42.3648
L119.3014 41.3648
" />
<path d="M119.3014 41.3648
L119.6824 41.3648
" />
<path d="M119.6824 41.3648
L119.7776 41.4124
" />
<path d="M119.7776 41.4124
L119.8252 41.4601
" />
<path d="M119.8252 41.4601
L119.8729 41.5553
" />
<path d="M119.8729 41.5553
L119.8729 41.6982
" />
<path d="M119.8729 41.6982
L119.8252 41.7934
" />
<path d="M119.8252 41.7934
L119.7776 41.8410
" />
<path d="M119.7776 41.8410
L119.6824 41.8886
" />
<path d="M119.6824 41.8886
L119.3014 41.8886
" />
<path d="M120.7300 42.3648
L120.7300 41.8410
" />
<path d="M120.7300 41.8410
L120.6824 41.7458
" />
<path d="M120.6824 41.7458
L120.5871 41.6982
" />
<path d="M120.5871 41.6982
L120.3967 41.6982
" />
<path d="M120.3967 41.6982
L120.3014 41.7458
" />
<path d="M120.7300 42.3172
L120.6348 42.3648
" />
<path d="M120.6348 42.3648
L120.3967 42.3648
" />
<path d="M120.3967 42.3648
L120.3014 42.3172
" />
<path d="M120.3014 42.3172
L120.2538 42.2220
" />
<path d="M120.2538 42.2220
L120.2538 42.1267
" />
<path d="M120.2538 42.1267
L120.3014 42.0315
" />
<path d="M120.3014 42.0315
L120.3967 41.9839
" />
<path d="M120.3967 41.9839
L120.6348 41.9839
" />
<path d="M120.6348 41.9839
L120.7300 41.9362
" />
<path d="M121.1586 42.3172
L121.2538 42.3648
" />
<path d="M121.2538 42.3648
L121.4443 42.3648
" />
<path d="M121.4443 42.3648
L121.5395 42.3172
" />
<path d="M121.5395 42.3172
L121.5871 42.2220
" />
<path d="M121.5871 42.2220
L121.5871 42.1743
" />
<path d="M121.5871 42.1743
L121.5395 42.0791
" />
<path d="M121.5395 42.0791
L121.4443 42.0315
" />
<path d="M121.4443 42.0315
L121.3014 42.0315
" />
<path d="M121.3014 42.0315
L121.2062 41.9839
" />
<path d="M121.2062 41.9839
L121.1586 41.8886
" />
<path d="M121.1586 41.8886
L121.1586 41.8410
" />
<path d="M121.1586 41.8410
L121.2062 41.7458
" />
<path d="M121.2062 41.7458
L121.3014 41.6982
" />
<path d="M121.3014 41.6982
L121.4443 41.6982
" />
<path d="M121.4443 41.6982
L121.5395 41.7458
" />
<path d="M122.0157 41.6982
L122.0157 42.6982
" />
<path d="M122.0157 41.7458
L122.1110 41.6982
" />
<path d="M122.1110 41.6982
L122.3014 41.6982
" />
<path d="M122.3014 41.6982
L122.3967 41.7458
" />
<path d="M122.3967 41.7458
L122.4443 41.7934
" />
<path d="M122.4443 41.7934
L122.4919 41.8886
" />
<path d="M122.4919 41.8886
L122.4919 42.1743
" />
<path d="M122.4919 42.1743
L122.4443 42.2696
" />
<path d="M122.4443 42.2696
L122.3967 42.3172
" />
<path d="M122.3967 42.3172
L122.3014 42.3648
" />
<path d="M122.3014 42.3648
L122.1110 42.3648
" />
<path d="M122.1110 42.3648
L122.0157 42.3172
" />
<path d="M122.9205 42.3648
L122.9205 41.3648
" />
<path d="M122.9205 41.7458
L123.0157 41.6982
" />
<path d="M123.0157 41.6982
L123.2062 41.6982
" />
<path d="M123.2062 41.6982
L123.3014 41.7458
" />
<path d="M123.3014 41.7458
L123.3490 41.7934
" />
<path d="M123.3490 41.7934
L123.3967 41.8886
" />
<path d="M123.3967 41.8886
L123.3967 42.1743
" />
<path d="M123.3967 42.1743
L123.3490 42.2696
" />
<path d="M123.3490 42.2696
L123.3014 42.3172
" />
<path d="M123.3014 42.3172
L123.2062 42.3648
" />
<path d="M123.2062 42.3648
L123.0157 42.3648
" />
<path d="M123.0157 42.3648
L122.9205 42.3172
" />
<path d="M124.2062 42.3172
L124.1110 42.3648
" />
<path d="M124.1110 42.3648
L123.9205 42.3648
" />
<path d="M123.9205 42.3648
L123.8252 42.3172
" />
<path d="M123.8252 42.3172
L123.7776 42.2220
" />
<path d="M123.7776 42.2220
L123.7776 41.8410
" />
<path d="M123.7776 41.8410
L123.8252 41.7458
" />
<path d="M123.8252 41.7458
L123.9205 41.6982
" />
<path d="M123.9205 41.6982
L124.1110 41.6982
" />
<path d="M124.1110 41.6982
L124.2062 41.7458
" />
<path d="M124.2062 41.7458
L124.2538 41.8410
" />
<path d="M124.2538 41.8410
L124.2538 41.9362
" />
<path d="M124.2538 41.9362
L123.7776 42.0315
" />
<path d="M124.6824 42.3648
L124.6824 41.6982
" />
<path d="M124.6824 41.8886
L124.7300 41.7934
" />
<path d="M124.7300 41.7934
L124.7776 41.7458
" />
<path d="M124.7776 41.7458
L124.8729 41.6982
" />
<path d="M124.8729 41.6982
L124.9681 41.6982
" />
<path d="M125.3014 42.3648
L125.3014 41.6982
" />
<path d="M125.3014 41.8886
L125.3490 41.7934
" />
<path d="M125.3490 41.7934
L125.3967 41.7458
" />
<path d="M125.3967 41.7458
L125.4919 41.6982
" />
<path d="M125.4919 41.6982
L125.5871 41.6982
" />
<path d="M125.8252 41.6982
L126.0633 42.3648
" />
<path d="M126.3014 41.6982
L126.0633 42.3648
" />
<path d="M126.0633 42.3648
L125.9681 42.6029
" />
<path d="M125.9681 42.6029
L125.9205 42.6505
" />
<path d="M125.9205 42.6505
L125.8252 42.6982
" />
<path d="M126.6824 42.3648
L126.6824 41.3648
" />
<path d="M126.6824 41.3648
L127.0633 41.3648
" />
<path d="M127.0633 41.3648
L127.1586 41.4124
" />
<path d="M127.1586 41.4124
L127.2062 41.4601
" />
<path d="M127.2062 41.4601
L127.2538 41.5553
" />
<path d="M127.2538 41.5553
L127.2538 41.6982
" />
<path d="M127.2538 41.6982
L127.2062 41.7934
" />
<path d="M127.2062 41.7934
L127.1586 41.8410
" />
<path d="M127.1586 41.8410
L127.0633 41.8886
" />
<path d="M127.0633 41.8886
L126.6824 41.8886
" />
<path d="M127.6824 42.3648
L127.6824 41.6982
" />
<path d="M127.6824 41.3648
L127.6348 41.4124
" />
<path d="M127.6348 41.4124
L127.6824 41.4601
" />
<path d="M127.6824 41.4601
L127.7300 41.4124
" />
<path d="M127.7300 41.4124
L127.6824 41.3648
" />
<path d="M127.6824 41.3648
L127.6824 41.4601
" />
<path d="M128.1586 41.9839
L128.9205 41.9839
" />
<path d="M129.3967 42.3648
L129.3967 41.3648
" />
<path d="M129.3967 41.3648
L129.7776 41.3648
" />
<path d="M129.7776 41.3648
L129.8729 41.4124
" />
<path d="M129.8729 41.4124
L129.9205 41.4601
" />
<path d="M129.9205 41.4601
L129.9681 41.5553
" />
<path d="M129.9681 41.5553
L129.9681 41.6982
" />
<path d="M129.9681 41.6982
L129.9205 41.7934
" />
<path d="M129.9205 41.7934
L129.8729 41.8410
" />
<path d="M129.8729 41.8410
L129.7776 41.8886
" />
<path d="M129.7776 41.8886
L129.3967 41.8886
" />
<path d="M130.3967 42.3648
L130.3967 41.6982
" />
<path d="M130.3967 41.3648
L130.3490 41.4124
" />
<path d="M130.3490 41.4124
L130.3967 41.4601
" />
<path d="M130.3967 41.4601
L130.4443 41.4124
" />
<path d="M130.4443 41.4124
L130.3967 41.3648
" />
<path d="M130.3967 41.3648
L130.3967 41.4601
" />
<path d="M131.3014 42.3172
L131.2062 42.3648
" />
<path d="M131.2062 42.3648
L131.0157 42.3648
" />
<path d="M131.0157 42.3648
L130.9205 42.3172
" />
<path d="M130.9205 42.3172
L130.8729 42.2696
" />
<path d="M130.8729 42.2696
L130.8252 42.1743
" />
<path d="M130.8252 42.1743
L130.8252 41.8886
" />
<path d="M130.8252 41.8886
L130.8729 41.7934
" />
<path d="M130.8729 41.7934
L130.9205 41.7458
" />
<path d="M130.9205 41.7458
L131.0157 41.6982
" />
<path d="M131.0157 41.6982
L131.2062 41.6982
" />
<path d="M131.2062 41.6982
L131.3014 41.7458
" />
<path d="M131.8729 42.3648
L131.7776 42.3172
" />
<path d="M131.7776 42.3172
L131.7300 42.2696
" />
<path d="M131.7300 42.2696
L131.6824 42.1743
" />
<path d="M131.6824 42.1743
L131.6824 41.8886
" />
<path d="M131.6824 41.8886
L131.7300 41.7934
" />
<path d="M131.7300 41.7934
L131.7776 41.7458
" />
<path d="M131.7776 41.7458
L131.8729 41.6982
" />
<path d="M131.8729 41.6982
L132.0157 41.6982
" />
<path d="M132.0157 41.6982
L132.1110 41.7458
" />
<path d="M132.1110 41.7458
L132.1586 41.7934
" />
<path d="M132.1586 41.7934
L132.2062 41.8886
" />
<path d="M132.2062 41.8886
L132.2062 42.1743
" />
<path d="M132.2062 42.1743
L132.1586 42.2696
" />
<path d="M132.1586 42.2696
L132.1110 42.3172
" />
<path d="M132.1110 42.3172
L132.0157 42.3648
" />
<path d="M132.0157 42.3648
L131.8729 42.3648
" />
</g><text x="125.7300" y="44.9500"
textLength="2.0595" font-size="1.3333" lengthAdjust="spacingAndGlyphs"
text-anchor="middle" opacity="0">A1</text>
<g class="stroked-text"><desc>A1</desc>
<path d="M125.0157 44.6191
L125.4919 44.6191
" />
<path d="M124.9205 44.9048
L125.2538 43.9048
" />
<path d="M125.2538 43.9048
L125.5871 44.9048
" />
<path d="M126.4443 44.9048
L125.8729 44.9048
" />
<path d="M126.1586 44.9048
L126.1586 43.9048
" />
<path d="M126.1586 43.9048
L126.0633 44.0477
" />
<path d="M126.0633 44.0477
L125.9681 44.1429
" />
<path d="M125.9681 44.1429
L125.8729 44.1905
" />
</g><g >
</g>
<g >
</g>
<g >
</g>
<g >
</g>
<g >
</g>
<g >
</g>
<g >
</g>
<g >
</g>
</g> 
</svg>
