<?xml version="1.0" standalone="no"?>
 <!DOCTYPE svg PUBLIC "-//W3C//DTD SVG 1.1//EN" 
 "http://www.w3.org/Graphics/SVG/1.1/DTD/svg11.dtd"> 
<svg
  xmlns:svg="http://www.w3.org/2000/svg"
  xmlns="http://www.w3.org/2000/svg"
  xmlns:xlink="http://www.w3.org/1999/xlink"
  version="1.1"
  width="297.0022mm" height="210.0072mm" viewBox="0.0000 0.0000 297.0022 210.0072">
<title>SVG Image created as wirebug-F_Fab.svg date 2024/01/07 22:50:51 </title>
  <desc>Image generated by PCBNEW </desc>
<g style="fill:#000000; fill-opacity:1.0000;stroke:#000000; stroke-opacity:1.0000;
stroke-linecap:round; stroke-linejoin:round;"
 transform="translate(0 0) scale(1 1)">
</g>
<g style="fill:#000000; fill-opacity:0.0; 
stroke:#000000; stroke-width:0.0000; stroke-opacity:1; 
stroke-linecap:round; stroke-linejoin:round;">
</g>
<g style="fill:#000000; fill-opacity:0.0; 
stroke:#000000; stroke-width:0.1500; stroke-opacity:1; 
stroke-linecap:round; stroke-linejoin:round;">
<text x="114.0510" y="50.8120"
textLength="17.1071" font-size="1.3333" lengthAdjust="spacingAndGlyphs"
text-anchor="middle" opacity="0">Screw_Terminal_01x02</text>
<g class="stroked-text"><desc>Screw_Terminal_01x02</desc>
<path d="M105.8129 50.7192
L105.9558 50.7668
" />
<path d="M105.9558 50.7668
L106.1939 50.7668
" />
<path d="M106.1939 50.7668
L106.2891 50.7192
" />
<path d="M106.2891 50.7192
L106.3367 50.6716
" />
<path d="M106.3367 50.6716
L106.3843 50.5763
" />
<path d="M106.3843 50.5763
L106.3843 50.4811
" />
<path d="M106.3843 50.4811
L106.3367 50.3859
" />
<path d="M106.3367 50.3859
L106.2891 50.3382
" />
<path d="M106.2891 50.3382
L106.1939 50.2906
" />
<path d="M106.1939 50.2906
L106.0034 50.2430
" />
<path d="M106.0034 50.2430
L105.9081 50.1954
" />
<path d="M105.9081 50.1954
L105.8605 50.1478
" />
<path d="M105.8605 50.1478
L105.8129 50.0525
" />
<path d="M105.8129 50.0525
L105.8129 49.9573
" />
<path d="M105.8129 49.9573
L105.8605 49.8621
" />
<path d="M105.8605 49.8621
L105.9081 49.8144
" />
<path d="M105.9081 49.8144
L106.0034 49.7668
" />
<path d="M106.0034 49.7668
L106.2415 49.7668
" />
<path d="M106.2415 49.7668
L106.3843 49.8144
" />
<path d="M107.2415 50.7192
L107.1462 50.7668
" />
<path d="M107.1462 50.7668
L106.9558 50.7668
" />
<path d="M106.9558 50.7668
L106.8605 50.7192
" />
<path d="M106.8605 50.7192
L106.8129 50.6716
" />
<path d="M106.8129 50.6716
L106.7653 50.5763
" />
<path d="M106.7653 50.5763
L106.7653 50.2906
" />
<path d="M106.7653 50.2906
L106.8129 50.1954
" />
<path d="M106.8129 50.1954
L106.8605 50.1478
" />
<path d="M106.8605 50.1478
L106.9558 50.1002
" />
<path d="M106.9558 50.1002
L107.1462 50.1002
" />
<path d="M107.1462 50.1002
L107.2415 50.1478
" />
<path d="M107.6700 50.7668
L107.6700 50.1002
" />
<path d="M107.6700 50.2906
L107.7177 50.1954
" />
<path d="M107.7177 50.1954
L107.7653 50.1478
" />
<path d="M107.7653 50.1478
L107.8605 50.1002
" />
<path d="M107.8605 50.1002
L107.9558 50.1002
" />
<path d="M108.6700 50.7192
L108.5748 50.7668
" />
<path d="M108.5748 50.7668
L108.3843 50.7668
" />
<path d="M108.3843 50.7668
L108.2891 50.7192
" />
<path d="M108.2891 50.7192
L108.2415 50.6240
" />
<path d="M108.2415 50.6240
L108.2415 50.2430
" />
<path d="M108.2415 50.2430
L108.2891 50.1478
" />
<path d="M108.2891 50.1478
L108.3843 50.1002
" />
<path d="M108.3843 50.1002
L108.5748 50.1002
" />
<path d="M108.5748 50.1002
L108.6700 50.1478
" />
<path d="M108.6700 50.1478
L108.7177 50.2430
" />
<path d="M108.7177 50.2430
L108.7177 50.3382
" />
<path d="M108.7177 50.3382
L108.2415 50.4335
" />
<path d="M109.0510 50.1002
L109.2415 50.7668
" />
<path d="M109.2415 50.7668
L109.4320 50.2906
" />
<path d="M109.4320 50.2906
L109.6224 50.7668
" />
<path d="M109.6224 50.7668
L109.8129 50.1002
" />
<path d="M109.9558 50.8621
L110.7177 50.8621
" />
<path d="M110.8129 49.7668
L111.3843 49.7668
" />
<path d="M111.0986 50.7668
L111.0986 49.7668
" />
<path d="M112.0986 50.7192
L112.0034 50.7668
" />
<path d="M112.0034 50.7668
L111.8129 50.7668
" />
<path d="M111.8129 50.7668
L111.7177 50.7192
" />
<path d="M111.7177 50.7192
L111.6700 50.6240
" />
<path d="M111.6700 50.6240
L111.6700 50.2430
" />
<path d="M111.6700 50.2430
L111.7177 50.1478
" />
<path d="M111.7177 50.1478
L111.8129 50.1002
" />
<path d="M111.8129 50.1002
L112.0034 50.1002
" />
<path d="M112.0034 50.1002
L112.0986 50.1478
" />
<path d="M112.0986 50.1478
L112.1462 50.2430
" />
<path d="M112.1462 50.2430
L112.1462 50.3382
" />
<path d="M112.1462 50.3382
L111.6700 50.4335
" />
<path d="M112.5748 50.7668
L112.5748 50.1002
" />
<path d="M112.5748 50.2906
L112.6224 50.1954
" />
<path d="M112.6224 50.1954
L112.6700 50.1478
" />
<path d="M112.6700 50.1478
L112.7653 50.1002
" />
<path d="M112.7653 50.1002
L112.8605 50.1002
" />
<path d="M113.1939 50.7668
L113.1939 50.1002
" />
<path d="M113.1939 50.1954
L113.2415 50.1478
" />
<path d="M113.2415 50.1478
L113.3367 50.1002
" />
<path d="M113.3367 50.1002
L113.4796 50.1002
" />
<path d="M113.4796 50.1002
L113.5748 50.1478
" />
<path d="M113.5748 50.1478
L113.6224 50.2430
" />
<path d="M113.6224 50.2430
L113.6224 50.7668
" />
<path d="M113.6224 50.2430
L113.6700 50.1478
" />
<path d="M113.6700 50.1478
L113.7653 50.1002
" />
<path d="M113.7653 50.1002
L113.9081 50.1002
" />
<path d="M113.9081 50.1002
L114.0034 50.1478
" />
<path d="M114.0034 50.1478
L114.0510 50.2430
" />
<path d="M114.0510 50.2430
L114.0510 50.7668
" />
<path d="M114.5272 50.7668
L114.5272 50.1002
" />
<path d="M114.5272 49.7668
L114.4796 49.8144
" />
<path d="M114.4796 49.8144
L114.5272 49.8621
" />
<path d="M114.5272 49.8621
L114.5748 49.8144
" />
<path d="M114.5748 49.8144
L114.5272 49.7668
" />
<path d="M114.5272 49.7668
L114.5272 49.8621
" />
<path d="M115.0034 50.1002
L115.0034 50.7668
" />
<path d="M115.0034 50.1954
L115.0510 50.1478
" />
<path d="M115.0510 50.1478
L115.1462 50.1002
" />
<path d="M115.1462 50.1002
L115.2891 50.1002
" />
<path d="M115.2891 50.1002
L115.3843 50.1478
" />
<path d="M115.3843 50.1478
L115.4320 50.2430
" />
<path d="M115.4320 50.2430
L115.4320 50.7668
" />
<path d="M116.3367 50.7668
L116.3367 50.2430
" />
<path d="M116.3367 50.2430
L116.2891 50.1478
" />
<path d="M116.2891 50.1478
L116.1939 50.1002
" />
<path d="M116.1939 50.1002
L116.0034 50.1002
" />
<path d="M116.0034 50.1002
L115.9081 50.1478
" />
<path d="M116.3367 50.7192
L116.2415 50.7668
" />
<path d="M116.2415 50.7668
L116.0034 50.7668
" />
<path d="M116.0034 50.7668
L115.9081 50.7192
" />
<path d="M115.9081 50.7192
L115.8605 50.6240
" />
<path d="M115.8605 50.6240
L115.8605 50.5287
" />
<path d="M115.8605 50.5287
L115.9081 50.4335
" />
<path d="M115.9081 50.4335
L116.0034 50.3859
" />
<path d="M116.0034 50.3859
L116.2415 50.3859
" />
<path d="M116.2415 50.3859
L116.3367 50.3382
" />
<path d="M116.9558 50.7668
L116.8605 50.7192
" />
<path d="M116.8605 50.7192
L116.8129 50.6240
" />
<path d="M116.8129 50.6240
L116.8129 49.7668
" />
<path d="M117.0986 50.8621
L117.8605 50.8621
" />
<path d="M118.2891 49.7668
L118.3843 49.7668
" />
<path d="M118.3843 49.7668
L118.4796 49.8144
" />
<path d="M118.4796 49.8144
L118.5272 49.8621
" />
<path d="M118.5272 49.8621
L118.5748 49.9573
" />
<path d="M118.5748 49.9573
L118.6224 50.1478
" />
<path d="M118.6224 50.1478
L118.6224 50.3859
" />
<path d="M118.6224 50.3859
L118.5748 50.5763
" />
<path d="M118.5748 50.5763
L118.5272 50.6716
" />
<path d="M118.5272 50.6716
L118.4796 50.7192
" />
<path d="M118.4796 50.7192
L118.3843 50.7668
" />
<path d="M118.3843 50.7668
L118.2891 50.7668
" />
<path d="M118.2891 50.7668
L118.1939 50.7192
" />
<path d="M118.1939 50.7192
L118.1462 50.6716
" />
<path d="M118.1462 50.6716
L118.0986 50.5763
" />
<path d="M118.0986 50.5763
L118.0510 50.3859
" />
<path d="M118.0510 50.3859
L118.0510 50.1478
" />
<path d="M118.0510 50.1478
L118.0986 49.9573
" />
<path d="M118.0986 49.9573
L118.1462 49.8621
" />
<path d="M118.1462 49.8621
L118.1939 49.8144
" />
<path d="M118.1939 49.8144
L118.2891 49.7668
" />
<path d="M119.5748 50.7668
L119.0034 50.7668
" />
<path d="M119.2891 50.7668
L119.2891 49.7668
" />
<path d="M119.2891 49.7668
L119.1939 49.9097
" />
<path d="M119.1939 49.9097
L119.0986 50.0049
" />
<path d="M119.0986 50.0049
L119.0034 50.0525
" />
<path d="M119.9081 50.7668
L120.4320 50.1002
" />
<path d="M119.9081 50.1002
L120.4320 50.7668
" />
<path d="M121.0034 49.7668
L121.0986 49.7668
" />
<path d="M121.0986 49.7668
L121.1939 49.8144
" />
<path d="M121.1939 49.8144
L121.2415 49.8621
" />
<path d="M121.2415 49.8621
L121.2891 49.9573
" />
<path d="M121.2891 49.9573
L121.3367 50.1478
" />
<path d="M121.3367 50.1478
L121.3367 50.3859
" />
<path d="M121.3367 50.3859
L121.2891 50.5763
" />
<path d="M121.2891 50.5763
L121.2415 50.6716
" />
<path d="M121.2415 50.6716
L121.1939 50.7192
" />
<path d="M121.1939 50.7192
L121.0986 50.7668
" />
<path d="M121.0986 50.7668
L121.0034 50.7668
" />
<path d="M121.0034 50.7668
L120.9081 50.7192
" />
<path d="M120.9081 50.7192
L120.8605 50.6716
" />
<path d="M120.8605 50.6716
L120.8129 50.5763
" />
<path d="M120.8129 50.5763
L120.7653 50.3859
" />
<path d="M120.7653 50.3859
L120.7653 50.1478
" />
<path d="M120.7653 50.1478
L120.8129 49.9573
" />
<path d="M120.8129 49.9573
L120.8605 49.8621
" />
<path d="M120.8605 49.8621
L120.9081 49.8144
" />
<path d="M120.9081 49.8144
L121.0034 49.7668
" />
<path d="M121.7177 49.8621
L121.7653 49.8144
" />
<path d="M121.7653 49.8144
L121.8605 49.7668
" />
<path d="M121.8605 49.7668
L122.0986 49.7668
" />
<path d="M122.0986 49.7668
L122.1939 49.8144
" />
<path d="M122.1939 49.8144
L122.2415 49.8621
" />
<path d="M122.2415 49.8621
L122.2891 49.9573
" />
<path d="M122.2891 49.9573
L122.2891 50.0525
" />
<path d="M122.2891 50.0525
L122.2415 50.1954
" />
<path d="M122.2415 50.1954
L121.6700 50.7668
" />
<path d="M121.6700 50.7668
L122.2891 50.7668
" />
</g><text x="114.0510" y="52.8720"
textLength="1.9643" font-size="1.3333" lengthAdjust="spacingAndGlyphs"
text-anchor="middle" opacity="0">J3</text>
<g class="stroked-text"><desc>J3</desc>
<path d="M113.7177 51.8268
L113.7177 52.5411
" />
<path d="M113.7177 52.5411
L113.6700 52.6840
" />
<path d="M113.6700 52.6840
L113.5748 52.7792
" />
<path d="M113.5748 52.7792
L113.4320 52.8268
" />
<path d="M113.4320 52.8268
L113.3367 52.8268
" />
<path d="M114.0986 51.8268
L114.7177 51.8268
" />
<path d="M114.7177 51.8268
L114.3843 52.2078
" />
<path d="M114.3843 52.2078
L114.5272 52.2078
" />
<path d="M114.5272 52.2078
L114.6224 52.2554
" />
<path d="M114.6224 52.2554
L114.6700 52.3030
" />
<path d="M114.6700 52.3030
L114.7177 52.3982
" />
<path d="M114.7177 52.3982
L114.7177 52.6363
" />
<path d="M114.7177 52.6363
L114.6700 52.7316
" />
<path d="M114.6700 52.7316
L114.6224 52.7792
" />
<path d="M114.6224 52.7792
L114.5272 52.8268
" />
<path d="M114.5272 52.8268
L114.2415 52.8268
" />
<path d="M114.2415 52.8268
L114.1462 52.7792
" />
<path d="M114.1462 52.7792
L114.0986 52.7316
" />
</g><text x="117.6020" y="73.6520"
textLength="2.2024" font-size="1.3333" lengthAdjust="spacingAndGlyphs"
text-anchor="middle" opacity="0">1K</text>
<g class="stroked-text"><desc>1K</desc>
<path d="M117.3877 73.6068
L116.8163 73.6068
" />
<path d="M117.1020 73.6068
L117.1020 72.6068
" />
<path d="M117.1020 72.6068
L117.0068 72.7497
" />
<path d="M117.0068 72.7497
L116.9115 72.8449
" />
<path d="M116.9115 72.8449
L116.8163 72.8925
" />
<path d="M117.8163 73.6068
L117.8163 72.6068
" />
<path d="M118.3877 73.6068
L117.9591 73.0354
" />
<path d="M118.3877 72.6068
L117.8163 73.1782
" />
</g><text x="125.9030" y="110.1010"
textLength="4.5357" font-size="1.3333" lengthAdjust="spacingAndGlyphs"
text-anchor="middle" opacity="0">REF**</text>
<g class="stroked-text"><desc>REF**</desc>
<path d="M124.5697 110.0558
L124.2363 109.5796
" />
<path d="M123.9982 110.0558
L123.9982 109.0558
" />
<path d="M123.9982 109.0558
L124.3792 109.0558
" />
<path d="M124.3792 109.0558
L124.4744 109.1034
" />
<path d="M124.4744 109.1034
L124.5220 109.1511
" />
<path d="M124.5220 109.1511
L124.5697 109.2463
" />
<path d="M124.5697 109.2463
L124.5697 109.3892
" />
<path d="M124.5697 109.3892
L124.5220 109.4844
" />
<path d="M124.5220 109.4844
L124.4744 109.5320
" />
<path d="M124.4744 109.5320
L124.3792 109.5796
" />
<path d="M124.3792 109.5796
L123.9982 109.5796
" />
<path d="M124.9982 109.5320
L125.3316 109.5320
" />
<path d="M125.4744 110.0558
L124.9982 110.0558
" />
<path d="M124.9982 110.0558
L124.9982 109.0558
" />
<path d="M124.9982 109.0558
L125.4744 109.0558
" />
<path d="M126.2363 109.5320
L125.9030 109.5320
" />
<path d="M125.9030 110.0558
L125.9030 109.0558
" />
<path d="M125.9030 109.0558
L126.3792 109.0558
" />
<path d="M126.9030 109.0558
L126.9030 109.2939
" />
<path d="M126.6649 109.1987
L126.9030 109.2939
" />
<path d="M126.9030 109.2939
L127.1411 109.1987
" />
<path d="M126.7601 109.4844
L126.9030 109.2939
" />
<path d="M126.9030 109.2939
L127.0459 109.4844
" />
<path d="M127.6649 109.0558
L127.6649 109.2939
" />
<path d="M127.4268 109.1987
L127.6649 109.2939
" />
<path d="M127.6649 109.2939
L127.9030 109.1987
" />
<path d="M127.5220 109.4844
L127.6649 109.2939
" />
<path d="M127.6649 109.2939
L127.8078 109.4844
" />
</g><text x="111.7600" y="73.6520"
textLength="2.2024" font-size="1.3333" lengthAdjust="spacingAndGlyphs"
text-anchor="middle" opacity="0">1K</text>
<g class="stroked-text"><desc>1K</desc>
<path d="M111.5457 73.6068
L110.9743 73.6068
" />
<path d="M111.2600 73.6068
L111.2600 72.6068
" />
<path d="M111.2600 72.6068
L111.1648 72.7497
" />
<path d="M111.1648 72.7497
L111.0695 72.8449
" />
<path d="M111.0695 72.8449
L110.9743 72.8925
" />
<path d="M111.9743 73.6068
L111.9743 72.6068
" />
<path d="M112.5457 73.6068
L112.1171 73.0354
" />
<path d="M112.5457 72.6068
L111.9743 73.1782
" />
</g><g transform="rotate(-90.000000 115.0660 80.2640)">
<text x="115.0660" y="80.7640"
textLength="5.1071" font-size="1.3333" lengthAdjust="spacingAndGlyphs"
text-anchor="middle" opacity="0">BC337</text>
</g>
<g class="stroked-text"><desc>BC337</desc>
<path d="M114.9970 82.1211
L115.0446 81.9783
" />
<path d="M115.0446 81.9783
L115.0922 81.9307
" />
<path d="M115.0922 81.9307
L115.1875 81.8830
" />
<path d="M115.1875 81.8830
L115.3303 81.8830
" />
<path d="M115.3303 81.8830
L115.4256 81.9307
" />
<path d="M115.4256 81.9307
L115.4732 81.9783
" />
<path d="M115.4732 81.9783
L115.5208 82.0735
" />
<path d="M115.5208 82.0735
L115.5208 82.4545
" />
<path d="M115.5208 82.4545
L114.5208 82.4545
" />
<path d="M114.5208 82.4545
L114.5208 82.1211
" />
<path d="M114.5208 82.1211
L114.5684 82.0259
" />
<path d="M114.5684 82.0259
L114.6161 81.9783
" />
<path d="M114.6161 81.9783
L114.7113 81.9307
" />
<path d="M114.7113 81.9307
L114.8065 81.9307
" />
<path d="M114.8065 81.9307
L114.9018 81.9783
" />
<path d="M114.9018 81.9783
L114.9494 82.0259
" />
<path d="M114.9494 82.0259
L114.9970 82.1211
" />
<path d="M114.9970 82.1211
L114.9970 82.4545
" />
<path d="M115.4256 80.8830
L115.4732 80.9307
" />
<path d="M115.4732 80.9307
L115.5208 81.0735
" />
<path d="M115.5208 81.0735
L115.5208 81.1688
" />
<path d="M115.5208 81.1688
L115.4732 81.3116
" />
<path d="M115.4732 81.3116
L115.3780 81.4069
" />
<path d="M115.3780 81.4069
L115.2827 81.4545
" />
<path d="M115.2827 81.4545
L115.0922 81.5021
" />
<path d="M115.0922 81.5021
L114.9494 81.5021
" />
<path d="M114.9494 81.5021
L114.7589 81.4545
" />
<path d="M114.7589 81.4545
L114.6637 81.4069
" />
<path d="M114.6637 81.4069
L114.5684 81.3116
" />
<path d="M114.5684 81.3116
L114.5208 81.1688
" />
<path d="M114.5208 81.1688
L114.5208 81.0735
" />
<path d="M114.5208 81.0735
L114.5684 80.9307
" />
<path d="M114.5684 80.9307
L114.6161 80.8830
" />
<path d="M114.5208 80.5497
L114.5208 79.9307
" />
<path d="M114.5208 79.9307
L114.9018 80.2640
" />
<path d="M114.9018 80.2640
L114.9018 80.1211
" />
<path d="M114.9018 80.1211
L114.9494 80.0259
" />
<path d="M114.9494 80.0259
L114.9970 79.9783
" />
<path d="M114.9970 79.9783
L115.0922 79.9307
" />
<path d="M115.0922 79.9307
L115.3303 79.9307
" />
<path d="M115.3303 79.9307
L115.4256 79.9783
" />
<path d="M115.4256 79.9783
L115.4732 80.0259
" />
<path d="M115.4732 80.0259
L115.5208 80.1211
" />
<path d="M115.5208 80.1211
L115.5208 80.4069
" />
<path d="M115.5208 80.4069
L115.4732 80.5021
" />
<path d="M115.4732 80.5021
L115.4256 80.5497
" />
<path d="M114.5208 79.5973
L114.5208 78.9783
" />
<path d="M114.5208 78.9783
L114.9018 79.3116
" />
<path d="M114.9018 79.3116
L114.9018 79.1688
" />
<path d="M114.9018 79.1688
L114.9494 79.0735
" />
<path d="M114.9494 79.0735
L114.9970 79.0259
" />
<path d="M114.9970 79.0259
L115.0922 78.9783
" />
<path d="M115.0922 78.9783
L115.3303 78.9783
" />
<path d="M115.3303 78.9783
L115.4256 79.0259
" />
<path d="M115.4256 79.0259
L115.4732 79.0735
" />
<path d="M115.4732 79.0735
L115.5208 79.1688
" />
<path d="M115.5208 79.1688
L115.5208 79.4545
" />
<path d="M115.5208 79.4545
L115.4732 79.5497
" />
<path d="M115.4732 79.5497
L115.4256 79.5973
" />
<path d="M114.5208 78.6450
L114.5208 77.9783
" />
<path d="M114.5208 77.9783
L115.5208 78.4069
" />
</g><g transform="rotate(-90.000000 117.8560 80.2640)">
<text x="117.8560" y="80.7640"
textLength="2.2500" font-size="1.3333" lengthAdjust="spacingAndGlyphs"
text-anchor="middle" opacity="0">Q2</text>
</g>
<g class="stroked-text"><desc>Q2</desc>
<path d="M118.4061 80.3592
L118.3584 80.4545
" />
<path d="M118.3584 80.4545
L118.2632 80.5497
" />
<path d="M118.2632 80.5497
L118.1203 80.6926
" />
<path d="M118.1203 80.6926
L118.0727 80.7878
" />
<path d="M118.0727 80.7878
L118.0727 80.8830
" />
<path d="M118.3108 80.8354
L118.2632 80.9307
" />
<path d="M118.2632 80.9307
L118.1680 81.0259
" />
<path d="M118.1680 81.0259
L117.9775 81.0735
" />
<path d="M117.9775 81.0735
L117.6442 81.0735
" />
<path d="M117.6442 81.0735
L117.4537 81.0259
" />
<path d="M117.4537 81.0259
L117.3584 80.9307
" />
<path d="M117.3584 80.9307
L117.3108 80.8354
" />
<path d="M117.3108 80.8354
L117.3108 80.6450
" />
<path d="M117.3108 80.6450
L117.3584 80.5497
" />
<path d="M117.3584 80.5497
L117.4537 80.4545
" />
<path d="M117.4537 80.4545
L117.6442 80.4069
" />
<path d="M117.6442 80.4069
L117.9775 80.4069
" />
<path d="M117.9775 80.4069
L118.1680 80.4545
" />
<path d="M118.1680 80.4545
L118.2632 80.5497
" />
<path d="M118.2632 80.5497
L118.3108 80.6450
" />
<path d="M118.3108 80.6450
L118.3108 80.8354
" />
<path d="M117.4061 80.0259
L117.3584 79.9783
" />
<path d="M117.3584 79.9783
L117.3108 79.8830
" />
<path d="M117.3108 79.8830
L117.3108 79.6450
" />
<path d="M117.3108 79.6450
L117.3584 79.5497
" />
<path d="M117.3584 79.5497
L117.4061 79.5021
" />
<path d="M117.4061 79.5021
L117.5013 79.4545
" />
<path d="M117.5013 79.4545
L117.5965 79.4545
" />
<path d="M117.5965 79.4545
L117.7394 79.5021
" />
<path d="M117.7394 79.5021
L118.3108 80.0735
" />
<path d="M118.3108 80.0735
L118.3108 79.4545
" />
</g><g transform="rotate(-90.000000 110.8920 80.2640)">
<text x="110.8920" y="80.7640"
textLength="2.2500" font-size="1.3333" lengthAdjust="spacingAndGlyphs"
text-anchor="middle" opacity="0">Q1</text>
</g>
<g class="stroked-text"><desc>Q1</desc>
<path d="M111.4421 80.3592
L111.3944 80.4545
" />
<path d="M111.3944 80.4545
L111.2992 80.5497
" />
<path d="M111.2992 80.5497
L111.1563 80.6926
" />
<path d="M111.1563 80.6926
L111.1087 80.7878
" />
<path d="M111.1087 80.7878
L111.1087 80.8830
" />
<path d="M111.3468 80.8354
L111.2992 80.9307
" />
<path d="M111.2992 80.9307
L111.2040 81.0259
" />
<path d="M111.2040 81.0259
L111.0135 81.0735
" />
<path d="M111.0135 81.0735
L110.6802 81.0735
" />
<path d="M110.6802 81.0735
L110.4897 81.0259
" />
<path d="M110.4897 81.0259
L110.3944 80.9307
" />
<path d="M110.3944 80.9307
L110.3468 80.8354
" />
<path d="M110.3468 80.8354
L110.3468 80.6450
" />
<path d="M110.3468 80.6450
L110.3944 80.5497
" />
<path d="M110.3944 80.5497
L110.4897 80.4545
" />
<path d="M110.4897 80.4545
L110.6802 80.4069
" />
<path d="M110.6802 80.4069
L111.0135 80.4069
" />
<path d="M111.0135 80.4069
L111.2040 80.4545
" />
<path d="M111.2040 80.4545
L111.2992 80.5497
" />
<path d="M111.2992 80.5497
L111.3468 80.6450
" />
<path d="M111.3468 80.6450
L111.3468 80.8354
" />
<path d="M111.3468 79.4545
L111.3468 80.0259
" />
<path d="M111.3468 79.7402
L110.3468 79.7402
" />
<path d="M110.3468 79.7402
L110.4897 79.8354
" />
<path d="M110.4897 79.8354
L110.5849 79.9307
" />
<path d="M110.5849 79.9307
L110.6325 80.0259
" />
</g><text x="114.8080" y="99.5600"
textLength="6.9167" font-size="1.3333" lengthAdjust="spacingAndGlyphs"
text-anchor="middle" opacity="0">AW3211F</text>
<g class="stroked-text"><desc>AW3211F</desc>
<path d="M111.6651 99.2291
L112.1413 99.2291
" />
<path d="M111.5699 99.5148
L111.9032 98.5148
" />
<path d="M111.9032 98.5148
L112.2366 99.5148
" />
<path d="M112.4747 98.5148
L112.7128 99.5148
" />
<path d="M112.7128 99.5148
L112.9032 98.8005
" />
<path d="M112.9032 98.8005
L113.0937 99.5148
" />
<path d="M113.0937 99.5148
L113.3318 98.5148
" />
<path d="M113.6175 98.5148
L114.2366 98.5148
" />
<path d="M114.2366 98.5148
L113.9032 98.8958
" />
<path d="M113.9032 98.8958
L114.0461 98.8958
" />
<path d="M114.0461 98.8958
L114.1413 98.9434
" />
<path d="M114.1413 98.9434
L114.1890 98.9910
" />
<path d="M114.1890 98.9910
L114.2366 99.0862
" />
<path d="M114.2366 99.0862
L114.2366 99.3243
" />
<path d="M114.2366 99.3243
L114.1890 99.4196
" />
<path d="M114.1890 99.4196
L114.1413 99.4672
" />
<path d="M114.1413 99.4672
L114.0461 99.5148
" />
<path d="M114.0461 99.5148
L113.7604 99.5148
" />
<path d="M113.7604 99.5148
L113.6651 99.4672
" />
<path d="M113.6651 99.4672
L113.6175 99.4196
" />
<path d="M114.6175 98.6101
L114.6651 98.5624
" />
<path d="M114.6651 98.5624
L114.7604 98.5148
" />
<path d="M114.7604 98.5148
L114.9985 98.5148
" />
<path d="M114.9985 98.5148
L115.0937 98.5624
" />
<path d="M115.0937 98.5624
L115.1413 98.6101
" />
<path d="M115.1413 98.6101
L115.1890 98.7053
" />
<path d="M115.1890 98.7053
L115.1890 98.8005
" />
<path d="M115.1890 98.8005
L115.1413 98.9434
" />
<path d="M115.1413 98.9434
L114.5699 99.5148
" />
<path d="M114.5699 99.5148
L115.1890 99.5148
" />
<path d="M116.1413 99.5148
L115.5699 99.5148
" />
<path d="M115.8556 99.5148
L115.8556 98.5148
" />
<path d="M115.8556 98.5148
L115.7604 98.6577
" />
<path d="M115.7604 98.6577
L115.6651 98.7529
" />
<path d="M115.6651 98.7529
L115.5699 98.8005
" />
<path d="M117.0937 99.5148
L116.5223 99.5148
" />
<path d="M116.8080 99.5148
L116.8080 98.5148
" />
<path d="M116.8080 98.5148
L116.7128 98.6577
" />
<path d="M116.7128 98.6577
L116.6175 98.7529
" />
<path d="M116.6175 98.7529
L116.5223 98.8005
" />
<path d="M117.8556 98.9910
L117.5223 98.9910
" />
<path d="M117.5223 99.5148
L117.5223 98.5148
" />
<path d="M117.5223 98.5148
L117.9985 98.5148
" />
</g><text x="114.9350" y="90.1747"
textLength="2.2024" font-size="1.3333" lengthAdjust="spacingAndGlyphs"
text-anchor="middle" opacity="0">K1</text>
<g class="stroked-text"><desc>K1</desc>
<path d="M114.1969 90.1295
L114.1969 89.1295
" />
<path d="M114.7683 90.1295
L114.3398 89.5581
" />
<path d="M114.7683 89.1295
L114.1969 89.7009
" />
<path d="M115.7207 90.1295
L115.1493 90.1295
" />
<path d="M115.4350 90.1295
L115.4350 89.1295
" />
<path d="M115.4350 89.1295
L115.3398 89.2724
" />
<path d="M115.3398 89.2724
L115.2445 89.3676
" />
<path d="M115.2445 89.3676
L115.1493 89.4152
" />
</g><text x="109.8550" y="83.4014"
textLength="1.0119" font-size="1.3333" lengthAdjust="spacingAndGlyphs"
text-anchor="middle" opacity="0">*</text>
<g class="stroked-text"><desc>*</desc>
<path d="M109.8550 82.3562
L109.8550 82.5943
" />
<path d="M109.6169 82.4990
L109.8550 82.5943
" />
<path d="M109.8550 82.5943
L110.0931 82.4990
" />
<path d="M109.7121 82.7848
L109.8550 82.5943
" />
<path d="M109.8550 82.5943
L109.9979 82.7848
" />
</g><text x="109.8550" y="83.4014"
textLength="1.0119" font-size="1.3333" lengthAdjust="spacingAndGlyphs"
text-anchor="middle" opacity="0">*</text>
<g class="stroked-text"><desc>*</desc>
<path d="M109.8550 82.3562
L109.8550 82.5943
" />
<path d="M109.6169 82.4990
L109.8550 82.5943
" />
<path d="M109.8550 82.5943
L110.0931 82.4990
" />
<path d="M109.7121 82.7848
L109.8550 82.5943
" />
<path d="M109.8550 82.5943
L109.9979 82.7848
" />
</g><g transform="rotate(-90.000000 141.4300 109.7330)">
<text x="141.4300" y="110.2330"
textLength="1.9643" font-size="1.3333" lengthAdjust="spacingAndGlyphs"
text-anchor="middle" opacity="0">J1</text>
</g>
<g class="stroked-text"><desc>J1</desc>
<path d="M140.8848 110.0663
L141.5991 110.0663
" />
<path d="M141.5991 110.0663
L141.7420 110.1140
" />
<path d="M141.7420 110.1140
L141.8372 110.2092
" />
<path d="M141.8372 110.2092
L141.8848 110.3520
" />
<path d="M141.8848 110.3520
L141.8848 110.4473
" />
<path d="M141.8848 109.0663
L141.8848 109.6378
" />
<path d="M141.8848 109.3520
L140.8848 109.3520
" />
<path d="M140.8848 109.3520
L141.0277 109.4473
" />
<path d="M141.0277 109.4473
L141.1229 109.5425
" />
<path d="M141.1229 109.5425
L141.1705 109.6378
" />
</g><text x="132.5880" y="74.4140"
textLength="13.5833" font-size="1.3333" lengthAdjust="spacingAndGlyphs"
text-anchor="middle" opacity="0">RaspberryPi-Pico</text>
<g class="stroked-text"><desc>RaspberryPi-Pico</desc>
<path d="M126.7309 74.3688
L126.3975 73.8926
" />
<path d="M126.1594 74.3688
L126.1594 73.3688
" />
<path d="M126.1594 73.3688
L126.5404 73.3688
" />
<path d="M126.5404 73.3688
L126.6356 73.4164
" />
<path d="M126.6356 73.4164
L126.6832 73.4641
" />
<path d="M126.6832 73.4641
L126.7309 73.5593
" />
<path d="M126.7309 73.5593
L126.7309 73.7022
" />
<path d="M126.7309 73.7022
L126.6832 73.7974
" />
<path d="M126.6832 73.7974
L126.6356 73.8450
" />
<path d="M126.6356 73.8450
L126.5404 73.8926
" />
<path d="M126.5404 73.8926
L126.1594 73.8926
" />
<path d="M127.5880 74.3688
L127.5880 73.8450
" />
<path d="M127.5880 73.8450
L127.5404 73.7498
" />
<path d="M127.5404 73.7498
L127.4451 73.7022
" />
<path d="M127.4451 73.7022
L127.2547 73.7022
" />
<path d="M127.2547 73.7022
L127.1594 73.7498
" />
<path d="M127.5880 74.3212
L127.4928 74.3688
" />
<path d="M127.4928 74.3688
L127.2547 74.3688
" />
<path d="M127.2547 74.3688
L127.1594 74.3212
" />
<path d="M127.1594 74.3212
L127.1118 74.2260
" />
<path d="M127.1118 74.2260
L127.1118 74.1307
" />
<path d="M127.1118 74.1307
L127.1594 74.0355
" />
<path d="M127.1594 74.0355
L127.2547 73.9879
" />
<path d="M127.2547 73.9879
L127.4928 73.9879
" />
<path d="M127.4928 73.9879
L127.5880 73.9402
" />
<path d="M128.0166 74.3212
L128.1118 74.3688
" />
<path d="M128.1118 74.3688
L128.3023 74.3688
" />
<path d="M128.3023 74.3688
L128.3975 74.3212
" />
<path d="M128.3975 74.3212
L128.4451 74.2260
" />
<path d="M128.4451 74.2260
L128.4451 74.1783
" />
<path d="M128.4451 74.1783
L128.3975 74.0831
" />
<path d="M128.3975 74.0831
L128.3023 74.0355
" />
<path d="M128.3023 74.0355
L128.1594 74.0355
" />
<path d="M128.1594 74.0355
L128.0642 73.9879
" />
<path d="M128.0642 73.9879
L128.0166 73.8926
" />
<path d="M128.0166 73.8926
L128.0166 73.8450
" />
<path d="M128.0166 73.8450
L128.0642 73.7498
" />
<path d="M128.0642 73.7498
L128.1594 73.7022
" />
<path d="M128.1594 73.7022
L128.3023 73.7022
" />
<path d="M128.3023 73.7022
L128.3975 73.7498
" />
<path d="M128.8737 73.7022
L128.8737 74.7022
" />
<path d="M128.8737 73.7498
L128.9690 73.7022
" />
<path d="M128.9690 73.7022
L129.1594 73.7022
" />
<path d="M129.1594 73.7022
L129.2547 73.7498
" />
<path d="M129.2547 73.7498
L129.3023 73.7974
" />
<path d="M129.3023 73.7974
L129.3499 73.8926
" />
<path d="M129.3499 73.8926
L129.3499 74.1783
" />
<path d="M129.3499 74.1783
L129.3023 74.2736
" />
<path d="M129.3023 74.2736
L129.2547 74.3212
" />
<path d="M129.2547 74.3212
L129.1594 74.3688
" />
<path d="M129.1594 74.3688
L128.9690 74.3688
" />
<path d="M128.9690 74.3688
L128.8737 74.3212
" />
<path d="M129.7785 74.3688
L129.7785 73.3688
" />
<path d="M129.7785 73.7498
L129.8737 73.7022
" />
<path d="M129.8737 73.7022
L130.0642 73.7022
" />
<path d="M130.0642 73.7022
L130.1594 73.7498
" />
<path d="M130.1594 73.7498
L130.2070 73.7974
" />
<path d="M130.2070 73.7974
L130.2547 73.8926
" />
<path d="M130.2547 73.8926
L130.2547 74.1783
" />
<path d="M130.2547 74.1783
L130.2070 74.2736
" />
<path d="M130.2070 74.2736
L130.1594 74.3212
" />
<path d="M130.1594 74.3212
L130.0642 74.3688
" />
<path d="M130.0642 74.3688
L129.8737 74.3688
" />
<path d="M129.8737 74.3688
L129.7785 74.3212
" />
<path d="M131.0642 74.3212
L130.9690 74.3688
" />
<path d="M130.9690 74.3688
L130.7785 74.3688
" />
<path d="M130.7785 74.3688
L130.6832 74.3212
" />
<path d="M130.6832 74.3212
L130.6356 74.2260
" />
<path d="M130.6356 74.2260
L130.6356 73.8450
" />
<path d="M130.6356 73.8450
L130.6832 73.7498
" />
<path d="M130.6832 73.7498
L130.7785 73.7022
" />
<path d="M130.7785 73.7022
L130.9690 73.7022
" />
<path d="M130.9690 73.7022
L131.0642 73.7498
" />
<path d="M131.0642 73.7498
L131.1118 73.8450
" />
<path d="M131.1118 73.8450
L131.1118 73.9402
" />
<path d="M131.1118 73.9402
L130.6356 74.0355
" />
<path d="M131.5404 74.3688
L131.5404 73.7022
" />
<path d="M131.5404 73.8926
L131.5880 73.7974
" />
<path d="M131.5880 73.7974
L131.6356 73.7498
" />
<path d="M131.6356 73.7498
L131.7309 73.7022
" />
<path d="M131.7309 73.7022
L131.8261 73.7022
" />
<path d="M132.1594 74.3688
L132.1594 73.7022
" />
<path d="M132.1594 73.8926
L132.2070 73.7974
" />
<path d="M132.2070 73.7974
L132.2547 73.7498
" />
<path d="M132.2547 73.7498
L132.3499 73.7022
" />
<path d="M132.3499 73.7022
L132.4451 73.7022
" />
<path d="M132.6832 73.7022
L132.9213 74.3688
" />
<path d="M133.1594 73.7022
L132.9213 74.3688
" />
<path d="M132.9213 74.3688
L132.8261 74.6069
" />
<path d="M132.8261 74.6069
L132.7785 74.6545
" />
<path d="M132.7785 74.6545
L132.6832 74.7022
" />
<path d="M133.5404 74.3688
L133.5404 73.3688
" />
<path d="M133.5404 73.3688
L133.9213 73.3688
" />
<path d="M133.9213 73.3688
L134.0166 73.4164
" />
<path d="M134.0166 73.4164
L134.0642 73.4641
" />
<path d="M134.0642 73.4641
L134.1118 73.5593
" />
<path d="M134.1118 73.5593
L134.1118 73.7022
" />
<path d="M134.1118 73.7022
L134.0642 73.7974
" />
<path d="M134.0642 73.7974
L134.0166 73.8450
" />
<path d="M134.0166 73.8450
L133.9213 73.8926
" />
<path d="M133.9213 73.8926
L133.5404 73.8926
" />
<path d="M134.5404 74.3688
L134.5404 73.7022
" />
<path d="M134.5404 73.3688
L134.4928 73.4164
" />
<path d="M134.4928 73.4164
L134.5404 73.4641
" />
<path d="M134.5404 73.4641
L134.5880 73.4164
" />
<path d="M134.5880 73.4164
L134.5404 73.3688
" />
<path d="M134.5404 73.3688
L134.5404 73.4641
" />
<path d="M135.0166 73.9879
L135.7785 73.9879
" />
<path d="M136.2547 74.3688
L136.2547 73.3688
" />
<path d="M136.2547 73.3688
L136.6356 73.3688
" />
<path d="M136.6356 73.3688
L136.7309 73.4164
" />
<path d="M136.7309 73.4164
L136.7785 73.4641
" />
<path d="M136.7785 73.4641
L136.8261 73.5593
" />
<path d="M136.8261 73.5593
L136.8261 73.7022
" />
<path d="M136.8261 73.7022
L136.7785 73.7974
" />
<path d="M136.7785 73.7974
L136.7309 73.8450
" />
<path d="M136.7309 73.8450
L136.6356 73.8926
" />
<path d="M136.6356 73.8926
L136.2547 73.8926
" />
<path d="M137.2547 74.3688
L137.2547 73.7022
" />
<path d="M137.2547 73.3688
L137.2070 73.4164
" />
<path d="M137.2070 73.4164
L137.2547 73.4641
" />
<path d="M137.2547 73.4641
L137.3023 73.4164
" />
<path d="M137.3023 73.4164
L137.2547 73.3688
" />
<path d="M137.2547 73.3688
L137.2547 73.4641
" />
<path d="M138.1594 74.3212
L138.0642 74.3688
" />
<path d="M138.0642 74.3688
L137.8737 74.3688
" />
<path d="M137.8737 74.3688
L137.7785 74.3212
" />
<path d="M137.7785 74.3212
L137.7309 74.2736
" />
<path d="M137.7309 74.2736
L137.6832 74.1783
" />
<path d="M137.6832 74.1783
L137.6832 73.8926
" />
<path d="M137.6832 73.8926
L137.7309 73.7974
" />
<path d="M137.7309 73.7974
L137.7785 73.7498
" />
<path d="M137.7785 73.7498
L137.8737 73.7022
" />
<path d="M137.8737 73.7022
L138.0642 73.7022
" />
<path d="M138.0642 73.7022
L138.1594 73.7498
" />
<path d="M138.7309 74.3688
L138.6356 74.3212
" />
<path d="M138.6356 74.3212
L138.5880 74.2736
" />
<path d="M138.5880 74.2736
L138.5404 74.1783
" />
<path d="M138.5404 74.1783
L138.5404 73.8926
" />
<path d="M138.5404 73.8926
L138.5880 73.7974
" />
<path d="M138.5880 73.7974
L138.6356 73.7498
" />
<path d="M138.6356 73.7498
L138.7309 73.7022
" />
<path d="M138.7309 73.7022
L138.8737 73.7022
" />
<path d="M138.8737 73.7022
L138.9690 73.7498
" />
<path d="M138.9690 73.7498
L139.0166 73.7974
" />
<path d="M139.0166 73.7974
L139.0642 73.8926
" />
<path d="M139.0642 73.8926
L139.0642 74.1783
" />
<path d="M139.0642 74.1783
L139.0166 74.2736
" />
<path d="M139.0166 74.2736
L138.9690 74.3212
" />
<path d="M138.9690 74.3212
L138.8737 74.3688
" />
<path d="M138.8737 74.3688
L138.7309 74.3688
" />
</g><text x="132.5880" y="69.3340"
textLength="2.0595" font-size="1.3333" lengthAdjust="spacingAndGlyphs"
text-anchor="middle" opacity="0">A1</text>
<g class="stroked-text"><desc>A1</desc>
<path d="M131.8737 69.0031
L132.3499 69.0031
" />
<path d="M131.7785 69.2888
L132.1118 68.2888
" />
<path d="M132.1118 68.2888
L132.4451 69.2888
" />
<path d="M133.3023 69.2888
L132.7309 69.2888
" />
<path d="M133.0166 69.2888
L133.0166 68.2888
" />
<path d="M133.0166 68.2888
L132.9213 68.4317
" />
<path d="M132.9213 68.4317
L132.8261 68.5269
" />
<path d="M132.8261 68.5269
L132.7309 68.5745
" />
</g><g transform="rotate(-90.000000 107.9700 109.9770)">
<text x="107.9700" y="110.4770"
textLength="17.1071" font-size="1.3333" lengthAdjust="spacingAndGlyphs"
text-anchor="middle" opacity="0">Screw_Terminal_01x02</text>
</g>
<g class="stroked-text"><desc>Screw_Terminal_01x02</desc>
<path d="M108.3772 118.2151
L108.4248 118.0722
" />
<path d="M108.4248 118.0722
L108.4248 117.8341
" />
<path d="M108.4248 117.8341
L108.3772 117.7389
" />
<path d="M108.3772 117.7389
L108.3296 117.6913
" />
<path d="M108.3296 117.6913
L108.2343 117.6437
" />
<path d="M108.2343 117.6437
L108.1391 117.6437
" />
<path d="M108.1391 117.6437
L108.0439 117.6913
" />
<path d="M108.0439 117.6913
L107.9962 117.7389
" />
<path d="M107.9962 117.7389
L107.9486 117.8341
" />
<path d="M107.9486 117.8341
L107.9010 118.0246
" />
<path d="M107.9010 118.0246
L107.8534 118.1199
" />
<path d="M107.8534 118.1199
L107.8058 118.1675
" />
<path d="M107.8058 118.1675
L107.7105 118.2151
" />
<path d="M107.7105 118.2151
L107.6153 118.2151
" />
<path d="M107.6153 118.2151
L107.5201 118.1675
" />
<path d="M107.5201 118.1675
L107.4724 118.1199
" />
<path d="M107.4724 118.1199
L107.4248 118.0246
" />
<path d="M107.4248 118.0246
L107.4248 117.7865
" />
<path d="M107.4248 117.7865
L107.4724 117.6437
" />
<path d="M108.3772 116.7865
L108.4248 116.8818
" />
<path d="M108.4248 116.8818
L108.4248 117.0722
" />
<path d="M108.4248 117.0722
L108.3772 117.1675
" />
<path d="M108.3772 117.1675
L108.3296 117.2151
" />
<path d="M108.3296 117.2151
L108.2343 117.2627
" />
<path d="M108.2343 117.2627
L107.9486 117.2627
" />
<path d="M107.9486 117.2627
L107.8534 117.2151
" />
<path d="M107.8534 117.2151
L107.8058 117.1675
" />
<path d="M107.8058 117.1675
L107.7582 117.0722
" />
<path d="M107.7582 117.0722
L107.7582 116.8818
" />
<path d="M107.7582 116.8818
L107.8058 116.7865
" />
<path d="M108.4248 116.3580
L107.7582 116.3580
" />
<path d="M107.9486 116.3580
L107.8534 116.3103
" />
<path d="M107.8534 116.3103
L107.8058 116.2627
" />
<path d="M107.8058 116.2627
L107.7582 116.1675
" />
<path d="M107.7582 116.1675
L107.7582 116.0722
" />
<path d="M108.3772 115.3580
L108.4248 115.4532
" />
<path d="M108.4248 115.4532
L108.4248 115.6437
" />
<path d="M108.4248 115.6437
L108.3772 115.7389
" />
<path d="M108.3772 115.7389
L108.2820 115.7865
" />
<path d="M108.2820 115.7865
L107.9010 115.7865
" />
<path d="M107.9010 115.7865
L107.8058 115.7389
" />
<path d="M107.8058 115.7389
L107.7582 115.6437
" />
<path d="M107.7582 115.6437
L107.7582 115.4532
" />
<path d="M107.7582 115.4532
L107.8058 115.3580
" />
<path d="M107.8058 115.3580
L107.9010 115.3103
" />
<path d="M107.9010 115.3103
L107.9962 115.3103
" />
<path d="M107.9962 115.3103
L108.0915 115.7865
" />
<path d="M107.7582 114.9770
L108.4248 114.7865
" />
<path d="M108.4248 114.7865
L107.9486 114.5960
" />
<path d="M107.9486 114.5960
L108.4248 114.4056
" />
<path d="M108.4248 114.4056
L107.7582 114.2151
" />
<path d="M108.5201 114.0722
L108.5201 113.3103
" />
<path d="M107.4248 113.2151
L107.4248 112.6437
" />
<path d="M108.4248 112.9294
L107.4248 112.9294
" />
<path d="M108.3772 111.9294
L108.4248 112.0246
" />
<path d="M108.4248 112.0246
L108.4248 112.2151
" />
<path d="M108.4248 112.2151
L108.3772 112.3103
" />
<path d="M108.3772 112.3103
L108.2820 112.3580
" />
<path d="M108.2820 112.3580
L107.9010 112.3580
" />
<path d="M107.9010 112.3580
L107.8058 112.3103
" />
<path d="M107.8058 112.3103
L107.7582 112.2151
" />
<path d="M107.7582 112.2151
L107.7582 112.0246
" />
<path d="M107.7582 112.0246
L107.8058 111.9294
" />
<path d="M107.8058 111.9294
L107.9010 111.8818
" />
<path d="M107.9010 111.8818
L107.9962 111.8818
" />
<path d="M107.9962 111.8818
L108.0915 112.3580
" />
<path d="M108.4248 111.4532
L107.7582 111.4532
" />
<path d="M107.9486 111.4532
L107.8534 111.4056
" />
<path d="M107.8534 111.4056
L107.8058 111.3580
" />
<path d="M107.8058 111.3580
L107.7582 111.2627
" />
<path d="M107.7582 111.2627
L107.7582 111.1675
" />
<path d="M108.4248 110.8341
L107.7582 110.8341
" />
<path d="M107.8534 110.8341
L107.8058 110.7865
" />
<path d="M107.8058 110.7865
L107.7582 110.6913
" />
<path d="M107.7582 110.6913
L107.7582 110.5484
" />
<path d="M107.7582 110.5484
L107.8058 110.4532
" />
<path d="M107.8058 110.4532
L107.9010 110.4056
" />
<path d="M107.9010 110.4056
L108.4248 110.4056
" />
<path d="M107.9010 110.4056
L107.8058 110.3580
" />
<path d="M107.8058 110.3580
L107.7582 110.2627
" />
<path d="M107.7582 110.2627
L107.7582 110.1199
" />
<path d="M107.7582 110.1199
L107.8058 110.0246
" />
<path d="M107.8058 110.0246
L107.9010 109.9770
" />
<path d="M107.9010 109.9770
L108.4248 109.9770
" />
<path d="M108.4248 109.5008
L107.7582 109.5008
" />
<path d="M107.4248 109.5008
L107.4724 109.5484
" />
<path d="M107.4724 109.5484
L107.5201 109.5008
" />
<path d="M107.5201 109.5008
L107.4724 109.4532
" />
<path d="M107.4724 109.4532
L107.4248 109.5008
" />
<path d="M107.4248 109.5008
L107.5201 109.5008
" />
<path d="M107.7582 109.0246
L108.4248 109.0246
" />
<path d="M107.8534 109.0246
L107.8058 108.9770
" />
<path d="M107.8058 108.9770
L107.7582 108.8818
" />
<path d="M107.7582 108.8818
L107.7582 108.7389
" />
<path d="M107.7582 108.7389
L107.8058 108.6437
" />
<path d="M107.8058 108.6437
L107.9010 108.5960
" />
<path d="M107.9010 108.5960
L108.4248 108.5960
" />
<path d="M108.4248 107.6913
L107.9010 107.6913
" />
<path d="M107.9010 107.6913
L107.8058 107.7389
" />
<path d="M107.8058 107.7389
L107.7582 107.8341
" />
<path d="M107.7582 107.8341
L107.7582 108.0246
" />
<path d="M107.7582 108.0246
L107.8058 108.1199
" />
<path d="M108.3772 107.6913
L108.4248 107.7865
" />
<path d="M108.4248 107.7865
L108.4248 108.0246
" />
<path d="M108.4248 108.0246
L108.3772 108.1199
" />
<path d="M108.3772 108.1199
L108.2820 108.1675
" />
<path d="M108.2820 108.1675
L108.1867 108.1675
" />
<path d="M108.1867 108.1675
L108.0915 108.1199
" />
<path d="M108.0915 108.1199
L108.0439 108.0246
" />
<path d="M108.0439 108.0246
L108.0439 107.7865
" />
<path d="M108.0439 107.7865
L107.9962 107.6913
" />
<path d="M108.4248 107.0722
L108.3772 107.1675
" />
<path d="M108.3772 107.1675
L108.2820 107.2151
" />
<path d="M108.2820 107.2151
L107.4248 107.2151
" />
<path d="M108.5201 106.9294
L108.5201 106.1675
" />
<path d="M107.4248 105.7389
L107.4248 105.6437
" />
<path d="M107.4248 105.6437
L107.4724 105.5484
" />
<path d="M107.4724 105.5484
L107.5201 105.5008
" />
<path d="M107.5201 105.5008
L107.6153 105.4532
" />
<path d="M107.6153 105.4532
L107.8058 105.4056
" />
<path d="M107.8058 105.4056
L108.0439 105.4056
" />
<path d="M108.0439 105.4056
L108.2343 105.4532
" />
<path d="M108.2343 105.4532
L108.3296 105.5008
" />
<path d="M108.3296 105.5008
L108.3772 105.5484
" />
<path d="M108.3772 105.5484
L108.4248 105.6437
" />
<path d="M108.4248 105.6437
L108.4248 105.7389
" />
<path d="M108.4248 105.7389
L108.3772 105.8341
" />
<path d="M108.3772 105.8341
L108.3296 105.8818
" />
<path d="M108.3296 105.8818
L108.2343 105.9294
" />
<path d="M108.2343 105.9294
L108.0439 105.9770
" />
<path d="M108.0439 105.9770
L107.8058 105.9770
" />
<path d="M107.8058 105.9770
L107.6153 105.9294
" />
<path d="M107.6153 105.9294
L107.5201 105.8818
" />
<path d="M107.5201 105.8818
L107.4724 105.8341
" />
<path d="M107.4724 105.8341
L107.4248 105.7389
" />
<path d="M108.4248 104.4532
L108.4248 105.0246
" />
<path d="M108.4248 104.7389
L107.4248 104.7389
" />
<path d="M107.4248 104.7389
L107.5677 104.8341
" />
<path d="M107.5677 104.8341
L107.6629 104.9294
" />
<path d="M107.6629 104.9294
L107.7105 105.0246
" />
<path d="M108.4248 104.1199
L107.7582 103.5960
" />
<path d="M107.7582 104.1199
L108.4248 103.5960
" />
<path d="M107.4248 103.0246
L107.4248 102.9294
" />
<path d="M107.4248 102.9294
L107.4724 102.8341
" />
<path d="M107.4724 102.8341
L107.5201 102.7865
" />
<path d="M107.5201 102.7865
L107.6153 102.7389
" />
<path d="M107.6153 102.7389
L107.8058 102.6913
" />
<path d="M107.8058 102.6913
L108.0439 102.6913
" />
<path d="M108.0439 102.6913
L108.2343 102.7389
" />
<path d="M108.2343 102.7389
L108.3296 102.7865
" />
<path d="M108.3296 102.7865
L108.3772 102.8341
" />
<path d="M108.3772 102.8341
L108.4248 102.9294
" />
<path d="M108.4248 102.9294
L108.4248 103.0246
" />
<path d="M108.4248 103.0246
L108.3772 103.1199
" />
<path d="M108.3772 103.1199
L108.3296 103.1675
" />
<path d="M108.3296 103.1675
L108.2343 103.2151
" />
<path d="M108.2343 103.2151
L108.0439 103.2627
" />
<path d="M108.0439 103.2627
L107.8058 103.2627
" />
<path d="M107.8058 103.2627
L107.6153 103.2151
" />
<path d="M107.6153 103.2151
L107.5201 103.1675
" />
<path d="M107.5201 103.1675
L107.4724 103.1199
" />
<path d="M107.4724 103.1199
L107.4248 103.0246
" />
<path d="M107.5201 102.3103
L107.4724 102.2627
" />
<path d="M107.4724 102.2627
L107.4248 102.1675
" />
<path d="M107.4248 102.1675
L107.4248 101.9294
" />
<path d="M107.4248 101.9294
L107.4724 101.8341
" />
<path d="M107.4724 101.8341
L107.5201 101.7865
" />
<path d="M107.5201 101.7865
L107.6153 101.7389
" />
<path d="M107.6153 101.7389
L107.7105 101.7389
" />
<path d="M107.7105 101.7389
L107.8534 101.7865
" />
<path d="M107.8534 101.7865
L108.4248 102.3580
" />
<path d="M108.4248 102.3580
L108.4248 101.7389
" />
</g><g transform="rotate(-90.000000 110.0300 109.9770)">
<text x="110.0300" y="110.4770"
textLength="1.9643" font-size="1.3333" lengthAdjust="spacingAndGlyphs"
text-anchor="middle" opacity="0">J2</text>
</g>
<g class="stroked-text"><desc>J2</desc>
<path d="M109.4848 110.3103
L110.1991 110.3103
" />
<path d="M110.1991 110.3103
L110.3420 110.3580
" />
<path d="M110.3420 110.3580
L110.4372 110.4532
" />
<path d="M110.4372 110.4532
L110.4848 110.5960
" />
<path d="M110.4848 110.5960
L110.4848 110.6913
" />
<path d="M109.5801 109.8818
L109.5324 109.8341
" />
<path d="M109.5324 109.8341
L109.4848 109.7389
" />
<path d="M109.4848 109.7389
L109.4848 109.5008
" />
<path d="M109.4848 109.5008
L109.5324 109.4056
" />
<path d="M109.5324 109.4056
L109.5801 109.3580
" />
<path d="M109.5801 109.3580
L109.6753 109.3103
" />
<path d="M109.6753 109.3103
L109.7705 109.3103
" />
<path d="M109.7705 109.3103
L109.9134 109.3580
" />
<path d="M109.9134 109.3580
L110.4848 109.9294
" />
<path d="M110.4848 109.9294
L110.4848 109.3103
" />
</g></g>
<g style="fill:#000000; fill-opacity:0.0; 
stroke:#000000; stroke-width:0.1000; stroke-opacity:1; 
stroke-linecap:round; stroke-linejoin:round;">
<path d="M119.1310 59.3720
L108.9710 59.3720
" />
<path d="M119.1310 57.3720
L108.9710 57.3720
" />
<path d="M119.1310 53.3720
L119.1310 59.3720
" />
<path d="M119.1310 53.3720
L108.9710 53.3720
" />
<path d="M117.1310 51.3720
L119.1310 53.3720
" />
<path d="M115.6360 56.5100
L117.7290 54.4170
" />
<path d="M115.4530 56.3270
L117.5460 54.2340
" />
<path d="M110.5560 56.5100
L112.6480 54.4170
" />
<path d="M110.3730 56.3270
L112.4650 54.2340
" />
<path d="M108.9710 59.3720
L108.9710 51.3720
" />
<path d="M108.9710 51.3720
L117.1310 51.3720
" />
<circle cx="116.5910" cy="55.3720" r="1.5000" /> 
<circle cx="111.5110" cy="55.3720" r="1.5000" /> 
<path d="M117.1440 75.5650
L119.6840 75.5650
" />
<circle cx="117.1440" cy="75.5650" r="1.2500" /> 
<path d="M110.2860 75.5650
L112.8260 75.5650
" />
<circle cx="110.2860" cy="75.5650" r="1.2500" /> 
<path d="M116.1060 78.4940
L116.1060 81.9940
" />
<path d="M120.3360 80.2640 A2.4800 2.4800 0.0 0 0 116.1024 78.5104" />
<path d="M116.1024 82.0176 A2.4800 2.4800 0.0 0 0 120.3360 80.2640" />
<path d="M109.1420 78.4940
L109.1420 81.9940
" />
<path d="M113.3720 80.2640 A2.4800 2.4800 0.0 0 0 109.1384 78.5104" />
<path d="M109.1384 82.0176 A2.4800 2.4800 0.0 0 0 113.3720 80.2640" />
</g>
<g style="fill:#000000; fill-opacity:0.0; 
stroke:#000000; stroke-width:0.0254; stroke-opacity:1; 
stroke-linecap:round; stroke-linejoin:round;">
<path d="M108.6866 83.4771
L108.6866 103.4669
" />
<path d="M108.6866 103.4669
L121.1834 103.4669
" />
<path d="M121.1834 83.4771
L108.6866 83.4771
" />
<path d="M121.1834 103.4669
L121.1834 83.4771
" />
<path d="M114.6302 83.4771 A0.3048 0.3048 0.0 0 0 115.2398 83.4771" />
</g>
<g style="fill:#000000; fill-opacity:1.0000; 
stroke:#000000; stroke-width:0.0000; stroke-opacity:1; 
stroke-linecap:round; stroke-linejoin:round;">
<circle cx="110.6805" cy="84.5947" r="0.0127" /> 
</g>
<g style="fill:#000000; fill-opacity:1.0000; 
stroke:#000000; stroke-width:0.1000; stroke-opacity:1; 
stroke-linecap:round; stroke-linejoin:round;">
</g>
<g style="fill:#000000; fill-opacity:0.0; 
stroke:#000000; stroke-width:0.1000; stroke-opacity:1; 
stroke-linecap:round; stroke-linejoin:round;">
<path d="M134.4300 114.8130
L134.4300 104.6530
" />
<path d="M136.4300 114.8130
L136.4300 104.6530
" />
<path d="M140.4300 114.8130
L134.4300 114.8130
" />
<path d="M140.4300 114.8130
L140.4300 104.6530
" />
<path d="M142.4300 112.8130
L140.4300 114.8130
" />
<path d="M137.2920 111.3180
L139.3850 113.4110
" />
<path d="M137.4750 111.1350
L139.5680 113.2280
" />
<path d="M137.2920 106.2380
L139.3850 108.3300
" />
<path d="M137.4750 106.0550
L139.5680 108.1470
" />
<path d="M134.4300 104.6530
L142.4300 104.6530
" />
<path d="M142.4300 104.6530
L142.4300 112.8130
" />
<circle cx="138.4300" cy="112.2730" r="1.5000" /> 
<circle cx="138.4300" cy="107.1930" r="1.5000" /> 
</g>
<g style="fill:#000000; fill-opacity:0.0; 
stroke:#000000; stroke-width:0.1200; stroke-opacity:1; 
stroke-linecap:round; stroke-linejoin:round;">
<path d="M122.0880 50.9540
L143.0880 50.9540
" />
<path d="M122.0880 52.2540
L123.3880 50.9540
" />
<path d="M122.0880 101.9540
L122.0880 50.9540
" />
<path d="M143.0880 50.9540
L143.0880 101.9540
" />
<path d="M143.0880 101.9540
L122.0880 101.9540
" />
</g>
<g style="fill:#000000; fill-opacity:0.0; 
stroke:#000000; stroke-width:0.1000; stroke-opacity:1; 
stroke-linecap:round; stroke-linejoin:round;">
<path d="M117.0300 104.8970
L117.0300 115.0570
" />
<path d="M115.0300 104.8970
L115.0300 115.0570
" />
<path d="M111.0300 104.8970
L117.0300 104.8970
" />
<path d="M111.0300 104.8970
L111.0300 115.0570
" />
<path d="M109.0300 106.8970
L111.0300 104.8970
" />
<path d="M114.1680 108.3920
L112.0750 106.2990
" />
<path d="M113.9850 108.5750
L111.8920 106.4820
" />
<path d="M114.1680 113.4720
L112.0750 111.3800
" />
<path d="M113.9850 113.6550
L111.8920 111.5630
" />
<path d="M117.0300 115.0570
L109.0300 115.0570
" />
<path d="M109.0300 115.0570
L109.0300 106.8970
" />
<circle cx="113.0300" cy="107.4370" r="1.5000" /> 
<circle cx="113.0300" cy="112.5170" r="1.5000" /> 
<g >
</g>
<g >
</g>
<g >
</g>
<g >
</g>
<g >
</g>
<g >
</g>
<g >
</g>
<g >
</g>
<g >
</g>
<g >
</g>
<g >
</g>
<g >
</g>
<g >
</g>
<g >
</g>
<g >
</g>
</g> 
</svg>
