<?xml version="1.0" standalone="no"?>
 <!DOCTYPE svg PUBLIC "-//W3C//DTD SVG 1.1//EN" 
 "http://www.w3.org/Graphics/SVG/1.1/DTD/svg11.dtd"> 
<svg
  xmlns:svg="http://www.w3.org/2000/svg"
  xmlns="http://www.w3.org/2000/svg"
  xmlns:xlink="http://www.w3.org/1999/xlink"
  version="1.1"
  width="297.0022mm" height="210.0072mm" viewBox="0.0000 0.0000 297.0022 210.0072">
<title>SVG Image created as template_project_kicad-B_Cu.svg date 2023/11/28 01:22:39 </title>
  <desc>Image generated by PCBNEW </desc>
<g style="fill:#000000; fill-opacity:1.0000;stroke:#000000; stroke-opacity:1.0000;
stroke-linecap:round; stroke-linejoin:round;"
 transform="translate(0 0) scale(1 1)">
</g>
<g style="fill:#000000; fill-opacity:0.0; 
stroke:#000000; stroke-width:0.0000; stroke-opacity:1; 
stroke-linecap:round; stroke-linejoin:round;">
<g >
</g>
<g style="fill:#000000; fill-opacity:1.0000; 
stroke:#000000; stroke-width:0.0000; stroke-opacity:1; 
stroke-linecap:round; stroke-linejoin:round;">
<circle cx="192.8622" cy="96.5200" r="3.0000" /> 
</g>
<g style="fill:#000000; fill-opacity:1.0000; 
stroke:#000000; stroke-width:0.0212; stroke-opacity:1; 
stroke-linecap:round; stroke-linejoin:round;">
</g>
<g >
</g>
<g style="fill:#000000; fill-opacity:1.0000; 
stroke:#000000; stroke-width:0.0212; stroke-opacity:1; 
stroke-linecap:round; stroke-linejoin:round;">
</g>
<g style="fill:#000000; fill-opacity:1.0000; 
stroke:#000000; stroke-width:0.0000; stroke-opacity:1; 
stroke-linecap:round; stroke-linejoin:round;">
<circle cx="149.6822" cy="96.5200" r="3.0000" /> 
</g>
<g style="fill:#000000; fill-opacity:1.0000; 
stroke:#000000; stroke-width:0.0212; stroke-opacity:1; 
stroke-linecap:round; stroke-linejoin:round;">
</g>
<g >
</g>
<g style="fill:#000000; fill-opacity:1.0000; 
stroke:#000000; stroke-width:0.0212; stroke-opacity:1; 
stroke-linecap:round; stroke-linejoin:round;">
</g>
<g style="fill:#000000; fill-opacity:1.0000; 
stroke:#000000; stroke-width:0.0000; stroke-opacity:1; 
stroke-linecap:round; stroke-linejoin:round;">
<circle cx="192.8622" cy="55.8800" r="3.0000" /> 
</g>
<g style="fill:#000000; fill-opacity:1.0000; 
stroke:#000000; stroke-width:0.0212; stroke-opacity:1; 
stroke-linecap:round; stroke-linejoin:round;">
</g>
<g >
</g>
<g style="fill:#000000; fill-opacity:1.0000; 
stroke:#000000; stroke-width:0.0212; stroke-opacity:1; 
stroke-linecap:round; stroke-linejoin:round;">
</g>
<g style="fill:#000000; fill-opacity:1.0000; 
stroke:#000000; stroke-width:0.0000; stroke-opacity:1; 
stroke-linecap:round; stroke-linejoin:round;">
<circle cx="149.6822" cy="55.8800" r="3.0000" /> 
</g>
<g style="fill:#000000; fill-opacity:1.0000; 
stroke:#000000; stroke-width:0.0212; stroke-opacity:1; 
stroke-linecap:round; stroke-linejoin:round;">
</g>
<g >
</g>
<g style="fill:#000000; fill-opacity:1.0000; 
stroke:#000000; stroke-width:0.0212; stroke-opacity:1; 
stroke-linecap:round; stroke-linejoin:round;">
</g>
<g style="fill:#000000; fill-opacity:1.0000; 
stroke:#000000; stroke-width:0.0000; stroke-opacity:1; 
stroke-linecap:round; stroke-linejoin:round;">
<circle cx="180.1622" cy="52.0700" r="0.7620" /> 
</g>
<g style="fill:#000000; fill-opacity:1.0000; 
stroke:#000000; stroke-width:0.0212; stroke-opacity:1; 
stroke-linecap:round; stroke-linejoin:round;">
</g>
<g style="fill:#000000; fill-opacity:1.0000; 
stroke:#000000; stroke-width:0.0000; stroke-opacity:1; 
stroke-linecap:round; stroke-linejoin:round;">
<circle cx="180.1622" cy="54.6100" r="0.7620" /> 
</g>
<g style="fill:#000000; fill-opacity:1.0000; 
stroke:#000000; stroke-width:0.0212; stroke-opacity:1; 
stroke-linecap:round; stroke-linejoin:round;">
</g>
<g style="fill:#000000; fill-opacity:1.0000; 
stroke:#000000; stroke-width:0.0000; stroke-opacity:1; 
stroke-linecap:round; stroke-linejoin:round;">
<circle cx="180.1622" cy="57.1500" r="0.7620" /> 
</g>
<g style="fill:#000000; fill-opacity:1.0000; 
stroke:#000000; stroke-width:0.0212; stroke-opacity:1; 
stroke-linecap:round; stroke-linejoin:round;">
</g>
<g style="fill:#000000; fill-opacity:1.0000; 
stroke:#000000; stroke-width:0.0000; stroke-opacity:1; 
stroke-linecap:round; stroke-linejoin:round;">
<circle cx="180.1622" cy="59.6900" r="0.7620" /> 
</g>
<g style="fill:#000000; fill-opacity:1.0000; 
stroke:#000000; stroke-width:0.0212; stroke-opacity:1; 
stroke-linecap:round; stroke-linejoin:round;">
</g>
<g style="fill:#000000; fill-opacity:1.0000; 
stroke:#000000; stroke-width:0.0000; stroke-opacity:1; 
stroke-linecap:round; stroke-linejoin:round;">
<circle cx="180.1622" cy="62.2300" r="0.7620" /> 
</g>
<g style="fill:#000000; fill-opacity:1.0000; 
stroke:#000000; stroke-width:0.0212; stroke-opacity:1; 
stroke-linecap:round; stroke-linejoin:round;">
</g>
<g style="fill:#000000; fill-opacity:1.0000; 
stroke:#000000; stroke-width:0.0000; stroke-opacity:1; 
stroke-linecap:round; stroke-linejoin:round;">
<circle cx="180.1622" cy="64.7700" r="0.7620" /> 
</g>
<g style="fill:#000000; fill-opacity:1.0000; 
stroke:#000000; stroke-width:0.0212; stroke-opacity:1; 
stroke-linecap:round; stroke-linejoin:round;">
</g>
<g style="fill:#000000; fill-opacity:1.0000; 
stroke:#000000; stroke-width:0.0000; stroke-opacity:1; 
stroke-linecap:round; stroke-linejoin:round;">
<circle cx="180.1622" cy="67.3100" r="0.7620" /> 
</g>
<g style="fill:#000000; fill-opacity:1.0000; 
stroke:#000000; stroke-width:0.0212; stroke-opacity:1; 
stroke-linecap:round; stroke-linejoin:round;">
</g>
<g style="fill:#000000; fill-opacity:1.0000; 
stroke:#000000; stroke-width:0.0000; stroke-opacity:1; 
stroke-linecap:round; stroke-linejoin:round;">
<circle cx="180.1622" cy="69.8500" r="0.7620" /> 
</g>
<g style="fill:#000000; fill-opacity:1.0000; 
stroke:#000000; stroke-width:0.0212; stroke-opacity:1; 
stroke-linecap:round; stroke-linejoin:round;">
</g>
<g style="fill:#000000; fill-opacity:1.0000; 
stroke:#000000; stroke-width:0.0000; stroke-opacity:1; 
stroke-linecap:round; stroke-linejoin:round;">
<circle cx="180.1622" cy="72.3900" r="0.7620" /> 
</g>
<g style="fill:#000000; fill-opacity:1.0000; 
stroke:#000000; stroke-width:0.0212; stroke-opacity:1; 
stroke-linecap:round; stroke-linejoin:round;">
</g>
<g style="fill:#000000; fill-opacity:1.0000; 
stroke:#000000; stroke-width:0.0000; stroke-opacity:1; 
stroke-linecap:round; stroke-linejoin:round;">
<circle cx="180.1622" cy="74.9300" r="0.7620" /> 
</g>
<g style="fill:#000000; fill-opacity:1.0000; 
stroke:#000000; stroke-width:0.0212; stroke-opacity:1; 
stroke-linecap:round; stroke-linejoin:round;">
</g>
<g style="fill:#000000; fill-opacity:1.0000; 
stroke:#000000; stroke-width:0.0000; stroke-opacity:1; 
stroke-linecap:round; stroke-linejoin:round;">
<circle cx="180.1622" cy="77.4700" r="0.7620" /> 
</g>
<g style="fill:#000000; fill-opacity:1.0000; 
stroke:#000000; stroke-width:0.0212; stroke-opacity:1; 
stroke-linecap:round; stroke-linejoin:round;">
</g>
<g style="fill:#000000; fill-opacity:1.0000; 
stroke:#000000; stroke-width:0.0000; stroke-opacity:1; 
stroke-linecap:round; stroke-linejoin:round;">
<circle cx="180.1622" cy="80.0100" r="0.7620" /> 
</g>
<g style="fill:#000000; fill-opacity:1.0000; 
stroke:#000000; stroke-width:0.0212; stroke-opacity:1; 
stroke-linecap:round; stroke-linejoin:round;">
</g>
<g style="fill:#000000; fill-opacity:1.0000; 
stroke:#000000; stroke-width:0.0000; stroke-opacity:1; 
stroke-linecap:round; stroke-linejoin:round;">
<circle cx="180.1622" cy="82.5500" r="0.7620" /> 
</g>
<g style="fill:#000000; fill-opacity:1.0000; 
stroke:#000000; stroke-width:0.0212; stroke-opacity:1; 
stroke-linecap:round; stroke-linejoin:round;">
</g>
<g style="fill:#000000; fill-opacity:1.0000; 
stroke:#000000; stroke-width:0.0000; stroke-opacity:1; 
stroke-linecap:round; stroke-linejoin:round;">
<circle cx="180.1622" cy="85.0900" r="0.7620" /> 
</g>
<g style="fill:#000000; fill-opacity:1.0000; 
stroke:#000000; stroke-width:0.0212; stroke-opacity:1; 
stroke-linecap:round; stroke-linejoin:round;">
</g>
<g style="fill:#000000; fill-opacity:1.0000; 
stroke:#000000; stroke-width:0.0000; stroke-opacity:1; 
stroke-linecap:round; stroke-linejoin:round;">
<circle cx="180.1622" cy="87.6300" r="0.7620" /> 
</g>
<g style="fill:#000000; fill-opacity:1.0000; 
stroke:#000000; stroke-width:0.0212; stroke-opacity:1; 
stroke-linecap:round; stroke-linejoin:round;">
</g>
<g style="fill:#000000; fill-opacity:1.0000; 
stroke:#000000; stroke-width:0.0000; stroke-opacity:1; 
stroke-linecap:round; stroke-linejoin:round;">
<circle cx="180.1622" cy="90.1700" r="0.7620" /> 
</g>
<g style="fill:#000000; fill-opacity:1.0000; 
stroke:#000000; stroke-width:0.0212; stroke-opacity:1; 
stroke-linecap:round; stroke-linejoin:round;">
</g>
<g style="fill:#000000; fill-opacity:1.0000; 
stroke:#000000; stroke-width:0.0000; stroke-opacity:1; 
stroke-linecap:round; stroke-linejoin:round;">
<circle cx="180.1622" cy="92.7100" r="0.7620" /> 
</g>
<g style="fill:#000000; fill-opacity:1.0000; 
stroke:#000000; stroke-width:0.0212; stroke-opacity:1; 
stroke-linecap:round; stroke-linejoin:round;">
</g>
<g style="fill:#000000; fill-opacity:1.0000; 
stroke:#000000; stroke-width:0.0000; stroke-opacity:1; 
stroke-linecap:round; stroke-linejoin:round;">
<circle cx="180.1622" cy="95.2500" r="0.7620" /> 
</g>
<g style="fill:#000000; fill-opacity:1.0000; 
stroke:#000000; stroke-width:0.0212; stroke-opacity:1; 
stroke-linecap:round; stroke-linejoin:round;">
</g>
<g style="fill:#000000; fill-opacity:1.0000; 
stroke:#000000; stroke-width:0.0000; stroke-opacity:1; 
stroke-linecap:round; stroke-linejoin:round;">
<circle cx="180.1622" cy="97.7900" r="0.7620" /> 
</g>
<g style="fill:#000000; fill-opacity:1.0000; 
stroke:#000000; stroke-width:0.0212; stroke-opacity:1; 
stroke-linecap:round; stroke-linejoin:round;">
</g>
<g style="fill:#000000; fill-opacity:1.0000; 
stroke:#000000; stroke-width:0.0000; stroke-opacity:1; 
stroke-linecap:round; stroke-linejoin:round;">
<circle cx="180.1622" cy="100.3300" r="0.7620" /> 
</g>
<g style="fill:#000000; fill-opacity:1.0000; 
stroke:#000000; stroke-width:0.0212; stroke-opacity:1; 
stroke-linecap:round; stroke-linejoin:round;">
</g>
<g style="fill:#000000; fill-opacity:1.0000; 
stroke:#000000; stroke-width:0.0000; stroke-opacity:1; 
stroke-linecap:round; stroke-linejoin:round;">
<circle cx="162.3822" cy="52.0700" r="0.7620" /> 
</g>
<g style="fill:#000000; fill-opacity:1.0000; 
stroke:#000000; stroke-width:0.0212; stroke-opacity:1; 
stroke-linecap:round; stroke-linejoin:round;">
</g>
<g style="fill:#000000; fill-opacity:1.0000; 
stroke:#000000; stroke-width:0.0000; stroke-opacity:1; 
stroke-linecap:round; stroke-linejoin:round;">
<circle cx="162.3822" cy="54.6100" r="0.7620" /> 
</g>
<g style="fill:#000000; fill-opacity:1.0000; 
stroke:#000000; stroke-width:0.0212; stroke-opacity:1; 
stroke-linecap:round; stroke-linejoin:round;">
</g>
<g style="fill:#000000; fill-opacity:1.0000; 
stroke:#000000; stroke-width:0.0000; stroke-opacity:1; 
stroke-linecap:round; stroke-linejoin:round;">
<circle cx="162.3822" cy="57.1500" r="0.7620" /> 
</g>
<g style="fill:#000000; fill-opacity:1.0000; 
stroke:#000000; stroke-width:0.0212; stroke-opacity:1; 
stroke-linecap:round; stroke-linejoin:round;">
</g>
<g style="fill:#000000; fill-opacity:1.0000; 
stroke:#000000; stroke-width:0.0000; stroke-opacity:1; 
stroke-linecap:round; stroke-linejoin:round;">
<circle cx="162.3822" cy="59.6900" r="0.7620" /> 
</g>
<g style="fill:#000000; fill-opacity:1.0000; 
stroke:#000000; stroke-width:0.0212; stroke-opacity:1; 
stroke-linecap:round; stroke-linejoin:round;">
</g>
<g style="fill:#000000; fill-opacity:1.0000; 
stroke:#000000; stroke-width:0.0000; stroke-opacity:1; 
stroke-linecap:round; stroke-linejoin:round;">
<circle cx="162.3822" cy="62.2300" r="0.7620" /> 
</g>
<g style="fill:#000000; fill-opacity:1.0000; 
stroke:#000000; stroke-width:0.0212; stroke-opacity:1; 
stroke-linecap:round; stroke-linejoin:round;">
</g>
<g style="fill:#000000; fill-opacity:1.0000; 
stroke:#000000; stroke-width:0.0000; stroke-opacity:1; 
stroke-linecap:round; stroke-linejoin:round;">
<circle cx="162.3822" cy="64.7700" r="0.7620" /> 
</g>
<g style="fill:#000000; fill-opacity:1.0000; 
stroke:#000000; stroke-width:0.0212; stroke-opacity:1; 
stroke-linecap:round; stroke-linejoin:round;">
</g>
<g style="fill:#000000; fill-opacity:1.0000; 
stroke:#000000; stroke-width:0.0000; stroke-opacity:1; 
stroke-linecap:round; stroke-linejoin:round;">
<circle cx="162.3822" cy="67.3100" r="0.7620" /> 
</g>
<g style="fill:#000000; fill-opacity:1.0000; 
stroke:#000000; stroke-width:0.0212; stroke-opacity:1; 
stroke-linecap:round; stroke-linejoin:round;">
</g>
<g style="fill:#000000; fill-opacity:1.0000; 
stroke:#000000; stroke-width:0.0000; stroke-opacity:1; 
stroke-linecap:round; stroke-linejoin:round;">
<circle cx="162.3822" cy="69.8500" r="0.7620" /> 
</g>
<g style="fill:#000000; fill-opacity:1.0000; 
stroke:#000000; stroke-width:0.0212; stroke-opacity:1; 
stroke-linecap:round; stroke-linejoin:round;">
</g>
<g style="fill:#000000; fill-opacity:1.0000; 
stroke:#000000; stroke-width:0.0000; stroke-opacity:1; 
stroke-linecap:round; stroke-linejoin:round;">
<circle cx="162.3822" cy="72.3900" r="0.7620" /> 
</g>
<g style="fill:#000000; fill-opacity:1.0000; 
stroke:#000000; stroke-width:0.0212; stroke-opacity:1; 
stroke-linecap:round; stroke-linejoin:round;">
</g>
<g style="fill:#000000; fill-opacity:1.0000; 
stroke:#000000; stroke-width:0.0000; stroke-opacity:1; 
stroke-linecap:round; stroke-linejoin:round;">
<circle cx="162.3822" cy="74.9300" r="0.7620" /> 
</g>
<g style="fill:#000000; fill-opacity:1.0000; 
stroke:#000000; stroke-width:0.0212; stroke-opacity:1; 
stroke-linecap:round; stroke-linejoin:round;">
</g>
<g style="fill:#000000; fill-opacity:1.0000; 
stroke:#000000; stroke-width:0.0000; stroke-opacity:1; 
stroke-linecap:round; stroke-linejoin:round;">
<circle cx="162.3822" cy="77.4700" r="0.7620" /> 
</g>
<g style="fill:#000000; fill-opacity:1.0000; 
stroke:#000000; stroke-width:0.0212; stroke-opacity:1; 
stroke-linecap:round; stroke-linejoin:round;">
</g>
<g style="fill:#000000; fill-opacity:1.0000; 
stroke:#000000; stroke-width:0.0000; stroke-opacity:1; 
stroke-linecap:round; stroke-linejoin:round;">
<circle cx="162.3822" cy="80.0100" r="0.7620" /> 
</g>
<g style="fill:#000000; fill-opacity:1.0000; 
stroke:#000000; stroke-width:0.0212; stroke-opacity:1; 
stroke-linecap:round; stroke-linejoin:round;">
</g>
<g style="fill:#000000; fill-opacity:1.0000; 
stroke:#000000; stroke-width:0.0000; stroke-opacity:1; 
stroke-linecap:round; stroke-linejoin:round;">
<circle cx="162.3822" cy="82.5500" r="0.7620" /> 
</g>
<g style="fill:#000000; fill-opacity:1.0000; 
stroke:#000000; stroke-width:0.0212; stroke-opacity:1; 
stroke-linecap:round; stroke-linejoin:round;">
</g>
<g style="fill:#000000; fill-opacity:1.0000; 
stroke:#000000; stroke-width:0.0000; stroke-opacity:1; 
stroke-linecap:round; stroke-linejoin:round;">
<circle cx="162.3822" cy="85.0900" r="0.7620" /> 
</g>
<g style="fill:#000000; fill-opacity:1.0000; 
stroke:#000000; stroke-width:0.0212; stroke-opacity:1; 
stroke-linecap:round; stroke-linejoin:round;">
</g>
<g style="fill:#000000; fill-opacity:1.0000; 
stroke:#000000; stroke-width:0.0000; stroke-opacity:1; 
stroke-linecap:round; stroke-linejoin:round;">
<circle cx="162.3822" cy="87.6300" r="0.7620" /> 
</g>
<g style="fill:#000000; fill-opacity:1.0000; 
stroke:#000000; stroke-width:0.0212; stroke-opacity:1; 
stroke-linecap:round; stroke-linejoin:round;">
</g>
<g style="fill:#000000; fill-opacity:1.0000; 
stroke:#000000; stroke-width:0.0000; stroke-opacity:1; 
stroke-linecap:round; stroke-linejoin:round;">
<circle cx="162.3822" cy="90.1700" r="0.7620" /> 
</g>
<g style="fill:#000000; fill-opacity:1.0000; 
stroke:#000000; stroke-width:0.0212; stroke-opacity:1; 
stroke-linecap:round; stroke-linejoin:round;">
</g>
<g style="fill:#000000; fill-opacity:1.0000; 
stroke:#000000; stroke-width:0.0000; stroke-opacity:1; 
stroke-linecap:round; stroke-linejoin:round;">
<circle cx="162.3822" cy="92.7100" r="0.7620" /> 
</g>
<g style="fill:#000000; fill-opacity:1.0000; 
stroke:#000000; stroke-width:0.0212; stroke-opacity:1; 
stroke-linecap:round; stroke-linejoin:round;">
</g>
<g style="fill:#000000; fill-opacity:1.0000; 
stroke:#000000; stroke-width:0.0000; stroke-opacity:1; 
stroke-linecap:round; stroke-linejoin:round;">
<circle cx="162.3822" cy="95.2500" r="0.7620" /> 
</g>
<g style="fill:#000000; fill-opacity:1.0000; 
stroke:#000000; stroke-width:0.0212; stroke-opacity:1; 
stroke-linecap:round; stroke-linejoin:round;">
</g>
<g style="fill:#000000; fill-opacity:1.0000; 
stroke:#000000; stroke-width:0.0000; stroke-opacity:1; 
stroke-linecap:round; stroke-linejoin:round;">
<circle cx="162.3822" cy="97.7900" r="0.7620" /> 
</g>
<g style="fill:#000000; fill-opacity:1.0000; 
stroke:#000000; stroke-width:0.0212; stroke-opacity:1; 
stroke-linecap:round; stroke-linejoin:round;">
</g>
<g style="fill:#000000; fill-opacity:1.0000; 
stroke:#000000; stroke-width:0.0000; stroke-opacity:1; 
stroke-linecap:round; stroke-linejoin:round;">
<circle cx="162.3822" cy="100.3300" r="0.7620" /> 
</g>
<g style="fill:#000000; fill-opacity:1.0000; 
stroke:#000000; stroke-width:0.0212; stroke-opacity:1; 
stroke-linecap:round; stroke-linejoin:round;">
</g>
<g >
</g>
<g >
</g>
<g >
</g>
<g style="fill:#000000; fill-opacity:1.0000; 
stroke:#000000; stroke-width:0.0212; stroke-opacity:1; 
stroke-linecap:round; stroke-linejoin:round;">
<g >
</g>
<g style="fill:#000000; fill-opacity:1.0000; 
stroke:#000000; stroke-width:0.0000; stroke-opacity:1; 
stroke-linecap:round; stroke-linejoin:round;">
<path style="fill:#000000; fill-opacity:1.0000; 
stroke:#000000; stroke-width:0.0000; stroke-opacity:1; 
stroke-linecap:round; stroke-linejoin:round;fill-rule:evenodd;"
d="M 144.6435,50.8194
144.6075,50.8689
144.6027,50.8995
144.6027,101.5005
144.6216,101.5587
144.6711,101.5947
144.7017,101.5995
197.8427,101.5995
197.9009,101.5806
197.9369,101.5311
197.9417,101.5005
197.9417,100.3300
181.1294,100.3300
181.1108,100.5187
181.1108,100.5187
181.0557,100.7001
181.0557,100.7001
180.9874,100.8280
180.9664,100.8673
180.8461,101.0139
180.6995,101.1342
180.5323,101.2235
180.4059,101.2619
180.3509,101.2786
180.3509,101.2786
180.1622,101.2972
180.1622,101.2972
180.1622,101.2972
179.9735,101.2786
179.9735,101.2786
179.7921,101.2235
179.6249,101.1342
179.4783,101.0139
179.3580,100.8673
179.2687,100.7001
179.2136,100.5187
179.2136,100.5187
179.1950,100.3300
163.3494,100.3300
163.3308,100.5187
163.3308,100.5187
163.2757,100.7001
163.2757,100.7001
163.2074,100.8280
163.1864,100.8673
163.0661,101.0139
162.9195,101.1342
162.7523,101.2235
162.6259,101.2619
162.5709,101.2786
162.5709,101.2786
162.3822,101.2972
162.3822,101.2972
162.3822,101.2972
162.1935,101.2786
162.1935,101.2786
162.0121,101.2235
161.8449,101.1342
161.6983,101.0139
161.5780,100.8673
161.4887,100.7001
161.4336,100.5187
161.4336,100.5187
161.4150,100.3300
161.4150,100.3300
161.4336,100.1413
161.4336,100.1413
161.4503,100.0863
161.4887,99.9599
161.5780,99.7927
161.6983,99.6461
161.8449,99.5258
161.8842,99.5048
162.0121,99.4365
162.0121,99.4365
162.1935,99.3814
162.1935,99.3814
162.3822,99.3628
162.3822,99.3628
162.5709,99.3814
162.5709,99.3814
162.7523,99.4365
162.7523,99.4365
162.9195,99.5258
162.9195,99.5258
163.0661,99.6461
163.0661,99.6461
163.1864,99.7927
163.1864,99.7927
163.2757,99.9599
163.2757,99.9599
163.3308,100.1413
163.3308,100.1413
163.3494,100.3300
163.3494,100.3300
179.1950,100.3300
179.1950,100.3300
179.2136,100.1413
179.2136,100.1413
179.2303,100.0863
179.2687,99.9599
179.3580,99.7927
179.4783,99.6461
179.6249,99.5258
179.6642,99.5048
179.7921,99.4365
179.7921,99.4365
179.9735,99.3814
179.9735,99.3814
180.1622,99.3628
180.1622,99.3628
180.3509,99.3814
180.3509,99.3814
180.5323,99.4365
180.5323,99.4365
180.6995,99.5258
180.6995,99.5258
180.8461,99.6461
180.8461,99.6461
180.9664,99.7927
180.9664,99.7927
181.0557,99.9599
181.0557,99.9599
181.1108,100.1413
181.1108,100.1413
181.1294,100.3300
181.1294,100.3300
197.9417,100.3300
197.9417,96.5200
196.0677,96.5200
196.0476,96.8789
196.0476,96.8789
195.9874,97.2333
195.9874,97.2333
195.8879,97.5787
195.7503,97.9108
195.5764,98.2254
195.4001,98.4739
195.3684,98.5186
195.1289,98.7867
194.8608,99.0262
194.5677,99.2342
194.5676,99.2342
194.2530,99.4081
194.2530,99.4081
193.9209,99.5457
193.5755,99.6452
193.5755,99.6452
193.5755,99.6452
193.2211,99.7054
193.2211,99.7054
193.2211,99.7054
192.8622,99.7255
192.8622,99.7255
192.8622,99.7255
192.5033,99.7054
192.5033,99.7054
192.5033,99.7054
192.1489,99.6452
191.8035,99.5457
191.4714,99.4081
191.1567,99.2342
190.8636,99.0262
190.5955,98.7867
190.3560,98.5186
190.1480,98.2255
189.9741,97.9108
189.9241,97.7900
181.1294,97.7900
181.1108,97.9787
181.1108,97.9787
181.0557,98.1601
181.0557,98.1601
181.0208,98.2255
180.9664,98.3273
180.8461,98.4739
180.6995,98.5942
180.5323,98.6835
180.4059,98.7219
180.3509,98.7386
180.3509,98.7386
180.1622,98.7572
180.1622,98.7572
180.1622,98.7572
179.9735,98.7386
179.9735,98.7386
179.7921,98.6835
179.6249,98.5942
179.4783,98.4739
179.3580,98.3273
179.2687,98.1601
179.2136,97.9787
179.2136,97.9787
179.1950,97.7900
163.3494,97.7900
163.3308,97.9787
163.3308,97.9787
163.2757,98.1601
163.2757,98.1601
163.2408,98.2255
163.1864,98.3273
163.0661,98.4739
162.9195,98.5942
162.7523,98.6835
162.6259,98.7219
162.5709,98.7386
162.5709,98.7386
162.3822,98.7572
162.3822,98.7572
162.3822,98.7572
162.1935,98.7386
162.1935,98.7386
162.0121,98.6835
161.8449,98.5942
161.6983,98.4739
161.5780,98.3273
161.4887,98.1601
161.4336,97.9787
161.4336,97.9787
161.4150,97.7900
161.4150,97.7900
161.4336,97.6013
161.4336,97.6013
161.4503,97.5463
161.4887,97.4199
161.5780,97.2527
161.6983,97.1061
161.8449,96.9858
161.8842,96.9648
162.0121,96.8965
162.0121,96.8965
162.1935,96.8414
162.1935,96.8414
162.3822,96.8228
162.3822,96.8228
162.5709,96.8414
162.5709,96.8414
162.7523,96.8965
162.7523,96.8965
162.9195,96.9858
162.9195,96.9858
163.0661,97.1061
163.0661,97.1061
163.1864,97.2527
163.1864,97.2527
163.2757,97.4199
163.2757,97.4199
163.3308,97.6013
163.3308,97.6013
163.3494,97.7900
163.3494,97.7900
179.1950,97.7900
179.1950,97.7900
179.2136,97.6013
179.2136,97.6013
179.2303,97.5463
179.2687,97.4199
179.3580,97.2527
179.4783,97.1061
179.6249,96.9858
179.6642,96.9648
179.7921,96.8965
179.7921,96.8965
179.9735,96.8414
179.9735,96.8414
180.1622,96.8228
180.1622,96.8228
180.3509,96.8414
180.3509,96.8414
180.5323,96.8965
180.5323,96.8965
180.6995,96.9858
180.6995,96.9858
180.8461,97.1061
180.8461,97.1061
180.9664,97.2527
180.9664,97.2527
181.0557,97.4199
181.0557,97.4199
181.1108,97.6013
181.1108,97.6013
181.1294,97.7900
181.1294,97.7900
189.9241,97.7900
189.8365,97.5787
189.7370,97.2333
189.6768,96.8789
189.6567,96.5200
152.8877,96.5200
152.8676,96.8789
152.8676,96.8789
152.8074,97.2333
152.8074,97.2333
152.7079,97.5787
152.5703,97.9108
152.3964,98.2254
152.2201,98.4739
152.1884,98.5186
151.9489,98.7867
151.6808,99.0262
151.3877,99.2342
151.3876,99.2342
151.0730,99.4081
151.0730,99.4081
150.7409,99.5457
150.3955,99.6452
150.3955,99.6452
150.3955,99.6452
150.0411,99.7054
150.0411,99.7054
150.0411,99.7054
149.6822,99.7255
149.6822,99.7255
149.6822,99.7255
149.3233,99.7054
149.3233,99.7054
149.3233,99.7054
148.9689,99.6452
148.6235,99.5457
148.2914,99.4081
147.9767,99.2342
147.6836,99.0262
147.4155,98.7867
147.1760,98.5186
146.9680,98.2255
146.7941,97.9108
146.6565,97.5787
146.5570,97.2333
146.4968,96.8789
146.4767,96.5200
146.4968,96.1611
146.5570,95.8067
146.6565,95.4613
146.7941,95.1292
146.7941,95.1292
146.9680,94.8145
147.0403,94.7127
147.1760,94.5214
147.4155,94.2533
147.6836,94.0138
147.6836,94.0138
147.6836,94.0138
147.9768,93.8058
148.2914,93.6319
148.2914,93.6319
148.6235,93.4943
148.9689,93.3948
148.9689,93.3948
149.3233,93.3346
149.3233,93.3346
149.6822,93.3145
149.6822,93.3145
150.0411,93.3346
150.0411,93.3346
150.3955,93.3948
150.3955,93.3948
150.7409,93.4943
151.0730,93.6319
151.3876,93.8058
151.6808,94.0138
151.9489,94.2533
151.9489,94.2533
152.1884,94.5214
152.3964,94.8145
152.5703,95.1292
152.7079,95.4613
152.8074,95.8067
152.8074,95.8067
152.8676,96.1611
152.8676,96.1611
152.8877,96.5200
152.8877,96.5200
189.6567,96.5200
189.6567,96.5200
189.6768,96.1611
189.7370,95.8067
189.8365,95.4613
189.9241,95.2500
181.1294,95.2500
181.1108,95.4387
181.1108,95.4387
181.0557,95.6201
181.0557,95.6201
180.9874,95.7480
180.9664,95.7873
180.9664,95.7873
180.9664,95.7873
180.9505,95.8067
180.8461,95.9339
180.6995,96.0542
180.5323,96.1435
180.4059,96.1819
180.3509,96.1986
180.3509,96.1986
180.1622,96.2172
180.1622,96.2172
180.1622,96.2172
179.9735,96.1986
179.9735,96.1986
179.7921,96.1435
179.6249,96.0542
179.4783,95.9339
179.3580,95.7873
179.2687,95.6201
179.2136,95.4387
179.2136,95.4387
179.1950,95.2500
163.3494,95.2500
163.3308,95.4387
163.3308,95.4387
163.2757,95.6201
163.2757,95.6201
163.2074,95.7480
163.1864,95.7873
163.1864,95.7873
163.1864,95.7873
163.1705,95.8067
163.0661,95.9339
162.9195,96.0542
162.7523,96.1435
162.6259,96.1819
162.5709,96.1986
162.5709,96.1986
162.3822,96.2172
162.3822,96.2172
162.3822,96.2172
162.1935,96.1986
162.1935,96.1986
162.0121,96.1435
161.8449,96.0542
161.6983,95.9339
161.5780,95.7873
161.4887,95.6201
161.4336,95.4387
161.4336,95.4387
161.4150,95.2500
161.4150,95.2500
161.4336,95.0613
161.4336,95.0613
161.4503,95.0063
161.4887,94.8799
161.5780,94.7127
161.6983,94.5661
161.8449,94.4458
161.8842,94.4248
162.0121,94.3565
162.0121,94.3565
162.1935,94.3014
162.1935,94.3014
162.3822,94.2828
162.3822,94.2828
162.5709,94.3014
162.5709,94.3014
162.7523,94.3565
162.7523,94.3565
162.9195,94.4458
162.9195,94.4458
163.0661,94.5661
163.0661,94.5661
163.1864,94.7127
163.1864,94.7127
163.2757,94.8799
163.2757,94.8799
163.3308,95.0613
163.3308,95.0613
163.3494,95.2500
163.3494,95.2500
179.1950,95.2500
179.1950,95.2500
179.2136,95.0613
179.2136,95.0613
179.2303,95.0063
179.2687,94.8799
179.3580,94.7127
179.4783,94.5661
179.6249,94.4458
179.6642,94.4248
179.7921,94.3565
179.7921,94.3565
179.9735,94.3014
179.9735,94.3014
180.1622,94.2828
180.1622,94.2828
180.3509,94.3014
180.3509,94.3014
180.5323,94.3565
180.5323,94.3565
180.6995,94.4458
180.6995,94.4458
180.8461,94.5661
180.8461,94.5661
180.9664,94.7127
180.9664,94.7127
181.0557,94.8799
181.0557,94.8799
181.1108,95.0613
181.1108,95.0613
181.1294,95.2500
181.1294,95.2500
189.9241,95.2500
189.9741,95.1292
189.9741,95.1292
190.1480,94.8145
190.2203,94.7127
190.3560,94.5214
190.5955,94.2533
190.8636,94.0138
190.8636,94.0138
190.8636,94.0138
191.1568,93.8058
191.4714,93.6319
191.4714,93.6319
191.8035,93.4943
192.1489,93.3948
192.1489,93.3948
192.5033,93.3346
192.5033,93.3346
192.8622,93.3145
192.8622,93.3145
193.2211,93.3346
193.2211,93.3346
193.5755,93.3948
193.5755,93.3948
193.9209,93.4943
194.2530,93.6319
194.5676,93.8058
194.8608,94.0138
195.1289,94.2533
195.1289,94.2533
195.3684,94.5214
195.5764,94.8145
195.7503,95.1292
195.8879,95.4613
195.9874,95.8067
195.9874,95.8067
196.0476,96.1611
196.0476,96.1611
196.0677,96.5200
196.0677,96.5200
197.9417,96.5200
197.9417,92.7100
181.1294,92.7100
181.1108,92.8987
181.1108,92.8987
181.0557,93.0801
181.0557,93.0801
180.9874,93.2080
180.9664,93.2473
180.8461,93.3939
180.6995,93.5142
180.5323,93.6035
180.4388,93.6319
180.3509,93.6586
180.3509,93.6586
180.1622,93.6772
180.1622,93.6772
180.1622,93.6772
179.9735,93.6586
179.9735,93.6586
179.7921,93.6035
179.6249,93.5142
179.4783,93.3939
179.3580,93.2473
179.2687,93.0801
179.2136,92.8987
179.2136,92.8987
179.1950,92.7100
163.3494,92.7100
163.3308,92.8987
163.3308,92.8987
163.2757,93.0801
163.2757,93.0801
163.2074,93.2080
163.1864,93.2473
163.0661,93.3939
162.9195,93.5142
162.7523,93.6035
162.6588,93.6319
162.5709,93.6586
162.5709,93.6586
162.3822,93.6772
162.3822,93.6772
162.3822,93.6772
162.1935,93.6586
162.1935,93.6586
162.0121,93.6035
161.8449,93.5142
161.6983,93.3939
161.5780,93.2473
161.4887,93.0801
161.4336,92.8987
161.4336,92.8987
161.4150,92.7100
161.4150,92.7100
161.4336,92.5213
161.4336,92.5213
161.4503,92.4663
161.4887,92.3399
161.5780,92.1727
161.6983,92.0261
161.8449,91.9058
161.8842,91.8848
162.0121,91.8165
162.0121,91.8165
162.1935,91.7614
162.1935,91.7614
162.3822,91.7428
162.3822,91.7428
162.5709,91.7614
162.5709,91.7614
162.7523,91.8165
162.7523,91.8165
162.9195,91.9058
162.9195,91.9058
163.0661,92.0261
163.0661,92.0261
163.1864,92.1727
163.1864,92.1727
163.2757,92.3399
163.2757,92.3399
163.3308,92.5213
163.3308,92.5213
163.3494,92.7100
163.3494,92.7100
179.1950,92.7100
179.1950,92.7100
179.2136,92.5213
179.2136,92.5213
179.2303,92.4663
179.2687,92.3399
179.3580,92.1727
179.4783,92.0261
179.6249,91.9058
179.6642,91.8848
179.7921,91.8165
179.7921,91.8165
179.9735,91.7614
179.9735,91.7614
180.1622,91.7428
180.1622,91.7428
180.3509,91.7614
180.3509,91.7614
180.5323,91.8165
180.5323,91.8165
180.6995,91.9058
180.6995,91.9058
180.8461,92.0261
180.8461,92.0261
180.9664,92.1727
180.9664,92.1727
181.0557,92.3399
181.0557,92.3399
181.1108,92.5213
181.1108,92.5213
181.1294,92.7100
181.1294,92.7100
197.9417,92.7100
197.9417,90.1700
181.1294,90.1700
181.1108,90.3587
181.1108,90.3587
181.0557,90.5401
181.0557,90.5401
180.9874,90.6680
180.9664,90.7073
180.8461,90.8539
180.6995,90.9742
180.5323,91.0635
180.4059,91.1019
180.3509,91.1186
180.3509,91.1186
180.1622,91.1372
180.1622,91.1372
180.1622,91.1372
179.9735,91.1186
179.9735,91.1186
179.7921,91.0635
179.6249,90.9742
179.4783,90.8539
179.3580,90.7073
179.2687,90.5401
179.2136,90.3587
179.2136,90.3587
179.1950,90.1700
163.3494,90.1700
163.3308,90.3587
163.3308,90.3587
163.2757,90.5401
163.2757,90.5401
163.2074,90.6680
163.1864,90.7073
163.0661,90.8539
162.9195,90.9742
162.7523,91.0635
162.6259,91.1019
162.5709,91.1186
162.5709,91.1186
162.3822,91.1372
162.3822,91.1372
162.3822,91.1372
162.1935,91.1186
162.1935,91.1186
162.0121,91.0635
161.8449,90.9742
161.6983,90.8539
161.5780,90.7073
161.4887,90.5401
161.4336,90.3587
161.4336,90.3587
161.4150,90.1700
161.4150,90.1700
161.4336,89.9813
161.4336,89.9813
161.4503,89.9263
161.4887,89.7999
161.5780,89.6327
161.6983,89.4861
161.8449,89.3658
161.8842,89.3448
162.0121,89.2765
162.0121,89.2765
162.1935,89.2214
162.1935,89.2214
162.3822,89.2028
162.3822,89.2028
162.5709,89.2214
162.5709,89.2214
162.7523,89.2765
162.7523,89.2765
162.9195,89.3658
162.9195,89.3658
163.0661,89.4861
163.0661,89.4861
163.1864,89.6327
163.1864,89.6327
163.2757,89.7999
163.2757,89.7999
163.3308,89.9813
163.3308,89.9813
163.3494,90.1700
163.3494,90.1700
179.1950,90.1700
179.1950,90.1700
179.2136,89.9813
179.2136,89.9813
179.2303,89.9263
179.2687,89.7999
179.3580,89.6327
179.4783,89.4861
179.6249,89.3658
179.6642,89.3448
179.7921,89.2765
179.7921,89.2765
179.9735,89.2214
179.9735,89.2214
180.1622,89.2028
180.1622,89.2028
180.3509,89.2214
180.3509,89.2214
180.5323,89.2765
180.5323,89.2765
180.6995,89.3658
180.6995,89.3658
180.8461,89.4861
180.8461,89.4861
180.9664,89.6327
180.9664,89.6327
181.0557,89.7999
181.0557,89.7999
181.1108,89.9813
181.1108,89.9813
181.1294,90.1700
181.1294,90.1700
197.9417,90.1700
197.9417,87.6300
181.1294,87.6300
181.1108,87.8187
181.1108,87.8187
181.0557,88.0001
181.0557,88.0001
180.9874,88.1280
180.9664,88.1673
180.8461,88.3139
180.6995,88.4342
180.5323,88.5235
180.4059,88.5619
180.3509,88.5786
180.3509,88.5786
180.1622,88.5972
180.1622,88.5972
180.1622,88.5972
179.9735,88.5786
179.9735,88.5786
179.7921,88.5235
179.6249,88.4342
179.4783,88.3139
179.3580,88.1673
179.2687,88.0001
179.2136,87.8187
179.2136,87.8187
179.1950,87.6300
163.3494,87.6300
163.3308,87.8187
163.3308,87.8187
163.2757,88.0001
163.2757,88.0001
163.2074,88.1280
163.1864,88.1673
163.0661,88.3139
162.9195,88.4342
162.7523,88.5235
162.6259,88.5619
162.5709,88.5786
162.5709,88.5786
162.3822,88.5972
162.3822,88.5972
162.3822,88.5972
162.1935,88.5786
162.1935,88.5786
162.0121,88.5235
161.8449,88.4342
161.6983,88.3139
161.5780,88.1673
161.4887,88.0001
161.4336,87.8187
161.4336,87.8187
161.4150,87.6300
161.4150,87.6300
161.4336,87.4413
161.4336,87.4413
161.4503,87.3863
161.4887,87.2599
161.5780,87.0927
161.6983,86.9461
161.8449,86.8258
161.8842,86.8048
162.0121,86.7365
162.0121,86.7365
162.1935,86.6814
162.1935,86.6814
162.3822,86.6628
162.3822,86.6628
162.5709,86.6814
162.5709,86.6814
162.7523,86.7365
162.7523,86.7365
162.9195,86.8258
162.9195,86.8258
163.0661,86.9461
163.0661,86.9461
163.1864,87.0927
163.1864,87.0927
163.2757,87.2599
163.2757,87.2599
163.3308,87.4413
163.3308,87.4413
163.3494,87.6300
163.3494,87.6300
179.1950,87.6300
179.1950,87.6300
179.2136,87.4413
179.2136,87.4413
179.2303,87.3863
179.2687,87.2599
179.3580,87.0927
179.4783,86.9461
179.6249,86.8258
179.6642,86.8048
179.7921,86.7365
179.7921,86.7365
179.9735,86.6814
179.9735,86.6814
180.1622,86.6628
180.1622,86.6628
180.3509,86.6814
180.3509,86.6814
180.5323,86.7365
180.5323,86.7365
180.6995,86.8258
180.6995,86.8258
180.8461,86.9461
180.8461,86.9461
180.9664,87.0927
180.9664,87.0927
181.0557,87.2599
181.0557,87.2599
181.1108,87.4413
181.1108,87.4413
181.1294,87.6300
181.1294,87.6300
197.9417,87.6300
197.9417,85.0900
181.1294,85.0900
181.1108,85.2787
181.1108,85.2787
181.0557,85.4601
181.0557,85.4601
180.9874,85.5880
180.9664,85.6273
180.8461,85.7739
180.6995,85.8942
180.5323,85.9835
180.4059,86.0219
180.3509,86.0386
180.3509,86.0386
180.1622,86.0572
180.1622,86.0572
180.1622,86.0572
179.9735,86.0386
179.9735,86.0386
179.7921,85.9835
179.6249,85.8942
179.4783,85.7739
179.3580,85.6273
179.2687,85.4601
179.2136,85.2787
179.2136,85.2787
179.1950,85.0900
163.3494,85.0900
163.3308,85.2787
163.3308,85.2787
163.2757,85.4601
163.2757,85.4601
163.2074,85.5880
163.1864,85.6273
163.0661,85.7739
162.9195,85.8942
162.7523,85.9835
162.6259,86.0219
162.5709,86.0386
162.5709,86.0386
162.3822,86.0572
162.3822,86.0572
162.3822,86.0572
162.1935,86.0386
162.1935,86.0386
162.0121,85.9835
161.8449,85.8942
161.6983,85.7739
161.5780,85.6273
161.4887,85.4601
161.4336,85.2787
161.4336,85.2787
161.4150,85.0900
161.4150,85.0900
161.4336,84.9013
161.4336,84.9013
161.4503,84.8463
161.4887,84.7199
161.5780,84.5527
161.6983,84.4061
161.8449,84.2858
161.8842,84.2648
162.0121,84.1965
162.0121,84.1965
162.1935,84.1414
162.1935,84.1414
162.3822,84.1228
162.3822,84.1228
162.5709,84.1414
162.5709,84.1414
162.7523,84.1965
162.7523,84.1965
162.9195,84.2858
162.9195,84.2858
163.0661,84.4061
163.0661,84.4061
163.1864,84.5527
163.1864,84.5527
163.2757,84.7199
163.2757,84.7199
163.3308,84.9013
163.3308,84.9013
163.3494,85.0900
163.3494,85.0900
179.1950,85.0900
179.1950,85.0900
179.2136,84.9013
179.2136,84.9013
179.2303,84.8463
179.2687,84.7199
179.3580,84.5527
179.4783,84.4061
179.6249,84.2858
179.6642,84.2648
179.7921,84.1965
179.7921,84.1965
179.9735,84.1414
179.9735,84.1414
180.1622,84.1228
180.1622,84.1228
180.3509,84.1414
180.3509,84.1414
180.5323,84.1965
180.5323,84.1965
180.6995,84.2858
180.6995,84.2858
180.8461,84.4061
180.8461,84.4061
180.9664,84.5527
180.9664,84.5527
181.0557,84.7199
181.0557,84.7199
181.1108,84.9013
181.1108,84.9013
181.1294,85.0900
181.1294,85.0900
197.9417,85.0900
197.9417,82.5500
181.1294,82.5500
181.1108,82.7387
181.1108,82.7387
181.0557,82.9201
181.0557,82.9201
180.9874,83.0480
180.9664,83.0873
180.8461,83.2339
180.6995,83.3542
180.5323,83.4435
180.4059,83.4819
180.3509,83.4986
180.3509,83.4986
180.1622,83.5172
180.1622,83.5172
180.1622,83.5172
179.9735,83.4986
179.9735,83.4986
179.7921,83.4435
179.6249,83.3542
179.4783,83.2339
179.3580,83.0873
179.2687,82.9201
179.2136,82.7387
179.2136,82.7387
179.1950,82.5500
163.3494,82.5500
163.3308,82.7387
163.3308,82.7387
163.2757,82.9201
163.2757,82.9201
163.2074,83.0480
163.1864,83.0873
163.0661,83.2339
162.9195,83.3542
162.7523,83.4435
162.6259,83.4819
162.5709,83.4986
162.5709,83.4986
162.3822,83.5172
162.3822,83.5172
162.3822,83.5172
162.1935,83.4986
162.1935,83.4986
162.0121,83.4435
161.8449,83.3542
161.6983,83.2339
161.5780,83.0873
161.4887,82.9201
161.4336,82.7387
161.4336,82.7387
161.4150,82.5500
161.4150,82.5500
161.4336,82.3613
161.4336,82.3613
161.4503,82.3063
161.4887,82.1799
161.5780,82.0127
161.6983,81.8661
161.8449,81.7458
161.8842,81.7248
162.0121,81.6565
162.0121,81.6565
162.1935,81.6014
162.1935,81.6014
162.3822,81.5828
162.3822,81.5828
162.5709,81.6014
162.5709,81.6014
162.7523,81.6565
162.7523,81.6565
162.9195,81.7458
162.9195,81.7458
163.0661,81.8661
163.0661,81.8661
163.1864,82.0127
163.1864,82.0127
163.2757,82.1799
163.2757,82.1799
163.3308,82.3613
163.3308,82.3613
163.3494,82.5500
163.3494,82.5500
179.1950,82.5500
179.1950,82.5500
179.2136,82.3613
179.2136,82.3613
179.2303,82.3063
179.2687,82.1799
179.3580,82.0127
179.4783,81.8661
179.6249,81.7458
179.6642,81.7248
179.7921,81.6565
179.7921,81.6565
179.9735,81.6014
179.9735,81.6014
180.1622,81.5828
180.1622,81.5828
180.3509,81.6014
180.3509,81.6014
180.5323,81.6565
180.5323,81.6565
180.6995,81.7458
180.6995,81.7458
180.8461,81.8661
180.8461,81.8661
180.9664,82.0127
180.9664,82.0127
181.0557,82.1799
181.0557,82.1799
181.1108,82.3613
181.1108,82.3613
181.1294,82.5500
181.1294,82.5500
197.9417,82.5500
197.9417,80.0100
181.1294,80.0100
181.1108,80.1987
181.1108,80.1987
181.0557,80.3801
181.0557,80.3801
180.9874,80.5080
180.9664,80.5473
180.8461,80.6939
180.6995,80.8142
180.5323,80.9035
180.4059,80.9419
180.3509,80.9586
180.3509,80.9586
180.1622,80.9772
180.1622,80.9772
180.1622,80.9772
179.9735,80.9586
179.9735,80.9586
179.7921,80.9035
179.6249,80.8142
179.4783,80.6939
179.3580,80.5473
179.2687,80.3801
179.2136,80.1987
179.2136,80.1987
179.1950,80.0100
163.3494,80.0100
163.3308,80.1987
163.3308,80.1987
163.2757,80.3801
163.2757,80.3801
163.2074,80.5080
163.1864,80.5473
163.0661,80.6939
162.9195,80.8142
162.7523,80.9035
162.6259,80.9419
162.5709,80.9586
162.5709,80.9586
162.3822,80.9772
162.3822,80.9772
162.3822,80.9772
162.1935,80.9586
162.1935,80.9586
162.0121,80.9035
161.8449,80.8142
161.6983,80.6939
161.5780,80.5473
161.4887,80.3801
161.4336,80.1987
161.4336,80.1987
161.4150,80.0100
161.4150,80.0100
161.4336,79.8213
161.4336,79.8213
161.4503,79.7663
161.4887,79.6399
161.5780,79.4727
161.6983,79.3261
161.8449,79.2058
161.8842,79.1848
162.0121,79.1165
162.0121,79.1165
162.1935,79.0614
162.1935,79.0614
162.3822,79.0428
162.3822,79.0428
162.5709,79.0614
162.5709,79.0614
162.7523,79.1165
162.7523,79.1165
162.9195,79.2058
162.9195,79.2058
163.0661,79.3261
163.0661,79.3261
163.1864,79.4727
163.1864,79.4727
163.2757,79.6399
163.2757,79.6399
163.3308,79.8213
163.3308,79.8213
163.3494,80.0100
163.3494,80.0100
179.1950,80.0100
179.1950,80.0100
179.2136,79.8213
179.2136,79.8213
179.2303,79.7663
179.2687,79.6399
179.3580,79.4727
179.4783,79.3261
179.6249,79.2058
179.6642,79.1848
179.7921,79.1165
179.7921,79.1165
179.9735,79.0614
179.9735,79.0614
180.1622,79.0428
180.1622,79.0428
180.3509,79.0614
180.3509,79.0614
180.5323,79.1165
180.5323,79.1165
180.6995,79.2058
180.6995,79.2058
180.8461,79.3261
180.8461,79.3261
180.9664,79.4727
180.9664,79.4727
181.0557,79.6399
181.0557,79.6399
181.1108,79.8213
181.1108,79.8213
181.1294,80.0100
181.1294,80.0100
197.9417,80.0100
197.9417,77.4700
181.1294,77.4700
181.1108,77.6587
181.1108,77.6587
181.0557,77.8401
181.0557,77.8401
180.9874,77.9680
180.9664,78.0073
180.8461,78.1539
180.6995,78.2742
180.5323,78.3635
180.4059,78.4019
180.3509,78.4186
180.3509,78.4186
180.1622,78.4372
180.1622,78.4372
180.1622,78.4372
179.9735,78.4186
179.9735,78.4186
179.7921,78.3635
179.6249,78.2742
179.4783,78.1539
179.3580,78.0073
179.2687,77.8401
179.2136,77.6587
179.2136,77.6587
179.1950,77.4700
163.3494,77.4700
163.3308,77.6587
163.3308,77.6587
163.2757,77.8401
163.2757,77.8401
163.2074,77.9680
163.1864,78.0073
163.0661,78.1539
162.9195,78.2742
162.7523,78.3635
162.6259,78.4019
162.5709,78.4186
162.5709,78.4186
162.3822,78.4372
162.3822,78.4372
162.3822,78.4372
162.1935,78.4186
162.1935,78.4186
162.0121,78.3635
161.8449,78.2742
161.6983,78.1539
161.5780,78.0073
161.4887,77.8401
161.4336,77.6587
161.4336,77.6587
161.4150,77.4700
161.4150,77.4700
161.4336,77.2813
161.4336,77.2813
161.4503,77.2263
161.4887,77.0999
161.5780,76.9327
161.6983,76.7861
161.8449,76.6658
161.8842,76.6448
162.0121,76.5765
162.0121,76.5765
162.1935,76.5214
162.1935,76.5214
162.3822,76.5028
162.3822,76.5028
162.5709,76.5214
162.5709,76.5214
162.7523,76.5765
162.7523,76.5765
162.9195,76.6658
162.9195,76.6658
163.0661,76.7861
163.0661,76.7861
163.1864,76.9327
163.1864,76.9327
163.2757,77.0999
163.2757,77.0999
163.3308,77.2813
163.3308,77.2813
163.3494,77.4700
163.3494,77.4700
179.1950,77.4700
179.1950,77.4700
179.2136,77.2813
179.2136,77.2813
179.2303,77.2263
179.2687,77.0999
179.3580,76.9327
179.4783,76.7861
179.6249,76.6658
179.6642,76.6448
179.7921,76.5765
179.7921,76.5765
179.9735,76.5214
179.9735,76.5214
180.1622,76.5028
180.1622,76.5028
180.3509,76.5214
180.3509,76.5214
180.5323,76.5765
180.5323,76.5765
180.6995,76.6658
180.6995,76.6658
180.8461,76.7861
180.8461,76.7861
180.9664,76.9327
180.9664,76.9327
181.0557,77.0999
181.0557,77.0999
181.1108,77.2813
181.1108,77.2813
181.1294,77.4700
181.1294,77.4700
197.9417,77.4700
197.9417,74.9300
181.1294,74.9300
181.1108,75.1187
181.1108,75.1187
181.0557,75.3001
181.0557,75.3001
180.9874,75.4280
180.9664,75.4673
180.8461,75.6139
180.6995,75.7342
180.5323,75.8235
180.4059,75.8619
180.3509,75.8786
180.3509,75.8786
180.1622,75.8972
180.1622,75.8972
180.1622,75.8972
179.9735,75.8786
179.9735,75.8786
179.7921,75.8235
179.6249,75.7342
179.4783,75.6139
179.3580,75.4673
179.2687,75.3001
179.2136,75.1187
179.2136,75.1187
179.1950,74.9300
163.3494,74.9300
163.3308,75.1187
163.3308,75.1187
163.2757,75.3001
163.2757,75.3001
163.2074,75.4280
163.1864,75.4673
163.0661,75.6139
162.9195,75.7342
162.7523,75.8235
162.6259,75.8619
162.5709,75.8786
162.5709,75.8786
162.3822,75.8972
162.3822,75.8972
162.3822,75.8972
162.1935,75.8786
162.1935,75.8786
162.0121,75.8235
161.8449,75.7342
161.6983,75.6139
161.5780,75.4673
161.4887,75.3001
161.4336,75.1187
161.4336,75.1187
161.4150,74.9300
161.4150,74.9300
161.4336,74.7413
161.4336,74.7413
161.4503,74.6863
161.4887,74.5599
161.5780,74.3927
161.6983,74.2461
161.8449,74.1258
161.8842,74.1048
162.0121,74.0365
162.0121,74.0365
162.1935,73.9814
162.1935,73.9814
162.3822,73.9628
162.3822,73.9628
162.5709,73.9814
162.5709,73.9814
162.7523,74.0365
162.7523,74.0365
162.9195,74.1258
162.9195,74.1258
163.0661,74.2461
163.0661,74.2461
163.1864,74.3927
163.1864,74.3927
163.2757,74.5599
163.2757,74.5599
163.3308,74.7413
163.3308,74.7413
163.3494,74.9300
163.3494,74.9300
179.1950,74.9300
179.1950,74.9300
179.2136,74.7413
179.2136,74.7413
179.2303,74.6863
179.2687,74.5599
179.3580,74.3927
179.4783,74.2461
179.6249,74.1258
179.6642,74.1048
179.7921,74.0365
179.7921,74.0365
179.9735,73.9814
179.9735,73.9814
180.1622,73.9628
180.1622,73.9628
180.3509,73.9814
180.3509,73.9814
180.5323,74.0365
180.5323,74.0365
180.6995,74.1258
180.6995,74.1258
180.8461,74.2461
180.8461,74.2461
180.9664,74.3927
180.9664,74.3927
181.0557,74.5599
181.0557,74.5599
181.1108,74.7413
181.1108,74.7413
181.1294,74.9300
181.1294,74.9300
197.9417,74.9300
197.9417,72.3900
181.1294,72.3900
181.1108,72.5787
181.1108,72.5787
181.0557,72.7601
181.0557,72.7601
180.9874,72.8880
180.9664,72.9273
180.8461,73.0739
180.6995,73.1942
180.5323,73.2835
180.4059,73.3219
180.3509,73.3386
180.3509,73.3386
180.1622,73.3572
180.1622,73.3572
180.1622,73.3572
179.9735,73.3386
179.9735,73.3386
179.7921,73.2835
179.6249,73.1942
179.4783,73.0739
179.3580,72.9273
179.2687,72.7601
179.2136,72.5787
179.2136,72.5787
179.1950,72.3900
163.3494,72.3900
163.3308,72.5787
163.3308,72.5787
163.2757,72.7601
163.2757,72.7601
163.2074,72.8880
163.1864,72.9273
163.0661,73.0739
162.9195,73.1942
162.7523,73.2835
162.6259,73.3219
162.5709,73.3386
162.5709,73.3386
162.3822,73.3572
162.3822,73.3572
162.3822,73.3572
162.1935,73.3386
162.1935,73.3386
162.0121,73.2835
161.8449,73.1942
161.6983,73.0739
161.5780,72.9273
161.4887,72.7601
161.4336,72.5787
161.4336,72.5787
161.4150,72.3900
161.4150,72.3900
161.4336,72.2013
161.4336,72.2013
161.4503,72.1463
161.4887,72.0199
161.5780,71.8527
161.6983,71.7061
161.8449,71.5858
161.8842,71.5648
162.0121,71.4965
162.0121,71.4965
162.1935,71.4414
162.1935,71.4414
162.3822,71.4228
162.3822,71.4228
162.5709,71.4414
162.5709,71.4414
162.7523,71.4965
162.7523,71.4965
162.9195,71.5858
162.9195,71.5858
163.0661,71.7061
163.0661,71.7061
163.1864,71.8527
163.1864,71.8527
163.2757,72.0199
163.2757,72.0199
163.3308,72.2013
163.3308,72.2013
163.3494,72.3900
163.3494,72.3900
179.1950,72.3900
179.1950,72.3900
179.2136,72.2013
179.2136,72.2013
179.2303,72.1463
179.2687,72.0199
179.3580,71.8527
179.4783,71.7061
179.6249,71.5858
179.6642,71.5648
179.7921,71.4965
179.7921,71.4965
179.9735,71.4414
179.9735,71.4414
180.1622,71.4228
180.1622,71.4228
180.3509,71.4414
180.3509,71.4414
180.5323,71.4965
180.5323,71.4965
180.6995,71.5858
180.6995,71.5858
180.8461,71.7061
180.8461,71.7061
180.9664,71.8527
180.9664,71.8527
181.0557,72.0199
181.0557,72.0199
181.1108,72.2013
181.1108,72.2013
181.1294,72.3900
181.1294,72.3900
197.9417,72.3900
197.9417,69.8500
181.1294,69.8500
181.1108,70.0387
181.1108,70.0387
181.0557,70.2201
181.0557,70.2201
180.9874,70.3480
180.9664,70.3873
180.8461,70.5339
180.6995,70.6542
180.5323,70.7435
180.4059,70.7819
180.3509,70.7986
180.3509,70.7986
180.1622,70.8172
180.1622,70.8172
180.1622,70.8172
179.9735,70.7986
179.9735,70.7986
179.7921,70.7435
179.6249,70.6542
179.4783,70.5339
179.3580,70.3873
179.2687,70.2201
179.2136,70.0387
179.2136,70.0387
179.1950,69.8500
163.3494,69.8500
163.3308,70.0387
163.3308,70.0387
163.2757,70.2201
163.2757,70.2201
163.2074,70.3480
163.1864,70.3873
163.0661,70.5339
162.9195,70.6542
162.7523,70.7435
162.6259,70.7819
162.5709,70.7986
162.5709,70.7986
162.3822,70.8172
162.3822,70.8172
162.3822,70.8172
162.1935,70.7986
162.1935,70.7986
162.0121,70.7435
161.8449,70.6542
161.6983,70.5339
161.5780,70.3873
161.4887,70.2201
161.4336,70.0387
161.4336,70.0387
161.4150,69.8500
161.4150,69.8500
161.4336,69.6613
161.4336,69.6613
161.4503,69.6063
161.4887,69.4799
161.5780,69.3127
161.6983,69.1661
161.8449,69.0458
161.8842,69.0248
162.0121,68.9565
162.0121,68.9565
162.1935,68.9014
162.1935,68.9014
162.3822,68.8828
162.3822,68.8828
162.5709,68.9014
162.5709,68.9014
162.7523,68.9565
162.7523,68.9565
162.9195,69.0458
162.9195,69.0458
163.0661,69.1661
163.0661,69.1661
163.1864,69.3127
163.1864,69.3127
163.2757,69.4799
163.2757,69.4799
163.3308,69.6613
163.3308,69.6613
163.3494,69.8500
163.3494,69.8500
179.1950,69.8500
179.1950,69.8500
179.2136,69.6613
179.2136,69.6613
179.2303,69.6063
179.2687,69.4799
179.3580,69.3127
179.4783,69.1661
179.6249,69.0458
179.6642,69.0248
179.7921,68.9565
179.7921,68.9565
179.9735,68.9014
179.9735,68.9014
180.1622,68.8828
180.1622,68.8828
180.3509,68.9014
180.3509,68.9014
180.5323,68.9565
180.5323,68.9565
180.6995,69.0458
180.6995,69.0458
180.8461,69.1661
180.8461,69.1661
180.9664,69.3127
180.9664,69.3127
181.0557,69.4799
181.0557,69.4799
181.1108,69.6613
181.1108,69.6613
181.1294,69.8500
181.1294,69.8500
197.9417,69.8500
197.9417,67.3100
181.1294,67.3100
181.1108,67.4987
181.1108,67.4987
181.0557,67.6801
181.0557,67.6801
180.9874,67.8080
180.9664,67.8473
180.8461,67.9939
180.6995,68.1142
180.5323,68.2035
180.4059,68.2419
180.3509,68.2586
180.3509,68.2586
180.1622,68.2772
180.1622,68.2772
180.1622,68.2772
179.9735,68.2586
179.9735,68.2586
179.7921,68.2035
179.6249,68.1142
179.4783,67.9939
179.3580,67.8473
179.2687,67.6801
179.2136,67.4987
179.2136,67.4987
179.1950,67.3100
163.3494,67.3100
163.3308,67.4987
163.3308,67.4987
163.2757,67.6801
163.2757,67.6801
163.2074,67.8080
163.1864,67.8473
163.0661,67.9939
162.9195,68.1142
162.7523,68.2035
162.6259,68.2419
162.5709,68.2586
162.5709,68.2586
162.3822,68.2772
162.3822,68.2772
162.3822,68.2772
162.1935,68.2586
162.1935,68.2586
162.0121,68.2035
161.8449,68.1142
161.6983,67.9939
161.5780,67.8473
161.4887,67.6801
161.4336,67.4987
161.4336,67.4987
161.4150,67.3100
161.4150,67.3100
161.4336,67.1213
161.4336,67.1213
161.4503,67.0663
161.4887,66.9399
161.5780,66.7727
161.6983,66.6261
161.8449,66.5058
161.8842,66.4848
162.0121,66.4165
162.0121,66.4165
162.1935,66.3614
162.1935,66.3614
162.3822,66.3428
162.3822,66.3428
162.5709,66.3614
162.5709,66.3614
162.7523,66.4165
162.7523,66.4165
162.9195,66.5058
162.9195,66.5058
163.0661,66.6261
163.0661,66.6261
163.1864,66.7727
163.1864,66.7727
163.2757,66.9399
163.2757,66.9399
163.3308,67.1213
163.3308,67.1213
163.3494,67.3100
163.3494,67.3100
179.1950,67.3100
179.1950,67.3100
179.2136,67.1213
179.2136,67.1213
179.2303,67.0663
179.2687,66.9399
179.3580,66.7727
179.4783,66.6261
179.6249,66.5058
179.6642,66.4848
179.7921,66.4165
179.7921,66.4165
179.9735,66.3614
179.9735,66.3614
180.1622,66.3428
180.1622,66.3428
180.3509,66.3614
180.3509,66.3614
180.5323,66.4165
180.5323,66.4165
180.6995,66.5058
180.6995,66.5058
180.8461,66.6261
180.8461,66.6261
180.9664,66.7727
180.9664,66.7727
181.0557,66.9399
181.0557,66.9399
181.1108,67.1213
181.1108,67.1213
181.1294,67.3100
181.1294,67.3100
197.9417,67.3100
197.9417,64.7700
181.1294,64.7700
181.1108,64.9587
181.1108,64.9587
181.0557,65.1401
181.0557,65.1401
180.9874,65.2680
180.9664,65.3073
180.8461,65.4539
180.6995,65.5742
180.5323,65.6635
180.4059,65.7019
180.3509,65.7186
180.3509,65.7186
180.1622,65.7372
180.1622,65.7372
180.1622,65.7372
179.9735,65.7186
179.9735,65.7186
179.7921,65.6635
179.6249,65.5742
179.4783,65.4539
179.3580,65.3073
179.2687,65.1401
179.2136,64.9587
179.2136,64.9587
179.1950,64.7700
163.3494,64.7700
163.3308,64.9587
163.3308,64.9587
163.2757,65.1401
163.2757,65.1401
163.2074,65.2680
163.1864,65.3073
163.0661,65.4539
162.9195,65.5742
162.7523,65.6635
162.6259,65.7019
162.5709,65.7186
162.5709,65.7186
162.3822,65.7372
162.3822,65.7372
162.3822,65.7372
162.1935,65.7186
162.1935,65.7186
162.0121,65.6635
161.8449,65.5742
161.6983,65.4539
161.5780,65.3073
161.4887,65.1401
161.4336,64.9587
161.4336,64.9587
161.4150,64.7700
161.4150,64.7700
161.4336,64.5813
161.4336,64.5813
161.4503,64.5263
161.4887,64.3999
161.5780,64.2327
161.6983,64.0861
161.8449,63.9658
161.8842,63.9448
162.0121,63.8765
162.0121,63.8765
162.1935,63.8214
162.1935,63.8214
162.3822,63.8028
162.3822,63.8028
162.5709,63.8214
162.5709,63.8214
162.7523,63.8765
162.7523,63.8765
162.9195,63.9658
162.9195,63.9658
163.0661,64.0861
163.0661,64.0861
163.1864,64.2327
163.1864,64.2327
163.2757,64.3999
163.2757,64.3999
163.3308,64.5813
163.3308,64.5813
163.3494,64.7700
163.3494,64.7700
179.1950,64.7700
179.1950,64.7700
179.2136,64.5813
179.2136,64.5813
179.2303,64.5263
179.2687,64.3999
179.3580,64.2327
179.4783,64.0861
179.6249,63.9658
179.6642,63.9448
179.7921,63.8765
179.7921,63.8765
179.9735,63.8214
179.9735,63.8214
180.1622,63.8028
180.1622,63.8028
180.3509,63.8214
180.3509,63.8214
180.5323,63.8765
180.5323,63.8765
180.6995,63.9658
180.6995,63.9658
180.8461,64.0861
180.8461,64.0861
180.9664,64.2327
180.9664,64.2327
181.0557,64.3999
181.0557,64.3999
181.1108,64.5813
181.1108,64.5813
181.1294,64.7700
181.1294,64.7700
197.9417,64.7700
197.9417,62.2300
181.1294,62.2300
181.1108,62.4187
181.1108,62.4187
181.0557,62.6001
181.0557,62.6001
180.9874,62.7280
180.9664,62.7673
180.8461,62.9139
180.6995,63.0342
180.5323,63.1235
180.4059,63.1619
180.3509,63.1786
180.3509,63.1786
180.1622,63.1972
180.1622,63.1972
180.1622,63.1972
179.9735,63.1786
179.9735,63.1786
179.7921,63.1235
179.6249,63.0342
179.4783,62.9139
179.3580,62.7673
179.2687,62.6001
179.2136,62.4187
179.2136,62.4187
179.1950,62.2300
163.3494,62.2300
163.3308,62.4187
163.3308,62.4187
163.2757,62.6001
163.2757,62.6001
163.2074,62.7280
163.1864,62.7673
163.0661,62.9139
162.9195,63.0342
162.7523,63.1235
162.6259,63.1619
162.5709,63.1786
162.5709,63.1786
162.3822,63.1972
162.3822,63.1972
162.3822,63.1972
162.1935,63.1786
162.1935,63.1786
162.0121,63.1235
161.8449,63.0342
161.6983,62.9139
161.5780,62.7673
161.4887,62.6001
161.4336,62.4187
161.4336,62.4187
161.4150,62.2300
161.4150,62.2300
161.4336,62.0413
161.4336,62.0413
161.4503,61.9863
161.4887,61.8599
161.5780,61.6927
161.6983,61.5461
161.8449,61.4258
161.8842,61.4048
162.0121,61.3365
162.0121,61.3365
162.1935,61.2814
162.1935,61.2814
162.3822,61.2628
162.3822,61.2628
162.5709,61.2814
162.5709,61.2814
162.7523,61.3365
162.7523,61.3365
162.9195,61.4258
162.9195,61.4258
163.0661,61.5461
163.0661,61.5461
163.1864,61.6927
163.1864,61.6927
163.2757,61.8599
163.2757,61.8599
163.3308,62.0413
163.3308,62.0413
163.3494,62.2300
163.3494,62.2300
179.1950,62.2300
179.1950,62.2300
179.2136,62.0413
179.2136,62.0413
179.2303,61.9863
179.2687,61.8599
179.3580,61.6927
179.4783,61.5461
179.6249,61.4258
179.6642,61.4048
179.7921,61.3365
179.7921,61.3365
179.9735,61.2814
179.9735,61.2814
180.1622,61.2628
180.1622,61.2628
180.3509,61.2814
180.3509,61.2814
180.5323,61.3365
180.5323,61.3365
180.6995,61.4258
180.6995,61.4258
180.8461,61.5461
180.8461,61.5461
180.9664,61.6927
180.9664,61.6927
181.0557,61.8599
181.0557,61.8599
181.1108,62.0413
181.1108,62.0413
181.1294,62.2300
181.1294,62.2300
197.9417,62.2300
197.9417,59.6900
181.1294,59.6900
181.1108,59.8787
181.1108,59.8787
181.0557,60.0601
181.0557,60.0601
180.9874,60.1880
180.9664,60.2273
180.8461,60.3739
180.6995,60.4942
180.5323,60.5835
180.4059,60.6219
180.3509,60.6386
180.3509,60.6386
180.1622,60.6572
180.1622,60.6572
180.1622,60.6572
179.9735,60.6386
179.9735,60.6386
179.7921,60.5835
179.6249,60.4942
179.4783,60.3739
179.3580,60.2273
179.2687,60.0601
179.2136,59.8787
179.2136,59.8787
179.1950,59.6900
163.3494,59.6900
163.3308,59.8787
163.3308,59.8787
163.2757,60.0601
163.2757,60.0601
163.2074,60.1880
163.1864,60.2273
163.0661,60.3739
162.9195,60.4942
162.7523,60.5835
162.6259,60.6219
162.5709,60.6386
162.5709,60.6386
162.3822,60.6572
162.3822,60.6572
162.3822,60.6572
162.1935,60.6386
162.1935,60.6386
162.0121,60.5835
161.8449,60.4942
161.6983,60.3739
161.5780,60.2273
161.4887,60.0601
161.4336,59.8787
161.4336,59.8787
161.4150,59.6900
161.4150,59.6900
161.4336,59.5013
161.4336,59.5013
161.4503,59.4463
161.4887,59.3199
161.5780,59.1527
161.6983,59.0061
161.8449,58.8858
161.8842,58.8648
162.0121,58.7965
162.0121,58.7965
162.1935,58.7414
162.1935,58.7414
162.3822,58.7228
162.3822,58.7228
162.5709,58.7414
162.5709,58.7414
162.7523,58.7965
162.7523,58.7965
162.9195,58.8858
162.9195,58.8858
163.0661,59.0061
163.0661,59.0061
163.1864,59.1527
163.1864,59.1527
163.2757,59.3199
163.2757,59.3199
163.3308,59.5013
163.3308,59.5013
163.3494,59.6900
163.3494,59.6900
179.1950,59.6900
179.1950,59.6900
179.2136,59.5013
179.2136,59.5013
179.2303,59.4463
179.2687,59.3199
179.3580,59.1527
179.4783,59.0061
179.6249,58.8858
179.6642,58.8648
179.7921,58.7965
179.7921,58.7965
179.9735,58.7414
179.9735,58.7414
180.1622,58.7228
180.1622,58.7228
180.3509,58.7414
180.3509,58.7414
180.5323,58.7965
180.5323,58.7965
180.6995,58.8858
180.6995,58.8858
180.8461,59.0061
180.8461,59.0061
180.9664,59.1527
180.9664,59.1527
181.0557,59.3199
181.0557,59.3199
181.1108,59.5013
181.1108,59.5013
181.1294,59.6900
181.1294,59.6900
197.9417,59.6900
197.9417,55.8800
196.0677,55.8800
196.0476,56.2389
196.0476,56.2389
195.9874,56.5933
195.9874,56.5933
195.8879,56.9387
195.7503,57.2708
195.5764,57.5854
195.4001,57.8339
195.3684,57.8786
195.1289,58.1467
194.8608,58.3862
194.5677,58.5942
194.5676,58.5942
194.2530,58.7681
194.2530,58.7681
193.9209,58.9057
193.5755,59.0052
193.5755,59.0052
193.5755,59.0052
193.2211,59.0654
193.2211,59.0654
193.2211,59.0654
192.8622,59.0855
192.8622,59.0855
192.8622,59.0855
192.5033,59.0654
192.5033,59.0654
192.5033,59.0654
192.1489,59.0052
191.8035,58.9057
191.4714,58.7681
191.1567,58.5942
190.8636,58.3862
190.5955,58.1467
190.3560,57.8786
190.1480,57.5855
189.9741,57.2708
189.9241,57.1500
181.1294,57.1500
181.1108,57.3387
181.1108,57.3387
181.0557,57.5201
181.0557,57.5201
181.0208,57.5855
180.9664,57.6873
180.8461,57.8339
180.6995,57.9542
180.5323,58.0435
180.4059,58.0819
180.3509,58.0986
180.3509,58.0986
180.1622,58.1172
180.1622,58.1172
180.1622,58.1172
179.9735,58.0986
179.9735,58.0986
179.7921,58.0435
179.6249,57.9542
179.4783,57.8339
179.3580,57.6873
179.2687,57.5201
179.2136,57.3387
179.2136,57.3387
179.1950,57.1500
163.3494,57.1500
163.3308,57.3387
163.3308,57.3387
163.2757,57.5201
163.2757,57.5201
163.2408,57.5855
163.1864,57.6873
163.0661,57.8339
162.9195,57.9542
162.7523,58.0435
162.6259,58.0819
162.5709,58.0986
162.5709,58.0986
162.3822,58.1172
162.3822,58.1172
162.3822,58.1172
162.1935,58.0986
162.1935,58.0986
162.0121,58.0435
161.8449,57.9542
161.6983,57.8339
161.5780,57.6873
161.4887,57.5201
161.4336,57.3387
161.4336,57.3387
161.4150,57.1500
161.4150,57.1500
161.4336,56.9613
161.4336,56.9613
161.4503,56.9063
161.4887,56.7799
161.5780,56.6127
161.6983,56.4661
161.8449,56.3458
161.8842,56.3248
162.0121,56.2565
162.0121,56.2565
162.1935,56.2014
162.1935,56.2014
162.3822,56.1828
162.3822,56.1828
162.5709,56.2014
162.5709,56.2014
162.7523,56.2565
162.7523,56.2565
162.9195,56.3458
162.9195,56.3458
163.0661,56.4661
163.0661,56.4661
163.1864,56.6127
163.1864,56.6127
163.2757,56.7799
163.2757,56.7799
163.3308,56.9613
163.3308,56.9613
163.3494,57.1500
163.3494,57.1500
179.1950,57.1500
179.1950,57.1500
179.2136,56.9613
179.2136,56.9613
179.2303,56.9063
179.2687,56.7799
179.3580,56.6127
179.4783,56.4661
179.6249,56.3458
179.6642,56.3248
179.7921,56.2565
179.7921,56.2565
179.9735,56.2014
179.9735,56.2014
180.1622,56.1828
180.1622,56.1828
180.3509,56.2014
180.3509,56.2014
180.5323,56.2565
180.5323,56.2565
180.6995,56.3458
180.6995,56.3458
180.8461,56.4661
180.8461,56.4661
180.9664,56.6127
180.9664,56.6127
181.0557,56.7799
181.0557,56.7799
181.1108,56.9613
181.1108,56.9613
181.1294,57.1500
181.1294,57.1500
189.9241,57.1500
189.8365,56.9387
189.7370,56.5933
189.6768,56.2389
189.6567,55.8800
152.8877,55.8800
152.8676,56.2389
152.8676,56.2389
152.8074,56.5933
152.8074,56.5933
152.7079,56.9387
152.5703,57.2708
152.3964,57.5854
152.2201,57.8339
152.1884,57.8786
151.9489,58.1467
151.6808,58.3862
151.3877,58.5942
151.3876,58.5942
151.0730,58.7681
151.0730,58.7681
150.7409,58.9057
150.3955,59.0052
150.3955,59.0052
150.3955,59.0052
150.0411,59.0654
150.0411,59.0654
150.0411,59.0654
149.6822,59.0855
149.6822,59.0855
149.6822,59.0855
149.3233,59.0654
149.3233,59.0654
149.3233,59.0654
148.9689,59.0052
148.6235,58.9057
148.2914,58.7681
147.9767,58.5942
147.6836,58.3862
147.4155,58.1467
147.1760,57.8786
146.9680,57.5855
146.7941,57.2708
146.6565,56.9387
146.5570,56.5933
146.4968,56.2389
146.4767,55.8800
146.4968,55.5211
146.5570,55.1667
146.6565,54.8213
146.7941,54.4892
146.7941,54.4892
146.9680,54.1745
147.0403,54.0727
147.1760,53.8814
147.4155,53.6133
147.6836,53.3738
147.6836,53.3738
147.6836,53.3738
147.9768,53.1658
148.2914,52.9919
148.2914,52.9919
148.6235,52.8543
148.9689,52.7548
148.9689,52.7548
149.3233,52.6946
149.3233,52.6946
149.6822,52.6745
149.6822,52.6745
150.0411,52.6946
150.0411,52.6946
150.3955,52.7548
150.3955,52.7548
150.7409,52.8543
151.0730,52.9919
151.3876,53.1658
151.6808,53.3738
151.9489,53.6133
151.9489,53.6133
152.1884,53.8814
152.3964,54.1745
152.5703,54.4892
152.7079,54.8213
152.8074,55.1667
152.8074,55.1667
152.8676,55.5211
152.8676,55.5211
152.8877,55.8800
152.8877,55.8800
189.6567,55.8800
189.6567,55.8800
189.6768,55.5211
189.7370,55.1667
189.8365,54.8213
189.9241,54.6100
181.1294,54.6100
181.1108,54.7987
181.1108,54.7987
181.0557,54.9801
181.0557,54.9801
180.9874,55.1080
180.9664,55.1473
180.9664,55.1473
180.9664,55.1473
180.9505,55.1667
180.8461,55.2939
180.6995,55.4142
180.5323,55.5035
180.4059,55.5419
180.3509,55.5586
180.3509,55.5586
180.1622,55.5772
180.1622,55.5772
180.1622,55.5772
179.9735,55.5586
179.9735,55.5586
179.7921,55.5035
179.6249,55.4142
179.4783,55.2939
179.3580,55.1473
179.2687,54.9801
179.2136,54.7987
179.2136,54.7987
179.1950,54.6100
163.3494,54.6100
163.3308,54.7987
163.3308,54.7987
163.2757,54.9801
163.2757,54.9801
163.2074,55.1080
163.1864,55.1473
163.1864,55.1473
163.1864,55.1473
163.1705,55.1667
163.0661,55.2939
162.9195,55.4142
162.7523,55.5035
162.6259,55.5419
162.5709,55.5586
162.5709,55.5586
162.3822,55.5772
162.3822,55.5772
162.3822,55.5772
162.1935,55.5586
162.1935,55.5586
162.0121,55.5035
161.8449,55.4142
161.6983,55.2939
161.5780,55.1473
161.4887,54.9801
161.4336,54.7987
161.4336,54.7987
161.4150,54.6100
161.4150,54.6100
161.4336,54.4213
161.4336,54.4213
161.4503,54.3663
161.4887,54.2399
161.5780,54.0727
161.6983,53.9261
161.8449,53.8058
161.8842,53.7848
162.0121,53.7165
162.0121,53.7165
162.1935,53.6614
162.1935,53.6614
162.3822,53.6428
162.3822,53.6428
162.5709,53.6614
162.5709,53.6614
162.7523,53.7165
162.7523,53.7165
162.9195,53.8058
162.9195,53.8058
163.0661,53.9261
163.0661,53.9261
163.1864,54.0727
163.1864,54.0727
163.2757,54.2399
163.2757,54.2399
163.3308,54.4213
163.3308,54.4213
163.3494,54.6100
163.3494,54.6100
179.1950,54.6100
179.1950,54.6100
179.2136,54.4213
179.2136,54.4213
179.2303,54.3663
179.2687,54.2399
179.3580,54.0727
179.4783,53.9261
179.6249,53.8058
179.6642,53.7848
179.7921,53.7165
179.7921,53.7165
179.9735,53.6614
179.9735,53.6614
180.1622,53.6428
180.1622,53.6428
180.3509,53.6614
180.3509,53.6614
180.5323,53.7165
180.5323,53.7165
180.6995,53.8058
180.6995,53.8058
180.8461,53.9261
180.8461,53.9261
180.9664,54.0727
180.9664,54.0727
181.0557,54.2399
181.0557,54.2399
181.1108,54.4213
181.1108,54.4213
181.1294,54.6100
181.1294,54.6100
189.9241,54.6100
189.9741,54.4892
189.9741,54.4892
190.1480,54.1745
190.2203,54.0727
190.3560,53.8814
190.5955,53.6133
190.8636,53.3738
190.8636,53.3738
190.8636,53.3738
191.1568,53.1658
191.4714,52.9919
191.4714,52.9919
191.8035,52.8543
192.1489,52.7548
192.1489,52.7548
192.5033,52.6946
192.5033,52.6946
192.8622,52.6745
192.8622,52.6745
193.2211,52.6946
193.2211,52.6946
193.5755,52.7548
193.5755,52.7548
193.9209,52.8543
194.2530,52.9919
194.5676,53.1658
194.8608,53.3738
195.1289,53.6133
195.1289,53.6133
195.3684,53.8814
195.5764,54.1745
195.7503,54.4892
195.8879,54.8213
195.9874,55.1667
195.9874,55.1667
196.0476,55.5211
196.0476,55.5211
196.0677,55.8800
196.0677,55.8800
197.9417,55.8800
197.9417,52.0700
181.1294,52.0700
181.1108,52.2587
181.1108,52.2587
181.0557,52.4401
181.0557,52.4401
180.9874,52.5680
180.9664,52.6073
180.8461,52.7539
180.6995,52.8742
180.5323,52.9635
180.4388,52.9919
180.3509,53.0186
180.3509,53.0186
180.1622,53.0372
180.1622,53.0372
180.1622,53.0372
179.9735,53.0186
179.9735,53.0186
179.7921,52.9635
179.6249,52.8742
179.4783,52.7539
179.3580,52.6073
179.2687,52.4401
179.2136,52.2587
179.2136,52.2587
179.1950,52.0700
163.3494,52.0700
163.3308,52.2587
163.3308,52.2587
163.2757,52.4401
163.2757,52.4401
163.2074,52.5680
163.1864,52.6073
163.0661,52.7539
162.9195,52.8742
162.7523,52.9635
162.6588,52.9919
162.5709,53.0186
162.5709,53.0186
162.3822,53.0372
162.3822,53.0372
162.3822,53.0372
162.1935,53.0186
162.1935,53.0186
162.0121,52.9635
161.8449,52.8742
161.6983,52.7539
161.5780,52.6073
161.4887,52.4401
161.4336,52.2587
161.4336,52.2587
161.4150,52.0700
161.4150,52.0700
161.4336,51.8813
161.4336,51.8813
161.4503,51.8263
161.4887,51.6999
161.5780,51.5327
161.6983,51.3861
161.8449,51.2658
161.8842,51.2448
162.0121,51.1765
162.0121,51.1765
162.1935,51.1214
162.1935,51.1214
162.3822,51.1028
162.3822,51.1028
162.5709,51.1214
162.5709,51.1214
162.7523,51.1765
162.7523,51.1765
162.9195,51.2658
162.9195,51.2658
163.0661,51.3861
163.0661,51.3861
163.1864,51.5327
163.1864,51.5327
163.2757,51.6999
163.2757,51.6999
163.3308,51.8813
163.3308,51.8813
163.3494,52.0700
163.3494,52.0700
179.1950,52.0700
179.1950,52.0700
179.2136,51.8813
179.2136,51.8813
179.2303,51.8263
179.2687,51.6999
179.3580,51.5327
179.4783,51.3861
179.6249,51.2658
179.6642,51.2448
179.7921,51.1765
179.7921,51.1765
179.9735,51.1214
179.9735,51.1214
180.1622,51.1028
180.1622,51.1028
180.3509,51.1214
180.3509,51.1214
180.5323,51.1765
180.5323,51.1765
180.6995,51.2658
180.6995,51.2658
180.8461,51.3861
180.8461,51.3861
180.9664,51.5327
180.9664,51.5327
181.0557,51.6999
181.0557,51.6999
181.1108,51.8813
181.1108,51.8813
181.1294,52.0700
181.1294,52.0700
197.9417,52.0700
197.9417,50.8995
197.9228,50.8413
197.8733,50.8053
197.8427,50.8005
144.7017,50.8005
Z" /> 
</g>
</g>
</g>
<g style="fill:#FFFFFF; fill-opacity:1.0000; 
stroke:#FFFFFF; stroke-width:0.0000; stroke-opacity:1; 
stroke-linecap:round; stroke-linejoin:round;">
<circle cx="192.8622" cy="96.5200" r="1.6000" /> 
</g>
<g style="fill:#FFFFFF; fill-opacity:1.0000; 
stroke:#FFFFFF; stroke-width:0.0212; stroke-opacity:1; 
stroke-linecap:round; stroke-linejoin:round;">
</g>
<g style="fill:#FFFFFF; fill-opacity:1.0000; 
stroke:#FFFFFF; stroke-width:0.0000; stroke-opacity:1; 
stroke-linecap:round; stroke-linejoin:round;">
<circle cx="149.6822" cy="96.5200" r="1.6000" /> 
</g>
<g style="fill:#FFFFFF; fill-opacity:1.0000; 
stroke:#FFFFFF; stroke-width:0.0212; stroke-opacity:1; 
stroke-linecap:round; stroke-linejoin:round;">
</g>
<g style="fill:#FFFFFF; fill-opacity:1.0000; 
stroke:#FFFFFF; stroke-width:0.0000; stroke-opacity:1; 
stroke-linecap:round; stroke-linejoin:round;">
<circle cx="192.8622" cy="55.8800" r="1.6000" /> 
</g>
<g style="fill:#FFFFFF; fill-opacity:1.0000; 
stroke:#FFFFFF; stroke-width:0.0212; stroke-opacity:1; 
stroke-linecap:round; stroke-linejoin:round;">
</g>
<g style="fill:#FFFFFF; fill-opacity:1.0000; 
stroke:#FFFFFF; stroke-width:0.0000; stroke-opacity:1; 
stroke-linecap:round; stroke-linejoin:round;">
<circle cx="149.6822" cy="55.8800" r="1.6000" /> 
</g>
<g style="fill:#FFFFFF; fill-opacity:1.0000; 
stroke:#FFFFFF; stroke-width:0.0212; stroke-opacity:1; 
stroke-linecap:round; stroke-linejoin:round;">
</g>
<g style="fill:#FFFFFF; fill-opacity:1.0000; 
stroke:#FFFFFF; stroke-width:0.0000; stroke-opacity:1; 
stroke-linecap:round; stroke-linejoin:round;">
<circle cx="180.1622" cy="52.0700" r="0.3810" /> 
</g>
<g style="fill:#FFFFFF; fill-opacity:1.0000; 
stroke:#FFFFFF; stroke-width:0.0212; stroke-opacity:1; 
stroke-linecap:round; stroke-linejoin:round;">
</g>
<g style="fill:#FFFFFF; fill-opacity:1.0000; 
stroke:#FFFFFF; stroke-width:0.0000; stroke-opacity:1; 
stroke-linecap:round; stroke-linejoin:round;">
<circle cx="180.1622" cy="54.6100" r="0.3810" /> 
</g>
<g style="fill:#FFFFFF; fill-opacity:1.0000; 
stroke:#FFFFFF; stroke-width:0.0212; stroke-opacity:1; 
stroke-linecap:round; stroke-linejoin:round;">
</g>
<g style="fill:#FFFFFF; fill-opacity:1.0000; 
stroke:#FFFFFF; stroke-width:0.0000; stroke-opacity:1; 
stroke-linecap:round; stroke-linejoin:round;">
<circle cx="180.1622" cy="57.1500" r="0.3810" /> 
</g>
<g style="fill:#FFFFFF; fill-opacity:1.0000; 
stroke:#FFFFFF; stroke-width:0.0212; stroke-opacity:1; 
stroke-linecap:round; stroke-linejoin:round;">
</g>
<g style="fill:#FFFFFF; fill-opacity:1.0000; 
stroke:#FFFFFF; stroke-width:0.0000; stroke-opacity:1; 
stroke-linecap:round; stroke-linejoin:round;">
<circle cx="180.1622" cy="59.6900" r="0.3810" /> 
</g>
<g style="fill:#FFFFFF; fill-opacity:1.0000; 
stroke:#FFFFFF; stroke-width:0.0212; stroke-opacity:1; 
stroke-linecap:round; stroke-linejoin:round;">
</g>
<g style="fill:#FFFFFF; fill-opacity:1.0000; 
stroke:#FFFFFF; stroke-width:0.0000; stroke-opacity:1; 
stroke-linecap:round; stroke-linejoin:round;">
<circle cx="180.1622" cy="62.2300" r="0.3810" /> 
</g>
<g style="fill:#FFFFFF; fill-opacity:1.0000; 
stroke:#FFFFFF; stroke-width:0.0212; stroke-opacity:1; 
stroke-linecap:round; stroke-linejoin:round;">
</g>
<g style="fill:#FFFFFF; fill-opacity:1.0000; 
stroke:#FFFFFF; stroke-width:0.0000; stroke-opacity:1; 
stroke-linecap:round; stroke-linejoin:round;">
<circle cx="180.1622" cy="64.7700" r="0.3810" /> 
</g>
<g style="fill:#FFFFFF; fill-opacity:1.0000; 
stroke:#FFFFFF; stroke-width:0.0212; stroke-opacity:1; 
stroke-linecap:round; stroke-linejoin:round;">
</g>
<g style="fill:#FFFFFF; fill-opacity:1.0000; 
stroke:#FFFFFF; stroke-width:0.0000; stroke-opacity:1; 
stroke-linecap:round; stroke-linejoin:round;">
<circle cx="180.1622" cy="67.3100" r="0.3810" /> 
</g>
<g style="fill:#FFFFFF; fill-opacity:1.0000; 
stroke:#FFFFFF; stroke-width:0.0212; stroke-opacity:1; 
stroke-linecap:round; stroke-linejoin:round;">
</g>
<g style="fill:#FFFFFF; fill-opacity:1.0000; 
stroke:#FFFFFF; stroke-width:0.0000; stroke-opacity:1; 
stroke-linecap:round; stroke-linejoin:round;">
<circle cx="180.1622" cy="69.8500" r="0.3810" /> 
</g>
<g style="fill:#FFFFFF; fill-opacity:1.0000; 
stroke:#FFFFFF; stroke-width:0.0212; stroke-opacity:1; 
stroke-linecap:round; stroke-linejoin:round;">
</g>
<g style="fill:#FFFFFF; fill-opacity:1.0000; 
stroke:#FFFFFF; stroke-width:0.0000; stroke-opacity:1; 
stroke-linecap:round; stroke-linejoin:round;">
<circle cx="180.1622" cy="72.3900" r="0.3810" /> 
</g>
<g style="fill:#FFFFFF; fill-opacity:1.0000; 
stroke:#FFFFFF; stroke-width:0.0212; stroke-opacity:1; 
stroke-linecap:round; stroke-linejoin:round;">
</g>
<g style="fill:#FFFFFF; fill-opacity:1.0000; 
stroke:#FFFFFF; stroke-width:0.0000; stroke-opacity:1; 
stroke-linecap:round; stroke-linejoin:round;">
<circle cx="180.1622" cy="74.9300" r="0.3810" /> 
</g>
<g style="fill:#FFFFFF; fill-opacity:1.0000; 
stroke:#FFFFFF; stroke-width:0.0212; stroke-opacity:1; 
stroke-linecap:round; stroke-linejoin:round;">
</g>
<g style="fill:#FFFFFF; fill-opacity:1.0000; 
stroke:#FFFFFF; stroke-width:0.0000; stroke-opacity:1; 
stroke-linecap:round; stroke-linejoin:round;">
<circle cx="180.1622" cy="77.4700" r="0.3810" /> 
</g>
<g style="fill:#FFFFFF; fill-opacity:1.0000; 
stroke:#FFFFFF; stroke-width:0.0212; stroke-opacity:1; 
stroke-linecap:round; stroke-linejoin:round;">
</g>
<g style="fill:#FFFFFF; fill-opacity:1.0000; 
stroke:#FFFFFF; stroke-width:0.0000; stroke-opacity:1; 
stroke-linecap:round; stroke-linejoin:round;">
<circle cx="180.1622" cy="80.0100" r="0.3810" /> 
</g>
<g style="fill:#FFFFFF; fill-opacity:1.0000; 
stroke:#FFFFFF; stroke-width:0.0212; stroke-opacity:1; 
stroke-linecap:round; stroke-linejoin:round;">
</g>
<g style="fill:#FFFFFF; fill-opacity:1.0000; 
stroke:#FFFFFF; stroke-width:0.0000; stroke-opacity:1; 
stroke-linecap:round; stroke-linejoin:round;">
<circle cx="180.1622" cy="82.5500" r="0.3810" /> 
</g>
<g style="fill:#FFFFFF; fill-opacity:1.0000; 
stroke:#FFFFFF; stroke-width:0.0212; stroke-opacity:1; 
stroke-linecap:round; stroke-linejoin:round;">
</g>
<g style="fill:#FFFFFF; fill-opacity:1.0000; 
stroke:#FFFFFF; stroke-width:0.0000; stroke-opacity:1; 
stroke-linecap:round; stroke-linejoin:round;">
<circle cx="180.1622" cy="85.0900" r="0.3810" /> 
</g>
<g style="fill:#FFFFFF; fill-opacity:1.0000; 
stroke:#FFFFFF; stroke-width:0.0212; stroke-opacity:1; 
stroke-linecap:round; stroke-linejoin:round;">
</g>
<g style="fill:#FFFFFF; fill-opacity:1.0000; 
stroke:#FFFFFF; stroke-width:0.0000; stroke-opacity:1; 
stroke-linecap:round; stroke-linejoin:round;">
<circle cx="180.1622" cy="87.6300" r="0.3810" /> 
</g>
<g style="fill:#FFFFFF; fill-opacity:1.0000; 
stroke:#FFFFFF; stroke-width:0.0212; stroke-opacity:1; 
stroke-linecap:round; stroke-linejoin:round;">
</g>
<g style="fill:#FFFFFF; fill-opacity:1.0000; 
stroke:#FFFFFF; stroke-width:0.0000; stroke-opacity:1; 
stroke-linecap:round; stroke-linejoin:round;">
<circle cx="180.1622" cy="90.1700" r="0.3810" /> 
</g>
<g style="fill:#FFFFFF; fill-opacity:1.0000; 
stroke:#FFFFFF; stroke-width:0.0212; stroke-opacity:1; 
stroke-linecap:round; stroke-linejoin:round;">
</g>
<g style="fill:#FFFFFF; fill-opacity:1.0000; 
stroke:#FFFFFF; stroke-width:0.0000; stroke-opacity:1; 
stroke-linecap:round; stroke-linejoin:round;">
<circle cx="180.1622" cy="92.7100" r="0.3810" /> 
</g>
<g style="fill:#FFFFFF; fill-opacity:1.0000; 
stroke:#FFFFFF; stroke-width:0.0212; stroke-opacity:1; 
stroke-linecap:round; stroke-linejoin:round;">
</g>
<g style="fill:#FFFFFF; fill-opacity:1.0000; 
stroke:#FFFFFF; stroke-width:0.0000; stroke-opacity:1; 
stroke-linecap:round; stroke-linejoin:round;">
<circle cx="180.1622" cy="95.2500" r="0.3810" /> 
</g>
<g style="fill:#FFFFFF; fill-opacity:1.0000; 
stroke:#FFFFFF; stroke-width:0.0212; stroke-opacity:1; 
stroke-linecap:round; stroke-linejoin:round;">
</g>
<g style="fill:#FFFFFF; fill-opacity:1.0000; 
stroke:#FFFFFF; stroke-width:0.0000; stroke-opacity:1; 
stroke-linecap:round; stroke-linejoin:round;">
<circle cx="180.1622" cy="97.7900" r="0.3810" /> 
</g>
<g style="fill:#FFFFFF; fill-opacity:1.0000; 
stroke:#FFFFFF; stroke-width:0.0212; stroke-opacity:1; 
stroke-linecap:round; stroke-linejoin:round;">
</g>
<g style="fill:#FFFFFF; fill-opacity:1.0000; 
stroke:#FFFFFF; stroke-width:0.0000; stroke-opacity:1; 
stroke-linecap:round; stroke-linejoin:round;">
<circle cx="180.1622" cy="100.3300" r="0.3810" /> 
</g>
<g style="fill:#FFFFFF; fill-opacity:1.0000; 
stroke:#FFFFFF; stroke-width:0.0212; stroke-opacity:1; 
stroke-linecap:round; stroke-linejoin:round;">
</g>
<g style="fill:#FFFFFF; fill-opacity:1.0000; 
stroke:#FFFFFF; stroke-width:0.0000; stroke-opacity:1; 
stroke-linecap:round; stroke-linejoin:round;">
<circle cx="162.3822" cy="52.0700" r="0.3810" /> 
</g>
<g style="fill:#FFFFFF; fill-opacity:1.0000; 
stroke:#FFFFFF; stroke-width:0.0212; stroke-opacity:1; 
stroke-linecap:round; stroke-linejoin:round;">
</g>
<g style="fill:#FFFFFF; fill-opacity:1.0000; 
stroke:#FFFFFF; stroke-width:0.0000; stroke-opacity:1; 
stroke-linecap:round; stroke-linejoin:round;">
<circle cx="162.3822" cy="54.6100" r="0.3810" /> 
</g>
<g style="fill:#FFFFFF; fill-opacity:1.0000; 
stroke:#FFFFFF; stroke-width:0.0212; stroke-opacity:1; 
stroke-linecap:round; stroke-linejoin:round;">
</g>
<g style="fill:#FFFFFF; fill-opacity:1.0000; 
stroke:#FFFFFF; stroke-width:0.0000; stroke-opacity:1; 
stroke-linecap:round; stroke-linejoin:round;">
<circle cx="162.3822" cy="57.1500" r="0.3810" /> 
</g>
<g style="fill:#FFFFFF; fill-opacity:1.0000; 
stroke:#FFFFFF; stroke-width:0.0212; stroke-opacity:1; 
stroke-linecap:round; stroke-linejoin:round;">
</g>
<g style="fill:#FFFFFF; fill-opacity:1.0000; 
stroke:#FFFFFF; stroke-width:0.0000; stroke-opacity:1; 
stroke-linecap:round; stroke-linejoin:round;">
<circle cx="162.3822" cy="59.6900" r="0.3810" /> 
</g>
<g style="fill:#FFFFFF; fill-opacity:1.0000; 
stroke:#FFFFFF; stroke-width:0.0212; stroke-opacity:1; 
stroke-linecap:round; stroke-linejoin:round;">
</g>
<g style="fill:#FFFFFF; fill-opacity:1.0000; 
stroke:#FFFFFF; stroke-width:0.0000; stroke-opacity:1; 
stroke-linecap:round; stroke-linejoin:round;">
<circle cx="162.3822" cy="62.2300" r="0.3810" /> 
</g>
<g style="fill:#FFFFFF; fill-opacity:1.0000; 
stroke:#FFFFFF; stroke-width:0.0212; stroke-opacity:1; 
stroke-linecap:round; stroke-linejoin:round;">
</g>
<g style="fill:#FFFFFF; fill-opacity:1.0000; 
stroke:#FFFFFF; stroke-width:0.0000; stroke-opacity:1; 
stroke-linecap:round; stroke-linejoin:round;">
<circle cx="162.3822" cy="64.7700" r="0.3810" /> 
</g>
<g style="fill:#FFFFFF; fill-opacity:1.0000; 
stroke:#FFFFFF; stroke-width:0.0212; stroke-opacity:1; 
stroke-linecap:round; stroke-linejoin:round;">
</g>
<g style="fill:#FFFFFF; fill-opacity:1.0000; 
stroke:#FFFFFF; stroke-width:0.0000; stroke-opacity:1; 
stroke-linecap:round; stroke-linejoin:round;">
<circle cx="162.3822" cy="67.3100" r="0.3810" /> 
</g>
<g style="fill:#FFFFFF; fill-opacity:1.0000; 
stroke:#FFFFFF; stroke-width:0.0212; stroke-opacity:1; 
stroke-linecap:round; stroke-linejoin:round;">
</g>
<g style="fill:#FFFFFF; fill-opacity:1.0000; 
stroke:#FFFFFF; stroke-width:0.0000; stroke-opacity:1; 
stroke-linecap:round; stroke-linejoin:round;">
<circle cx="162.3822" cy="69.8500" r="0.3810" /> 
</g>
<g style="fill:#FFFFFF; fill-opacity:1.0000; 
stroke:#FFFFFF; stroke-width:0.0212; stroke-opacity:1; 
stroke-linecap:round; stroke-linejoin:round;">
</g>
<g style="fill:#FFFFFF; fill-opacity:1.0000; 
stroke:#FFFFFF; stroke-width:0.0000; stroke-opacity:1; 
stroke-linecap:round; stroke-linejoin:round;">
<circle cx="162.3822" cy="72.3900" r="0.3810" /> 
</g>
<g style="fill:#FFFFFF; fill-opacity:1.0000; 
stroke:#FFFFFF; stroke-width:0.0212; stroke-opacity:1; 
stroke-linecap:round; stroke-linejoin:round;">
</g>
<g style="fill:#FFFFFF; fill-opacity:1.0000; 
stroke:#FFFFFF; stroke-width:0.0000; stroke-opacity:1; 
stroke-linecap:round; stroke-linejoin:round;">
<circle cx="162.3822" cy="74.9300" r="0.3810" /> 
</g>
<g style="fill:#FFFFFF; fill-opacity:1.0000; 
stroke:#FFFFFF; stroke-width:0.0212; stroke-opacity:1; 
stroke-linecap:round; stroke-linejoin:round;">
</g>
<g style="fill:#FFFFFF; fill-opacity:1.0000; 
stroke:#FFFFFF; stroke-width:0.0000; stroke-opacity:1; 
stroke-linecap:round; stroke-linejoin:round;">
<circle cx="162.3822" cy="77.4700" r="0.3810" /> 
</g>
<g style="fill:#FFFFFF; fill-opacity:1.0000; 
stroke:#FFFFFF; stroke-width:0.0212; stroke-opacity:1; 
stroke-linecap:round; stroke-linejoin:round;">
</g>
<g style="fill:#FFFFFF; fill-opacity:1.0000; 
stroke:#FFFFFF; stroke-width:0.0000; stroke-opacity:1; 
stroke-linecap:round; stroke-linejoin:round;">
<circle cx="162.3822" cy="80.0100" r="0.3810" /> 
</g>
<g style="fill:#FFFFFF; fill-opacity:1.0000; 
stroke:#FFFFFF; stroke-width:0.0212; stroke-opacity:1; 
stroke-linecap:round; stroke-linejoin:round;">
</g>
<g style="fill:#FFFFFF; fill-opacity:1.0000; 
stroke:#FFFFFF; stroke-width:0.0000; stroke-opacity:1; 
stroke-linecap:round; stroke-linejoin:round;">
<circle cx="162.3822" cy="82.5500" r="0.3810" /> 
</g>
<g style="fill:#FFFFFF; fill-opacity:1.0000; 
stroke:#FFFFFF; stroke-width:0.0212; stroke-opacity:1; 
stroke-linecap:round; stroke-linejoin:round;">
</g>
<g style="fill:#FFFFFF; fill-opacity:1.0000; 
stroke:#FFFFFF; stroke-width:0.0000; stroke-opacity:1; 
stroke-linecap:round; stroke-linejoin:round;">
<circle cx="162.3822" cy="85.0900" r="0.3810" /> 
</g>
<g style="fill:#FFFFFF; fill-opacity:1.0000; 
stroke:#FFFFFF; stroke-width:0.0212; stroke-opacity:1; 
stroke-linecap:round; stroke-linejoin:round;">
</g>
<g style="fill:#FFFFFF; fill-opacity:1.0000; 
stroke:#FFFFFF; stroke-width:0.0000; stroke-opacity:1; 
stroke-linecap:round; stroke-linejoin:round;">
<circle cx="162.3822" cy="87.6300" r="0.3810" /> 
</g>
<g style="fill:#FFFFFF; fill-opacity:1.0000; 
stroke:#FFFFFF; stroke-width:0.0212; stroke-opacity:1; 
stroke-linecap:round; stroke-linejoin:round;">
</g>
<g style="fill:#FFFFFF; fill-opacity:1.0000; 
stroke:#FFFFFF; stroke-width:0.0000; stroke-opacity:1; 
stroke-linecap:round; stroke-linejoin:round;">
<circle cx="162.3822" cy="90.1700" r="0.3810" /> 
</g>
<g style="fill:#FFFFFF; fill-opacity:1.0000; 
stroke:#FFFFFF; stroke-width:0.0212; stroke-opacity:1; 
stroke-linecap:round; stroke-linejoin:round;">
</g>
<g style="fill:#FFFFFF; fill-opacity:1.0000; 
stroke:#FFFFFF; stroke-width:0.0000; stroke-opacity:1; 
stroke-linecap:round; stroke-linejoin:round;">
<circle cx="162.3822" cy="92.7100" r="0.3810" /> 
</g>
<g style="fill:#FFFFFF; fill-opacity:1.0000; 
stroke:#FFFFFF; stroke-width:0.0212; stroke-opacity:1; 
stroke-linecap:round; stroke-linejoin:round;">
</g>
<g style="fill:#FFFFFF; fill-opacity:1.0000; 
stroke:#FFFFFF; stroke-width:0.0000; stroke-opacity:1; 
stroke-linecap:round; stroke-linejoin:round;">
<circle cx="162.3822" cy="95.2500" r="0.3810" /> 
</g>
<g style="fill:#FFFFFF; fill-opacity:1.0000; 
stroke:#FFFFFF; stroke-width:0.0212; stroke-opacity:1; 
stroke-linecap:round; stroke-linejoin:round;">
</g>
<g style="fill:#FFFFFF; fill-opacity:1.0000; 
stroke:#FFFFFF; stroke-width:0.0000; stroke-opacity:1; 
stroke-linecap:round; stroke-linejoin:round;">
<circle cx="162.3822" cy="97.7900" r="0.3810" /> 
</g>
<g style="fill:#FFFFFF; fill-opacity:1.0000; 
stroke:#FFFFFF; stroke-width:0.0212; stroke-opacity:1; 
stroke-linecap:round; stroke-linejoin:round;">
</g>
<g style="fill:#FFFFFF; fill-opacity:1.0000; 
stroke:#FFFFFF; stroke-width:0.0000; stroke-opacity:1; 
stroke-linecap:round; stroke-linejoin:round;">
<circle cx="162.3822" cy="100.3300" r="0.3810" /> 
</g>
<g style="fill:#FFFFFF; fill-opacity:1.0000; 
stroke:#FFFFFF; stroke-width:0.0212; stroke-opacity:1; 
stroke-linecap:round; stroke-linejoin:round;">
</g>
<g style="fill:#000000; fill-opacity:1.0000; 
stroke:#000000; stroke-width:0.0212; stroke-opacity:1; 
stroke-linecap:round; stroke-linejoin:round;">
</g> 
</svg>
