<?xml version="1.0" standalone="no"?>
 <!DOCTYPE svg PUBLIC "-//W3C//DTD SVG 1.1//EN" 
 "http://www.w3.org/Graphics/SVG/1.1/DTD/svg11.dtd"> 
<svg
  xmlns:svg="http://www.w3.org/2000/svg"
  xmlns="http://www.w3.org/2000/svg"
  xmlns:xlink="http://www.w3.org/1999/xlink"
  version="1.1"
  width="297.0022mm" height="210.0072mm" viewBox="0.0000 0.0000 297.0022 210.0072">
<title>SVG Image created as wirebug-F_Silkscreen.svg date 2024/01/08 08:21:42 </title>
  <desc>Image generated by PCBNEW </desc>
<g style="fill:#000000; fill-opacity:1.0000;stroke:#000000; stroke-opacity:1.0000;
stroke-linecap:round; stroke-linejoin:round;"
 transform="translate(0 0) scale(1 1)">
</g>
<g style="fill:#000000; fill-opacity:0.0; 
stroke:#000000; stroke-width:0.0000; stroke-opacity:1; 
stroke-linecap:round; stroke-linejoin:round;">
</g>
<g style="fill:#000000; fill-opacity:0.0; 
stroke:#000000; stroke-width:0.1500; stroke-opacity:1; 
stroke-linecap:round; stroke-linejoin:round;">
<text x="114.0460" y="58.9200"
textLength="1.9643" font-size="1.3333" lengthAdjust="spacingAndGlyphs"
text-anchor="middle" opacity="0">J3</text>
<g class="stroked-text"><desc>J3</desc>
<path d="M113.7127 57.8748
L113.7127 58.5891
" />
<path d="M113.7127 58.5891
L113.6650 58.7320
" />
<path d="M113.6650 58.7320
L113.5698 58.8272
" />
<path d="M113.5698 58.8272
L113.4270 58.8748
" />
<path d="M113.4270 58.8748
L113.3317 58.8748
" />
<path d="M114.0936 57.8748
L114.7127 57.8748
" />
<path d="M114.7127 57.8748
L114.3793 58.2558
" />
<path d="M114.3793 58.2558
L114.5222 58.2558
" />
<path d="M114.5222 58.2558
L114.6174 58.3034
" />
<path d="M114.6174 58.3034
L114.6650 58.3510
" />
<path d="M114.6650 58.3510
L114.7127 58.4462
" />
<path d="M114.7127 58.4462
L114.7127 58.6843
" />
<path d="M114.7127 58.6843
L114.6650 58.7796
" />
<path d="M114.6650 58.7796
L114.6174 58.8272
" />
<path d="M114.6174 58.8272
L114.5222 58.8748
" />
<path d="M114.5222 58.8748
L114.2365 58.8748
" />
<path d="M114.2365 58.8748
L114.1412 58.8272
" />
<path d="M114.1412 58.8272
L114.0936 58.7796
" />
</g><text x="115.3160" y="73.6520"
textLength="2.2024" font-size="1.3333" lengthAdjust="spacingAndGlyphs"
text-anchor="middle" opacity="0">R2</text>
<g class="stroked-text"><desc>R2</desc>
<path d="M115.1493 73.6068
L114.8160 73.1306
" />
<path d="M114.5779 73.6068
L114.5779 72.6068
" />
<path d="M114.5779 72.6068
L114.9589 72.6068
" />
<path d="M114.9589 72.6068
L115.0541 72.6544
" />
<path d="M115.0541 72.6544
L115.1017 72.7021
" />
<path d="M115.1017 72.7021
L115.1493 72.7973
" />
<path d="M115.1493 72.7973
L115.1493 72.9402
" />
<path d="M115.1493 72.9402
L115.1017 73.0354
" />
<path d="M115.1017 73.0354
L115.0541 73.0830
" />
<path d="M115.0541 73.0830
L114.9589 73.1306
" />
<path d="M114.9589 73.1306
L114.5779 73.1306
" />
<path d="M115.5303 72.7021
L115.5779 72.6544
" />
<path d="M115.5779 72.6544
L115.6731 72.6068
" />
<path d="M115.6731 72.6068
L115.9112 72.6068
" />
<path d="M115.9112 72.6068
L116.0065 72.6544
" />
<path d="M116.0065 72.6544
L116.0541 72.7021
" />
<path d="M116.0541 72.7021
L116.1017 72.7973
" />
<path d="M116.1017 72.7973
L116.1017 72.8925
" />
<path d="M116.1017 72.8925
L116.0541 73.0354
" />
<path d="M116.0541 73.0354
L115.4827 73.6068
" />
<path d="M115.4827 73.6068
L116.1017 73.6068
" />
</g><text x="125.6030" y="105.9010"
textLength="4.5357" font-size="1.3333" lengthAdjust="spacingAndGlyphs"
text-anchor="middle" opacity="0">REF**</text>
<g class="stroked-text"><desc>REF**</desc>
<path d="M124.2697 105.8558
L123.9363 105.3796
" />
<path d="M123.6982 105.8558
L123.6982 104.8558
" />
<path d="M123.6982 104.8558
L124.0792 104.8558
" />
<path d="M124.0792 104.8558
L124.1744 104.9034
" />
<path d="M124.1744 104.9034
L124.2220 104.9511
" />
<path d="M124.2220 104.9511
L124.2697 105.0463
" />
<path d="M124.2697 105.0463
L124.2697 105.1892
" />
<path d="M124.2697 105.1892
L124.2220 105.2844
" />
<path d="M124.2220 105.2844
L124.1744 105.3320
" />
<path d="M124.1744 105.3320
L124.0792 105.3796
" />
<path d="M124.0792 105.3796
L123.6982 105.3796
" />
<path d="M124.6982 105.3320
L125.0316 105.3320
" />
<path d="M125.1744 105.8558
L124.6982 105.8558
" />
<path d="M124.6982 105.8558
L124.6982 104.8558
" />
<path d="M124.6982 104.8558
L125.1744 104.8558
" />
<path d="M125.9363 105.3320
L125.6030 105.3320
" />
<path d="M125.6030 105.8558
L125.6030 104.8558
" />
<path d="M125.6030 104.8558
L126.0792 104.8558
" />
<path d="M126.6030 104.8558
L126.6030 105.0939
" />
<path d="M126.3649 104.9987
L126.6030 105.0939
" />
<path d="M126.6030 105.0939
L126.8411 104.9987
" />
<path d="M126.4601 105.2844
L126.6030 105.0939
" />
<path d="M126.6030 105.0939
L126.7459 105.2844
" />
<path d="M127.3649 104.8558
L127.3649 105.0939
" />
<path d="M127.1268 104.9987
L127.3649 105.0939
" />
<path d="M127.3649 105.0939
L127.6030 104.9987
" />
<path d="M127.2220 105.2844
L127.3649 105.0939
" />
<path d="M127.3649 105.0939
L127.5078 105.2844
" />
</g><text x="109.4740" y="73.6950"
textLength="2.2024" font-size="1.3333" lengthAdjust="spacingAndGlyphs"
text-anchor="middle" opacity="0">R1</text>
<g class="stroked-text"><desc>R1</desc>
<path d="M109.3073 73.6498
L108.9740 73.1736
" />
<path d="M108.7359 73.6498
L108.7359 72.6498
" />
<path d="M108.7359 72.6498
L109.1169 72.6498
" />
<path d="M109.1169 72.6498
L109.2121 72.6974
" />
<path d="M109.2121 72.6974
L109.2597 72.7451
" />
<path d="M109.2597 72.7451
L109.3073 72.8403
" />
<path d="M109.3073 72.8403
L109.3073 72.9832
" />
<path d="M109.3073 72.9832
L109.2597 73.0784
" />
<path d="M109.2597 73.0784
L109.2121 73.1260
" />
<path d="M109.2121 73.1260
L109.1169 73.1736
" />
<path d="M109.1169 73.1736
L108.7359 73.1736
" />
<path d="M110.2597 73.6498
L109.6883 73.6498
" />
<path d="M109.9740 73.6498
L109.9740 72.6498
" />
<path d="M109.9740 72.6498
L109.8788 72.7927
" />
<path d="M109.8788 72.7927
L109.7835 72.8879
" />
<path d="M109.7835 72.8879
L109.6883 72.9355
" />
</g><g transform="rotate(-90.000000 121.4160 80.2640)">
<text x="121.4160" y="80.7640"
textLength="2.2500" font-size="1.3333" lengthAdjust="spacingAndGlyphs"
text-anchor="middle" opacity="0">Q2</text>
</g>
<g class="stroked-text"><desc>Q2</desc>
<path d="M121.9661 80.3592
L121.9184 80.4545
" />
<path d="M121.9184 80.4545
L121.8232 80.5497
" />
<path d="M121.8232 80.5497
L121.6803 80.6926
" />
<path d="M121.6803 80.6926
L121.6327 80.7878
" />
<path d="M121.6327 80.7878
L121.6327 80.8830
" />
<path d="M121.8708 80.8354
L121.8232 80.9307
" />
<path d="M121.8232 80.9307
L121.7280 81.0259
" />
<path d="M121.7280 81.0259
L121.5375 81.0735
" />
<path d="M121.5375 81.0735
L121.2042 81.0735
" />
<path d="M121.2042 81.0735
L121.0137 81.0259
" />
<path d="M121.0137 81.0259
L120.9184 80.9307
" />
<path d="M120.9184 80.9307
L120.8708 80.8354
" />
<path d="M120.8708 80.8354
L120.8708 80.6450
" />
<path d="M120.8708 80.6450
L120.9184 80.5497
" />
<path d="M120.9184 80.5497
L121.0137 80.4545
" />
<path d="M121.0137 80.4545
L121.2042 80.4069
" />
<path d="M121.2042 80.4069
L121.5375 80.4069
" />
<path d="M121.5375 80.4069
L121.7280 80.4545
" />
<path d="M121.7280 80.4545
L121.8232 80.5497
" />
<path d="M121.8232 80.5497
L121.8708 80.6450
" />
<path d="M121.8708 80.6450
L121.8708 80.8354
" />
<path d="M120.9661 80.0259
L120.9184 79.9783
" />
<path d="M120.9184 79.9783
L120.8708 79.8830
" />
<path d="M120.8708 79.8830
L120.8708 79.6450
" />
<path d="M120.8708 79.6450
L120.9184 79.5497
" />
<path d="M120.9184 79.5497
L120.9661 79.5021
" />
<path d="M120.9661 79.5021
L121.0613 79.4545
" />
<path d="M121.0613 79.4545
L121.1565 79.4545
" />
<path d="M121.1565 79.4545
L121.2994 79.5021
" />
<path d="M121.2994 79.5021
L121.8708 80.0735
" />
<path d="M121.8708 80.0735
L121.8708 79.4545
" />
</g><g transform="rotate(-90.000000 109.8870 66.7070)">
<text x="109.8870" y="67.2070"
textLength="3.1548" font-size="1.3333" lengthAdjust="spacingAndGlyphs"
text-anchor="middle" opacity="0">PS1</text>
</g>
<g class="stroked-text"><desc>PS1</desc>
<path d="M110.3418 67.9213
L109.3418 67.9213
" />
<path d="M109.3418 67.9213
L109.3418 67.5403
" />
<path d="M109.3418 67.5403
L109.3894 67.4451
" />
<path d="M109.3894 67.4451
L109.4371 67.3975
" />
<path d="M109.4371 67.3975
L109.5323 67.3499
" />
<path d="M109.5323 67.3499
L109.6752 67.3499
" />
<path d="M109.6752 67.3499
L109.7704 67.3975
" />
<path d="M109.7704 67.3975
L109.8180 67.4451
" />
<path d="M109.8180 67.4451
L109.8656 67.5403
" />
<path d="M109.8656 67.5403
L109.8656 67.9213
" />
<path d="M110.2942 66.9689
L110.3418 66.8260
" />
<path d="M110.3418 66.8260
L110.3418 66.5880
" />
<path d="M110.3418 66.5880
L110.2942 66.4927
" />
<path d="M110.2942 66.4927
L110.2466 66.4451
" />
<path d="M110.2466 66.4451
L110.1513 66.3975
" />
<path d="M110.1513 66.3975
L110.0561 66.3975
" />
<path d="M110.0561 66.3975
L109.9609 66.4451
" />
<path d="M109.9609 66.4451
L109.9132 66.4927
" />
<path d="M109.9132 66.4927
L109.8656 66.5880
" />
<path d="M109.8656 66.5880
L109.8180 66.7784
" />
<path d="M109.8180 66.7784
L109.7704 66.8737
" />
<path d="M109.7704 66.8737
L109.7228 66.9213
" />
<path d="M109.7228 66.9213
L109.6275 66.9689
" />
<path d="M109.6275 66.9689
L109.5323 66.9689
" />
<path d="M109.5323 66.9689
L109.4371 66.9213
" />
<path d="M109.4371 66.9213
L109.3894 66.8737
" />
<path d="M109.3894 66.8737
L109.3418 66.7784
" />
<path d="M109.3418 66.7784
L109.3418 66.5403
" />
<path d="M109.3418 66.5403
L109.3894 66.3975
" />
<path d="M110.3418 65.4451
L110.3418 66.0165
" />
<path d="M110.3418 65.7308
L109.3418 65.7308
" />
<path d="M109.3418 65.7308
L109.4847 65.8260
" />
<path d="M109.4847 65.8260
L109.5799 65.9213
" />
<path d="M109.5799 65.9213
L109.6275 66.0165
" />
</g><g transform="rotate(-90.000000 114.4520 80.2640)">
<text x="114.4520" y="80.7640"
textLength="2.2500" font-size="1.3333" lengthAdjust="spacingAndGlyphs"
text-anchor="middle" opacity="0">Q1</text>
</g>
<g class="stroked-text"><desc>Q1</desc>
<path d="M115.0021 80.3592
L114.9544 80.4545
" />
<path d="M114.9544 80.4545
L114.8592 80.5497
" />
<path d="M114.8592 80.5497
L114.7163 80.6926
" />
<path d="M114.7163 80.6926
L114.6687 80.7878
" />
<path d="M114.6687 80.7878
L114.6687 80.8830
" />
<path d="M114.9068 80.8354
L114.8592 80.9307
" />
<path d="M114.8592 80.9307
L114.7640 81.0259
" />
<path d="M114.7640 81.0259
L114.5735 81.0735
" />
<path d="M114.5735 81.0735
L114.2402 81.0735
" />
<path d="M114.2402 81.0735
L114.0497 81.0259
" />
<path d="M114.0497 81.0259
L113.9544 80.9307
" />
<path d="M113.9544 80.9307
L113.9068 80.8354
" />
<path d="M113.9068 80.8354
L113.9068 80.6450
" />
<path d="M113.9068 80.6450
L113.9544 80.5497
" />
<path d="M113.9544 80.5497
L114.0497 80.4545
" />
<path d="M114.0497 80.4545
L114.2402 80.4069
" />
<path d="M114.2402 80.4069
L114.5735 80.4069
" />
<path d="M114.5735 80.4069
L114.7640 80.4545
" />
<path d="M114.7640 80.4545
L114.8592 80.5497
" />
<path d="M114.8592 80.5497
L114.9068 80.6450
" />
<path d="M114.9068 80.6450
L114.9068 80.8354
" />
<path d="M114.9068 79.4545
L114.9068 80.0259
" />
<path d="M114.9068 79.7402
L113.9068 79.7402
" />
<path d="M113.9068 79.7402
L114.0497 79.8354
" />
<path d="M114.0497 79.8354
L114.1449 79.9307
" />
<path d="M114.1449 79.9307
L114.1925 80.0259
" />
</g><text x="114.9350" y="93.9720"
textLength="2.2024" font-size="1.3333" lengthAdjust="spacingAndGlyphs"
text-anchor="middle" opacity="0">K1</text>
<g class="stroked-text"><desc>K1</desc>
<path d="M114.1969 93.9268
L114.1969 92.9268
" />
<path d="M114.7683 93.9268
L114.3398 93.3554
" />
<path d="M114.7683 92.9268
L114.1969 93.4982
" />
<path d="M115.7207 93.9268
L115.1493 93.9268
" />
<path d="M115.4350 93.9268
L115.4350 92.9268
" />
<path d="M115.4350 92.9268
L115.3398 93.0697
" />
<path d="M115.3398 93.0697
L115.2445 93.1649
" />
<path d="M115.2445 93.1649
L115.1493 93.2125
" />
</g><g transform="rotate(-90.000000 133.3700 109.7330)">
<text x="133.3700" y="110.2330"
textLength="1.9643" font-size="1.3333" lengthAdjust="spacingAndGlyphs"
text-anchor="middle" opacity="0">J1</text>
</g>
<g class="stroked-text"><desc>J1</desc>
<path d="M132.8248 110.0663
L133.5391 110.0663
" />
<path d="M133.5391 110.0663
L133.6820 110.1140
" />
<path d="M133.6820 110.1140
L133.7772 110.2092
" />
<path d="M133.7772 110.2092
L133.8248 110.3520
" />
<path d="M133.8248 110.3520
L133.8248 110.4473
" />
<path d="M133.8248 109.0663
L133.8248 109.6378
" />
<path d="M133.8248 109.3520
L132.8248 109.3520
" />
<path d="M132.8248 109.3520
L132.9677 109.4473
" />
<path d="M132.9677 109.4473
L133.0629 109.5425
" />
<path d="M133.0629 109.5425
L133.1105 109.6378
" />
</g><text x="132.5880" y="71.8740"
textLength="2.0595" font-size="1.3333" lengthAdjust="spacingAndGlyphs"
text-anchor="middle" opacity="0">A1</text>
<g class="stroked-text"><desc>A1</desc>
<path d="M131.8737 71.5431
L132.3499 71.5431
" />
<path d="M131.7785 71.8288
L132.1118 70.8288
" />
<path d="M132.1118 70.8288
L132.4451 71.8288
" />
<path d="M133.3023 71.8288
L132.7309 71.8288
" />
<path d="M133.0166 71.8288
L133.0166 70.8288
" />
<path d="M133.0166 70.8288
L132.9213 70.9717
" />
<path d="M132.9213 70.9717
L132.8261 71.0669
" />
<path d="M132.8261 71.0669
L132.7309 71.1145
" />
</g><g transform="rotate(-90.000000 118.0900 109.9770)">
<text x="118.0900" y="110.4770"
textLength="1.9643" font-size="1.3333" lengthAdjust="spacingAndGlyphs"
text-anchor="middle" opacity="0">J2</text>
</g>
<g class="stroked-text"><desc>J2</desc>
<path d="M117.5448 110.3103
L118.2591 110.3103
" />
<path d="M118.2591 110.3103
L118.4020 110.3580
" />
<path d="M118.4020 110.3580
L118.4972 110.4532
" />
<path d="M118.4972 110.4532
L118.5448 110.5960
" />
<path d="M118.5448 110.5960
L118.5448 110.6913
" />
<path d="M117.6401 109.8818
L117.5924 109.8341
" />
<path d="M117.5924 109.8341
L117.5448 109.7389
" />
<path d="M117.5448 109.7389
L117.5448 109.5008
" />
<path d="M117.5448 109.5008
L117.5924 109.4056
" />
<path d="M117.5924 109.4056
L117.6401 109.3580
" />
<path d="M117.6401 109.3580
L117.7353 109.3103
" />
<path d="M117.7353 109.3103
L117.8305 109.3103
" />
<path d="M117.8305 109.3103
L117.9734 109.3580
" />
<path d="M117.9734 109.3580
L118.5448 109.9294
" />
<path d="M118.5448 109.9294
L118.5448 109.3103
" />
</g></g>
<g style="fill:#000000; fill-opacity:0.0; 
stroke:#000000; stroke-width:0.1200; stroke-opacity:1; 
stroke-linecap:round; stroke-linejoin:round;">
<path d="M119.4310 53.3120
L119.4310 51.0720
" />
<path d="M119.4310 51.0720
L117.4310 51.0720
" />
<path d="M119.1910 59.4320
L119.1910 51.3120
" />
<path d="M119.1910 59.4320
L108.9110 59.4320
" />
<path d="M119.1910 57.3720
L108.9110 57.3720
" />
<path d="M119.1910 53.3720
L108.9110 53.3720
" />
<path d="M119.1910 51.3120
L108.9110 51.3120
" />
<path d="M112.6910 54.3960
L112.7850 54.3030
" />
<path d="M112.5210 54.1560
L112.5800 54.0980
" />
<path d="M110.4410 56.6470
L110.5000 56.5880
" />
<path d="M110.2360 56.4410
L110.3300 56.3480
" />
<path d="M108.9110 59.4320
L108.9110 51.3120
" />
<path d="M118.0750 56.1610 A1.6807 1.6807 0.0 0 0 118.0750 54.5829" />
<path d="M115.8020 56.8560 A1.6807 1.6807 0.0 0 0 117.3801 56.8560" />
<path d="M117.3800 53.8880 A1.6807 1.6807 0.0 0 0 116.5616 53.6915" />
<path d="M116.5910 53.6920 A1.6800 1.6800 0.0 0 0 115.8023 53.8886" />
<path d="M115.1070 54.5830 A1.6807 1.6807 0.0 0 0 115.1070 56.1611" />
<circle cx="111.5110" cy="55.3720" r="1.6800" /> 
<path d="M118.5140 75.5650
L118.5840 75.5650
" />
<circle cx="117.1440" cy="75.5650" r="1.3700" /> 
<path d="M111.6560 75.5650
L111.7260 75.5650
" />
<circle cx="110.2860" cy="75.5650" r="1.3700" /> 
<path d="M116.0060 78.4640
L116.0060 82.0640
" />
<path d="M120.4560 80.2640 A2.6000 2.6000 0.0 0 0 116.0175 78.4255" />
<path d="M116.0175 82.1025 A2.6000 2.6000 0.0 0 0 120.4560 80.2640" />
<path d="M121.3170 71.8270
L121.3170 61.6270
" />
<path d="M108.6170 71.7870
L121.3170 71.7870
" />
<path d="M108.6170 61.6270
L108.6170 71.7870
" />
<path d="M121.3170 61.6270
L108.6170 61.6270
" />
<path d="M109.0420 78.4640
L109.0420 82.0640
" />
<path d="M113.4920 80.2640 A2.6000 2.6000 0.0 0 0 109.0535 78.4255" />
<path d="M109.0535 82.1025 A2.6000 2.6000 0.0 0 0 113.4920 80.2640" />
</g>
<g style="fill:#000000; fill-opacity:0.0; 
stroke:#000000; stroke-width:0.1524; stroke-opacity:1; 
stroke-linecap:round; stroke-linejoin:round;">
<path d="M108.5596 83.3501
L108.5596 103.5939
" />
<path d="M108.5596 103.5939
L121.3104 103.5939
" />
<path d="M121.3104 83.3501
L108.5596 83.3501
" />
<path d="M121.3104 103.5939
L121.3104 83.3501
" />
</g>
<g style="fill:#000000; fill-opacity:0.0; 
stroke:#000000; stroke-width:0.1200; stroke-opacity:1; 
stroke-linecap:round; stroke-linejoin:round;">
<path d="M140.4900 115.1130
L142.7300 115.1130
" />
<path d="M142.7300 115.1130
L142.7300 113.1130
" />
<path d="M134.3700 114.8730
L142.4900 114.8730
" />
<path d="M134.3700 114.8730
L134.3700 104.5930
" />
<path d="M136.4300 114.8730
L136.4300 104.5930
" />
<path d="M140.4300 114.8730
L140.4300 104.5930
" />
<path d="M142.4900 114.8730
L142.4900 104.5930
" />
<path d="M139.4060 108.3730
L139.4990 108.4670
" />
<path d="M139.6460 108.2030
L139.7040 108.2620
" />
<path d="M137.1550 106.1230
L137.2140 106.1820
" />
<path d="M137.3610 105.9180
L137.4540 106.0120
" />
<path d="M134.3700 104.5930
L142.4900 104.5930
" />
<path d="M137.6410 113.7570 A1.6807 1.6807 0.0 0 0 139.2191 113.7570" />
<path d="M136.9460 111.4840 A1.6807 1.6807 0.0 0 0 136.9460 113.0621" />
<path d="M139.9140 113.0620 A1.6807 1.6807 0.0 0 0 140.1104 112.2436" />
<path d="M140.1100 112.2730 A1.6800 1.6800 0.0 0 0 139.9134 111.4843" />
<path d="M139.2190 110.7890 A1.6807 1.6807 0.0 0 0 137.6409 110.7890" />
<circle cx="138.4300" cy="107.1930" r="1.6800" /> 
<path d="M122.0880 50.9540
L122.0880 51.2540
" />
<path d="M122.0880 50.9540
L143.0880 50.9540
" />
<path d="M122.0880 53.3540
L122.0880 53.7540
" />
<path d="M122.0880 53.6210
L125.0950 53.6210
" />
<path d="M122.0880 55.9540
L122.0880 56.3540
" />
<path d="M122.0880 58.4540
L122.0880 58.8540
" />
<path d="M122.0880 61.0540
L122.0880 61.4540
" />
<path d="M122.0880 63.5540
L122.0880 63.9540
" />
<path d="M122.0880 66.0540
L122.0880 66.4540
" />
<path d="M122.0880 68.6540
L122.0880 69.0540
" />
<path d="M122.0880 71.1540
L122.0880 71.5540
" />
<path d="M122.0880 73.7540
L122.0880 74.1540
" />
<path d="M122.0880 76.2540
L122.0880 76.6540
" />
<path d="M122.0880 78.7540
L122.0880 79.1540
" />
<path d="M122.0880 81.3540
L122.0880 81.7540
" />
<path d="M122.0880 83.8540
L122.0880 84.2540
" />
<path d="M122.0880 86.4540
L122.0880 86.8540
" />
<path d="M122.0880 88.9540
L122.0880 89.3540
" />
<path d="M122.0880 91.5540
L122.0880 91.9540
" />
<path d="M122.0880 94.0540
L122.0880 94.4540
" />
<path d="M122.0880 96.5540
L122.0880 96.9540
" />
<path d="M122.0880 99.1540
L122.0880 99.5540
" />
<path d="M125.0950 53.6210
L125.0950 50.9540
" />
<path d="M128.8880 101.9540
L122.0880 101.9540
" />
<path d="M131.0880 101.9540
L131.4880 101.9540
" />
<path d="M133.6880 101.9540
L134.0880 101.9540
" />
<path d="M143.0880 50.9540
L143.0880 51.2540
" />
<path d="M143.0880 53.3540
L143.0880 53.7540
" />
<path d="M143.0880 55.9540
L143.0880 56.3540
" />
<path d="M143.0880 58.4540
L143.0880 58.8540
" />
<path d="M143.0880 61.0540
L143.0880 61.4540
" />
<path d="M143.0880 63.5540
L143.0880 63.9540
" />
<path d="M143.0880 66.0540
L143.0880 66.4540
" />
<path d="M143.0880 68.6540
L143.0880 69.0540
" />
<path d="M143.0880 71.1540
L143.0880 71.5540
" />
<path d="M143.0880 73.7540
L143.0880 74.1540
" />
<path d="M143.0880 76.2540
L143.0880 76.6540
" />
<path d="M143.0880 78.7540
L143.0880 79.1540
" />
<path d="M143.0880 81.3540
L143.0880 81.7540
" />
<path d="M143.0880 83.8540
L143.0880 84.2540
" />
<path d="M143.0880 86.4540
L143.0880 86.8540
" />
<path d="M143.0880 88.9540
L143.0880 89.3540
" />
<path d="M143.0880 91.5540
L143.0880 91.9540
" />
<path d="M143.0880 94.0540
L143.0880 94.4540
" />
<path d="M143.0880 96.5540
L143.0880 96.9540
" />
<path d="M143.0880 99.1540
L143.0880 99.5540
" />
<path d="M143.0880 101.9540
L136.2880 101.9540
" />
<path d="M110.9700 104.5970
L108.7300 104.5970
" />
<path d="M108.7300 104.5970
L108.7300 106.5970
" />
<path d="M117.0900 104.8370
L108.9700 104.8370
" />
<path d="M117.0900 104.8370
L117.0900 115.1170
" />
<path d="M115.0300 104.8370
L115.0300 115.1170
" />
<path d="M111.0300 104.8370
L111.0300 115.1170
" />
<path d="M108.9700 104.8370
L108.9700 115.1170
" />
<path d="M112.0540 111.3370
L111.9610 111.2430
" />
<path d="M111.8140 111.5070
L111.7560 111.4480
" />
<path d="M114.3050 113.5870
L114.2460 113.5280
" />
<path d="M114.0990 113.7920
L114.0060 113.6980
" />
<path d="M117.0900 115.1170
L108.9700 115.1170
" />
<path d="M113.8190 105.9530 A1.6807 1.6807 0.0 0 0 112.2409 105.9530" />
<path d="M114.5140 108.2260 A1.6807 1.6807 0.0 0 0 114.5140 106.6479" />
<path d="M111.5460 106.6480 A1.6807 1.6807 0.0 0 0 111.3495 107.4664" />
<path d="M111.3500 107.4370 A1.6800 1.6800 0.0 0 0 111.5466 108.2257" />
<path d="M112.2410 108.9210 A1.6807 1.6807 0.0 0 0 113.8191 108.9210" />
<circle cx="113.0300" cy="112.5170" r="1.6800" /> 
<g >
</g>
<g >
</g>
<g >
</g>
<g >
</g>
<g >
</g>
<g >
</g>
<g >
</g>
<g >
</g>
<g >
</g>
<g >
</g>
<g >
</g>
<g >
</g>
<g >
</g>
<g >
</g>
<g >
</g>
</g> 
</svg>
