<?xml version="1.0" standalone="no"?>
 <!DOCTYPE svg PUBLIC "-//W3C//DTD SVG 1.1//EN" 
 "http://www.w3.org/Graphics/SVG/1.1/DTD/svg11.dtd"> 
<svg
  xmlns:svg="http://www.w3.org/2000/svg"
  xmlns="http://www.w3.org/2000/svg"
  xmlns:xlink="http://www.w3.org/1999/xlink"
  version="1.1"
  width="297.0022mm" height="210.0072mm" viewBox="0.0000 0.0000 297.0022 210.0072">
<title>SVG Image created as template_project_kicad-F_Cu.svg date 2023/11/28 01:22:37 </title>
  <desc>Image generated by PCBNEW </desc>
<g style="fill:#000000; fill-opacity:1.0000;stroke:#000000; stroke-opacity:1.0000;
stroke-linecap:round; stroke-linejoin:round;"
 transform="translate(0 0) scale(1 1)">
</g>
<g style="fill:#000000; fill-opacity:0.0; 
stroke:#000000; stroke-width:0.0000; stroke-opacity:1; 
stroke-linecap:round; stroke-linejoin:round;">
<g >
</g>
<g style="fill:#000000; fill-opacity:1.0000; 
stroke:#000000; stroke-width:0.0000; stroke-opacity:1; 
stroke-linecap:round; stroke-linejoin:round;">
<circle cx="104.1400" cy="96.5200" r="3.0000" /> 
</g>
<g style="fill:#000000; fill-opacity:1.0000; 
stroke:#000000; stroke-width:0.0212; stroke-opacity:1; 
stroke-linecap:round; stroke-linejoin:round;">
</g>
<g >
</g>
<g style="fill:#000000; fill-opacity:1.0000; 
stroke:#000000; stroke-width:0.0212; stroke-opacity:1; 
stroke-linecap:round; stroke-linejoin:round;">
</g>
<g style="fill:#000000; fill-opacity:1.0000; 
stroke:#000000; stroke-width:0.0000; stroke-opacity:1; 
stroke-linecap:round; stroke-linejoin:round;">
<circle cx="147.3200" cy="96.5200" r="3.0000" /> 
</g>
<g style="fill:#000000; fill-opacity:1.0000; 
stroke:#000000; stroke-width:0.0212; stroke-opacity:1; 
stroke-linecap:round; stroke-linejoin:round;">
</g>
<g >
</g>
<g style="fill:#000000; fill-opacity:1.0000; 
stroke:#000000; stroke-width:0.0212; stroke-opacity:1; 
stroke-linecap:round; stroke-linejoin:round;">
</g>
<g style="fill:#000000; fill-opacity:1.0000; 
stroke:#000000; stroke-width:0.0000; stroke-opacity:1; 
stroke-linecap:round; stroke-linejoin:round;">
<circle cx="104.1400" cy="55.8800" r="3.0000" /> 
</g>
<g style="fill:#000000; fill-opacity:1.0000; 
stroke:#000000; stroke-width:0.0212; stroke-opacity:1; 
stroke-linecap:round; stroke-linejoin:round;">
</g>
<g >
</g>
<g style="fill:#000000; fill-opacity:1.0000; 
stroke:#000000; stroke-width:0.0212; stroke-opacity:1; 
stroke-linecap:round; stroke-linejoin:round;">
</g>
<g style="fill:#000000; fill-opacity:1.0000; 
stroke:#000000; stroke-width:0.0000; stroke-opacity:1; 
stroke-linecap:round; stroke-linejoin:round;">
<circle cx="147.3200" cy="55.8800" r="3.0000" /> 
</g>
<g style="fill:#000000; fill-opacity:1.0000; 
stroke:#000000; stroke-width:0.0212; stroke-opacity:1; 
stroke-linecap:round; stroke-linejoin:round;">
</g>
<g >
</g>
<g style="fill:#000000; fill-opacity:1.0000; 
stroke:#000000; stroke-width:0.0212; stroke-opacity:1; 
stroke-linecap:round; stroke-linejoin:round;">
</g>
<g style="fill:#000000; fill-opacity:1.0000; 
stroke:#000000; stroke-width:0.0000; stroke-opacity:1; 
stroke-linecap:round; stroke-linejoin:round;">
<circle cx="116.8400" cy="52.0700" r="0.7620" /> 
</g>
<g style="fill:#000000; fill-opacity:1.0000; 
stroke:#000000; stroke-width:0.0212; stroke-opacity:1; 
stroke-linecap:round; stroke-linejoin:round;">
</g>
<g style="fill:#000000; fill-opacity:1.0000; 
stroke:#000000; stroke-width:0.0000; stroke-opacity:1; 
stroke-linecap:round; stroke-linejoin:round;">
<circle cx="116.8400" cy="54.6100" r="0.7620" /> 
</g>
<g style="fill:#000000; fill-opacity:1.0000; 
stroke:#000000; stroke-width:0.0212; stroke-opacity:1; 
stroke-linecap:round; stroke-linejoin:round;">
</g>
<g style="fill:#000000; fill-opacity:1.0000; 
stroke:#000000; stroke-width:0.0000; stroke-opacity:1; 
stroke-linecap:round; stroke-linejoin:round;">
<circle cx="116.8400" cy="57.1500" r="0.7620" /> 
</g>
<g style="fill:#000000; fill-opacity:1.0000; 
stroke:#000000; stroke-width:0.0212; stroke-opacity:1; 
stroke-linecap:round; stroke-linejoin:round;">
</g>
<g style="fill:#000000; fill-opacity:1.0000; 
stroke:#000000; stroke-width:0.0000; stroke-opacity:1; 
stroke-linecap:round; stroke-linejoin:round;">
<circle cx="116.8400" cy="59.6900" r="0.7620" /> 
</g>
<g style="fill:#000000; fill-opacity:1.0000; 
stroke:#000000; stroke-width:0.0212; stroke-opacity:1; 
stroke-linecap:round; stroke-linejoin:round;">
</g>
<g style="fill:#000000; fill-opacity:1.0000; 
stroke:#000000; stroke-width:0.0000; stroke-opacity:1; 
stroke-linecap:round; stroke-linejoin:round;">
<circle cx="116.8400" cy="62.2300" r="0.7620" /> 
</g>
<g style="fill:#000000; fill-opacity:1.0000; 
stroke:#000000; stroke-width:0.0212; stroke-opacity:1; 
stroke-linecap:round; stroke-linejoin:round;">
</g>
<g style="fill:#000000; fill-opacity:1.0000; 
stroke:#000000; stroke-width:0.0000; stroke-opacity:1; 
stroke-linecap:round; stroke-linejoin:round;">
<circle cx="116.8400" cy="64.7700" r="0.7620" /> 
</g>
<g style="fill:#000000; fill-opacity:1.0000; 
stroke:#000000; stroke-width:0.0212; stroke-opacity:1; 
stroke-linecap:round; stroke-linejoin:round;">
</g>
<g style="fill:#000000; fill-opacity:1.0000; 
stroke:#000000; stroke-width:0.0000; stroke-opacity:1; 
stroke-linecap:round; stroke-linejoin:round;">
<circle cx="116.8400" cy="67.3100" r="0.7620" /> 
</g>
<g style="fill:#000000; fill-opacity:1.0000; 
stroke:#000000; stroke-width:0.0212; stroke-opacity:1; 
stroke-linecap:round; stroke-linejoin:round;">
</g>
<g style="fill:#000000; fill-opacity:1.0000; 
stroke:#000000; stroke-width:0.0000; stroke-opacity:1; 
stroke-linecap:round; stroke-linejoin:round;">
<circle cx="116.8400" cy="69.8500" r="0.7620" /> 
</g>
<g style="fill:#000000; fill-opacity:1.0000; 
stroke:#000000; stroke-width:0.0212; stroke-opacity:1; 
stroke-linecap:round; stroke-linejoin:round;">
</g>
<g style="fill:#000000; fill-opacity:1.0000; 
stroke:#000000; stroke-width:0.0000; stroke-opacity:1; 
stroke-linecap:round; stroke-linejoin:round;">
<circle cx="116.8400" cy="72.3900" r="0.7620" /> 
</g>
<g style="fill:#000000; fill-opacity:1.0000; 
stroke:#000000; stroke-width:0.0212; stroke-opacity:1; 
stroke-linecap:round; stroke-linejoin:round;">
</g>
<g style="fill:#000000; fill-opacity:1.0000; 
stroke:#000000; stroke-width:0.0000; stroke-opacity:1; 
stroke-linecap:round; stroke-linejoin:round;">
<circle cx="116.8400" cy="74.9300" r="0.7620" /> 
</g>
<g style="fill:#000000; fill-opacity:1.0000; 
stroke:#000000; stroke-width:0.0212; stroke-opacity:1; 
stroke-linecap:round; stroke-linejoin:round;">
</g>
<g style="fill:#000000; fill-opacity:1.0000; 
stroke:#000000; stroke-width:0.0000; stroke-opacity:1; 
stroke-linecap:round; stroke-linejoin:round;">
<circle cx="116.8400" cy="77.4700" r="0.7620" /> 
</g>
<g style="fill:#000000; fill-opacity:1.0000; 
stroke:#000000; stroke-width:0.0212; stroke-opacity:1; 
stroke-linecap:round; stroke-linejoin:round;">
</g>
<g style="fill:#000000; fill-opacity:1.0000; 
stroke:#000000; stroke-width:0.0000; stroke-opacity:1; 
stroke-linecap:round; stroke-linejoin:round;">
<circle cx="116.8400" cy="80.0100" r="0.7620" /> 
</g>
<g style="fill:#000000; fill-opacity:1.0000; 
stroke:#000000; stroke-width:0.0212; stroke-opacity:1; 
stroke-linecap:round; stroke-linejoin:round;">
</g>
<g style="fill:#000000; fill-opacity:1.0000; 
stroke:#000000; stroke-width:0.0000; stroke-opacity:1; 
stroke-linecap:round; stroke-linejoin:round;">
<circle cx="116.8400" cy="82.5500" r="0.7620" /> 
</g>
<g style="fill:#000000; fill-opacity:1.0000; 
stroke:#000000; stroke-width:0.0212; stroke-opacity:1; 
stroke-linecap:round; stroke-linejoin:round;">
</g>
<g style="fill:#000000; fill-opacity:1.0000; 
stroke:#000000; stroke-width:0.0000; stroke-opacity:1; 
stroke-linecap:round; stroke-linejoin:round;">
<circle cx="116.8400" cy="85.0900" r="0.7620" /> 
</g>
<g style="fill:#000000; fill-opacity:1.0000; 
stroke:#000000; stroke-width:0.0212; stroke-opacity:1; 
stroke-linecap:round; stroke-linejoin:round;">
</g>
<g style="fill:#000000; fill-opacity:1.0000; 
stroke:#000000; stroke-width:0.0000; stroke-opacity:1; 
stroke-linecap:round; stroke-linejoin:round;">
<circle cx="116.8400" cy="87.6300" r="0.7620" /> 
</g>
<g style="fill:#000000; fill-opacity:1.0000; 
stroke:#000000; stroke-width:0.0212; stroke-opacity:1; 
stroke-linecap:round; stroke-linejoin:round;">
</g>
<g style="fill:#000000; fill-opacity:1.0000; 
stroke:#000000; stroke-width:0.0000; stroke-opacity:1; 
stroke-linecap:round; stroke-linejoin:round;">
<circle cx="116.8400" cy="90.1700" r="0.7620" /> 
</g>
<g style="fill:#000000; fill-opacity:1.0000; 
stroke:#000000; stroke-width:0.0212; stroke-opacity:1; 
stroke-linecap:round; stroke-linejoin:round;">
</g>
<g style="fill:#000000; fill-opacity:1.0000; 
stroke:#000000; stroke-width:0.0000; stroke-opacity:1; 
stroke-linecap:round; stroke-linejoin:round;">
<circle cx="116.8400" cy="92.7100" r="0.7620" /> 
</g>
<g style="fill:#000000; fill-opacity:1.0000; 
stroke:#000000; stroke-width:0.0212; stroke-opacity:1; 
stroke-linecap:round; stroke-linejoin:round;">
</g>
<g style="fill:#000000; fill-opacity:1.0000; 
stroke:#000000; stroke-width:0.0000; stroke-opacity:1; 
stroke-linecap:round; stroke-linejoin:round;">
<circle cx="116.8400" cy="95.2500" r="0.7620" /> 
</g>
<g style="fill:#000000; fill-opacity:1.0000; 
stroke:#000000; stroke-width:0.0212; stroke-opacity:1; 
stroke-linecap:round; stroke-linejoin:round;">
</g>
<g style="fill:#000000; fill-opacity:1.0000; 
stroke:#000000; stroke-width:0.0000; stroke-opacity:1; 
stroke-linecap:round; stroke-linejoin:round;">
<circle cx="116.8400" cy="97.7900" r="0.7620" /> 
</g>
<g style="fill:#000000; fill-opacity:1.0000; 
stroke:#000000; stroke-width:0.0212; stroke-opacity:1; 
stroke-linecap:round; stroke-linejoin:round;">
</g>
<g style="fill:#000000; fill-opacity:1.0000; 
stroke:#000000; stroke-width:0.0000; stroke-opacity:1; 
stroke-linecap:round; stroke-linejoin:round;">
<circle cx="116.8400" cy="100.3300" r="0.7620" /> 
</g>
<g style="fill:#000000; fill-opacity:1.0000; 
stroke:#000000; stroke-width:0.0212; stroke-opacity:1; 
stroke-linecap:round; stroke-linejoin:round;">
</g>
<g style="fill:#000000; fill-opacity:1.0000; 
stroke:#000000; stroke-width:0.0000; stroke-opacity:1; 
stroke-linecap:round; stroke-linejoin:round;">
<circle cx="134.6200" cy="52.0700" r="0.7620" /> 
</g>
<g style="fill:#000000; fill-opacity:1.0000; 
stroke:#000000; stroke-width:0.0212; stroke-opacity:1; 
stroke-linecap:round; stroke-linejoin:round;">
</g>
<g style="fill:#000000; fill-opacity:1.0000; 
stroke:#000000; stroke-width:0.0000; stroke-opacity:1; 
stroke-linecap:round; stroke-linejoin:round;">
<circle cx="134.6200" cy="54.6100" r="0.7620" /> 
</g>
<g style="fill:#000000; fill-opacity:1.0000; 
stroke:#000000; stroke-width:0.0212; stroke-opacity:1; 
stroke-linecap:round; stroke-linejoin:round;">
</g>
<g style="fill:#000000; fill-opacity:1.0000; 
stroke:#000000; stroke-width:0.0000; stroke-opacity:1; 
stroke-linecap:round; stroke-linejoin:round;">
<circle cx="134.6200" cy="57.1500" r="0.7620" /> 
</g>
<g style="fill:#000000; fill-opacity:1.0000; 
stroke:#000000; stroke-width:0.0212; stroke-opacity:1; 
stroke-linecap:round; stroke-linejoin:round;">
</g>
<g style="fill:#000000; fill-opacity:1.0000; 
stroke:#000000; stroke-width:0.0000; stroke-opacity:1; 
stroke-linecap:round; stroke-linejoin:round;">
<circle cx="134.6200" cy="59.6900" r="0.7620" /> 
</g>
<g style="fill:#000000; fill-opacity:1.0000; 
stroke:#000000; stroke-width:0.0212; stroke-opacity:1; 
stroke-linecap:round; stroke-linejoin:round;">
</g>
<g style="fill:#000000; fill-opacity:1.0000; 
stroke:#000000; stroke-width:0.0000; stroke-opacity:1; 
stroke-linecap:round; stroke-linejoin:round;">
<circle cx="134.6200" cy="62.2300" r="0.7620" /> 
</g>
<g style="fill:#000000; fill-opacity:1.0000; 
stroke:#000000; stroke-width:0.0212; stroke-opacity:1; 
stroke-linecap:round; stroke-linejoin:round;">
</g>
<g style="fill:#000000; fill-opacity:1.0000; 
stroke:#000000; stroke-width:0.0000; stroke-opacity:1; 
stroke-linecap:round; stroke-linejoin:round;">
<circle cx="134.6200" cy="64.7700" r="0.7620" /> 
</g>
<g style="fill:#000000; fill-opacity:1.0000; 
stroke:#000000; stroke-width:0.0212; stroke-opacity:1; 
stroke-linecap:round; stroke-linejoin:round;">
</g>
<g style="fill:#000000; fill-opacity:1.0000; 
stroke:#000000; stroke-width:0.0000; stroke-opacity:1; 
stroke-linecap:round; stroke-linejoin:round;">
<circle cx="134.6200" cy="67.3100" r="0.7620" /> 
</g>
<g style="fill:#000000; fill-opacity:1.0000; 
stroke:#000000; stroke-width:0.0212; stroke-opacity:1; 
stroke-linecap:round; stroke-linejoin:round;">
</g>
<g style="fill:#000000; fill-opacity:1.0000; 
stroke:#000000; stroke-width:0.0000; stroke-opacity:1; 
stroke-linecap:round; stroke-linejoin:round;">
<circle cx="134.6200" cy="69.8500" r="0.7620" /> 
</g>
<g style="fill:#000000; fill-opacity:1.0000; 
stroke:#000000; stroke-width:0.0212; stroke-opacity:1; 
stroke-linecap:round; stroke-linejoin:round;">
</g>
<g style="fill:#000000; fill-opacity:1.0000; 
stroke:#000000; stroke-width:0.0000; stroke-opacity:1; 
stroke-linecap:round; stroke-linejoin:round;">
<circle cx="134.6200" cy="72.3900" r="0.7620" /> 
</g>
<g style="fill:#000000; fill-opacity:1.0000; 
stroke:#000000; stroke-width:0.0212; stroke-opacity:1; 
stroke-linecap:round; stroke-linejoin:round;">
</g>
<g style="fill:#000000; fill-opacity:1.0000; 
stroke:#000000; stroke-width:0.0000; stroke-opacity:1; 
stroke-linecap:round; stroke-linejoin:round;">
<circle cx="134.6200" cy="74.9300" r="0.7620" /> 
</g>
<g style="fill:#000000; fill-opacity:1.0000; 
stroke:#000000; stroke-width:0.0212; stroke-opacity:1; 
stroke-linecap:round; stroke-linejoin:round;">
</g>
<g style="fill:#000000; fill-opacity:1.0000; 
stroke:#000000; stroke-width:0.0000; stroke-opacity:1; 
stroke-linecap:round; stroke-linejoin:round;">
<circle cx="134.6200" cy="77.4700" r="0.7620" /> 
</g>
<g style="fill:#000000; fill-opacity:1.0000; 
stroke:#000000; stroke-width:0.0212; stroke-opacity:1; 
stroke-linecap:round; stroke-linejoin:round;">
</g>
<g style="fill:#000000; fill-opacity:1.0000; 
stroke:#000000; stroke-width:0.0000; stroke-opacity:1; 
stroke-linecap:round; stroke-linejoin:round;">
<circle cx="134.6200" cy="80.0100" r="0.7620" /> 
</g>
<g style="fill:#000000; fill-opacity:1.0000; 
stroke:#000000; stroke-width:0.0212; stroke-opacity:1; 
stroke-linecap:round; stroke-linejoin:round;">
</g>
<g style="fill:#000000; fill-opacity:1.0000; 
stroke:#000000; stroke-width:0.0000; stroke-opacity:1; 
stroke-linecap:round; stroke-linejoin:round;">
<circle cx="134.6200" cy="82.5500" r="0.7620" /> 
</g>
<g style="fill:#000000; fill-opacity:1.0000; 
stroke:#000000; stroke-width:0.0212; stroke-opacity:1; 
stroke-linecap:round; stroke-linejoin:round;">
</g>
<g style="fill:#000000; fill-opacity:1.0000; 
stroke:#000000; stroke-width:0.0000; stroke-opacity:1; 
stroke-linecap:round; stroke-linejoin:round;">
<circle cx="134.6200" cy="85.0900" r="0.7620" /> 
</g>
<g style="fill:#000000; fill-opacity:1.0000; 
stroke:#000000; stroke-width:0.0212; stroke-opacity:1; 
stroke-linecap:round; stroke-linejoin:round;">
</g>
<g style="fill:#000000; fill-opacity:1.0000; 
stroke:#000000; stroke-width:0.0000; stroke-opacity:1; 
stroke-linecap:round; stroke-linejoin:round;">
<circle cx="134.6200" cy="87.6300" r="0.7620" /> 
</g>
<g style="fill:#000000; fill-opacity:1.0000; 
stroke:#000000; stroke-width:0.0212; stroke-opacity:1; 
stroke-linecap:round; stroke-linejoin:round;">
</g>
<g style="fill:#000000; fill-opacity:1.0000; 
stroke:#000000; stroke-width:0.0000; stroke-opacity:1; 
stroke-linecap:round; stroke-linejoin:round;">
<circle cx="134.6200" cy="90.1700" r="0.7620" /> 
</g>
<g style="fill:#000000; fill-opacity:1.0000; 
stroke:#000000; stroke-width:0.0212; stroke-opacity:1; 
stroke-linecap:round; stroke-linejoin:round;">
</g>
<g style="fill:#000000; fill-opacity:1.0000; 
stroke:#000000; stroke-width:0.0000; stroke-opacity:1; 
stroke-linecap:round; stroke-linejoin:round;">
<circle cx="134.6200" cy="92.7100" r="0.7620" /> 
</g>
<g style="fill:#000000; fill-opacity:1.0000; 
stroke:#000000; stroke-width:0.0212; stroke-opacity:1; 
stroke-linecap:round; stroke-linejoin:round;">
</g>
<g style="fill:#000000; fill-opacity:1.0000; 
stroke:#000000; stroke-width:0.0000; stroke-opacity:1; 
stroke-linecap:round; stroke-linejoin:round;">
<circle cx="134.6200" cy="95.2500" r="0.7620" /> 
</g>
<g style="fill:#000000; fill-opacity:1.0000; 
stroke:#000000; stroke-width:0.0212; stroke-opacity:1; 
stroke-linecap:round; stroke-linejoin:round;">
</g>
<g style="fill:#000000; fill-opacity:1.0000; 
stroke:#000000; stroke-width:0.0000; stroke-opacity:1; 
stroke-linecap:round; stroke-linejoin:round;">
<circle cx="134.6200" cy="97.7900" r="0.7620" /> 
</g>
<g style="fill:#000000; fill-opacity:1.0000; 
stroke:#000000; stroke-width:0.0212; stroke-opacity:1; 
stroke-linecap:round; stroke-linejoin:round;">
</g>
<g style="fill:#000000; fill-opacity:1.0000; 
stroke:#000000; stroke-width:0.0000; stroke-opacity:1; 
stroke-linecap:round; stroke-linejoin:round;">
<circle cx="134.6200" cy="100.3300" r="0.7620" /> 
</g>
<g style="fill:#000000; fill-opacity:1.0000; 
stroke:#000000; stroke-width:0.0212; stroke-opacity:1; 
stroke-linecap:round; stroke-linejoin:round;">
</g>
<g >
</g>
<g >
</g>
<g >
</g>
<g style="fill:#000000; fill-opacity:1.0000; 
stroke:#000000; stroke-width:0.0212; stroke-opacity:1; 
stroke-linecap:round; stroke-linejoin:round;">
<g >
</g>
<g style="fill:#000000; fill-opacity:1.0000; 
stroke:#000000; stroke-width:0.0000; stroke-opacity:1; 
stroke-linecap:round; stroke-linejoin:round;">
<path style="fill:#000000; fill-opacity:1.0000; 
stroke:#000000; stroke-width:0.0000; stroke-opacity:1; 
stroke-linecap:round; stroke-linejoin:round;fill-rule:evenodd;"
d="M 152.3587,50.8194
152.3947,50.8689
152.3995,50.8995
152.3995,101.5005
152.3806,101.5587
152.3311,101.5947
152.3005,101.5995
99.1595,101.5995
99.1013,101.5806
99.0653,101.5311
99.0605,101.5005
99.0605,100.3300
115.8728,100.3300
115.8914,100.5187
115.8914,100.5187
115.9465,100.7001
115.9465,100.7001
116.0148,100.8280
116.0358,100.8673
116.1561,101.0139
116.3027,101.1342
116.4699,101.2235
116.5963,101.2619
116.6513,101.2786
116.6513,101.2786
116.8400,101.2972
116.8400,101.2972
116.8400,101.2972
117.0287,101.2786
117.0287,101.2786
117.2101,101.2235
117.3773,101.1342
117.5239,101.0139
117.6442,100.8673
117.7335,100.7001
117.7886,100.5187
117.7886,100.5187
117.8072,100.3300
133.6528,100.3300
133.6714,100.5187
133.6714,100.5187
133.7265,100.7001
133.7265,100.7001
133.7948,100.8280
133.8158,100.8673
133.9361,101.0139
134.0827,101.1342
134.2499,101.2235
134.3763,101.2619
134.4313,101.2786
134.4313,101.2786
134.6200,101.2972
134.6200,101.2972
134.6200,101.2972
134.8087,101.2786
134.8087,101.2786
134.9901,101.2235
135.1573,101.1342
135.3039,101.0139
135.4242,100.8673
135.5135,100.7001
135.5686,100.5187
135.5686,100.5187
135.5872,100.3300
135.5872,100.3300
135.5686,100.1413
135.5686,100.1413
135.5519,100.0863
135.5135,99.9599
135.4242,99.7927
135.3039,99.6461
135.1573,99.5258
135.1180,99.5048
134.9901,99.4365
134.9901,99.4365
134.8087,99.3814
134.8087,99.3814
134.6200,99.3628
134.6200,99.3628
134.4313,99.3814
134.4313,99.3814
134.2499,99.4365
134.2499,99.4365
134.0827,99.5258
134.0827,99.5258
133.9361,99.6461
133.9361,99.6461
133.8158,99.7927
133.8158,99.7927
133.7265,99.9599
133.7265,99.9599
133.6714,100.1413
133.6714,100.1413
133.6528,100.3300
133.6528,100.3300
117.8072,100.3300
117.8072,100.3300
117.7886,100.1413
117.7886,100.1413
117.7719,100.0863
117.7335,99.9599
117.6442,99.7927
117.5239,99.6461
117.3773,99.5258
117.3380,99.5048
117.2101,99.4365
117.2101,99.4365
117.0287,99.3814
117.0287,99.3814
116.8400,99.3628
116.8400,99.3628
116.6513,99.3814
116.6513,99.3814
116.4699,99.4365
116.4699,99.4365
116.3027,99.5258
116.3027,99.5258
116.1561,99.6461
116.1561,99.6461
116.0358,99.7927
116.0358,99.7927
115.9465,99.9599
115.9465,99.9599
115.8914,100.1413
115.8914,100.1413
115.8728,100.3300
115.8728,100.3300
99.0605,100.3300
99.0605,96.5200
100.9345,96.5200
100.9546,96.8789
100.9546,96.8789
101.0148,97.2333
101.0148,97.2333
101.1143,97.5787
101.2519,97.9108
101.4258,98.2254
101.6021,98.4739
101.6338,98.5186
101.8733,98.7867
102.1414,99.0262
102.4345,99.2342
102.4346,99.2342
102.7492,99.4081
102.7492,99.4081
103.0813,99.5457
103.4267,99.6452
103.4267,99.6452
103.4267,99.6452
103.7811,99.7054
103.7811,99.7054
103.7811,99.7054
104.1400,99.7255
104.1400,99.7255
104.1400,99.7255
104.4989,99.7054
104.4989,99.7054
104.4989,99.7054
104.8533,99.6452
105.1987,99.5457
105.5308,99.4081
105.8455,99.2342
106.1386,99.0262
106.4067,98.7867
106.6462,98.5186
106.8542,98.2255
107.0281,97.9108
107.0781,97.7900
115.8728,97.7900
115.8914,97.9787
115.8914,97.9787
115.9465,98.1601
115.9465,98.1601
115.9814,98.2255
116.0358,98.3273
116.1561,98.4739
116.3027,98.5942
116.4699,98.6835
116.5963,98.7219
116.6513,98.7386
116.6513,98.7386
116.8400,98.7572
116.8400,98.7572
116.8400,98.7572
117.0287,98.7386
117.0287,98.7386
117.2101,98.6835
117.3773,98.5942
117.5239,98.4739
117.6442,98.3273
117.7335,98.1601
117.7886,97.9787
117.7886,97.9787
117.8072,97.7900
133.6528,97.7900
133.6714,97.9787
133.6714,97.9787
133.7265,98.1601
133.7265,98.1601
133.7614,98.2255
133.8158,98.3273
133.9361,98.4739
134.0827,98.5942
134.2499,98.6835
134.3763,98.7219
134.4313,98.7386
134.4313,98.7386
134.6200,98.7572
134.6200,98.7572
134.6200,98.7572
134.8087,98.7386
134.8087,98.7386
134.9901,98.6835
135.1573,98.5942
135.3039,98.4739
135.4242,98.3273
135.5135,98.1601
135.5686,97.9787
135.5686,97.9787
135.5872,97.7900
135.5872,97.7900
135.5686,97.6013
135.5686,97.6013
135.5519,97.5463
135.5135,97.4199
135.4242,97.2527
135.3039,97.1061
135.1573,96.9858
135.1180,96.9648
134.9901,96.8965
134.9901,96.8965
134.8087,96.8414
134.8087,96.8414
134.6200,96.8228
134.6200,96.8228
134.4313,96.8414
134.4313,96.8414
134.2499,96.8965
134.2499,96.8965
134.0827,96.9858
134.0827,96.9858
133.9361,97.1061
133.9361,97.1061
133.8158,97.2527
133.8158,97.2527
133.7265,97.4199
133.7265,97.4199
133.6714,97.6013
133.6714,97.6013
133.6528,97.7900
133.6528,97.7900
117.8072,97.7900
117.8072,97.7900
117.7886,97.6013
117.7886,97.6013
117.7719,97.5463
117.7335,97.4199
117.6442,97.2527
117.5239,97.1061
117.3773,96.9858
117.3380,96.9648
117.2101,96.8965
117.2101,96.8965
117.0287,96.8414
117.0287,96.8414
116.8400,96.8228
116.8400,96.8228
116.6513,96.8414
116.6513,96.8414
116.4699,96.8965
116.4699,96.8965
116.3027,96.9858
116.3027,96.9858
116.1561,97.1061
116.1561,97.1061
116.0358,97.2527
116.0358,97.2527
115.9465,97.4199
115.9465,97.4199
115.8914,97.6013
115.8914,97.6013
115.8728,97.7900
115.8728,97.7900
107.0781,97.7900
107.1657,97.5787
107.2652,97.2333
107.3254,96.8789
107.3455,96.5200
144.1145,96.5200
144.1346,96.8789
144.1346,96.8789
144.1948,97.2333
144.1948,97.2333
144.2943,97.5787
144.4319,97.9108
144.6058,98.2254
144.7821,98.4739
144.8138,98.5186
145.0533,98.7867
145.3214,99.0262
145.6145,99.2342
145.6145,99.2342
145.9292,99.4081
145.9292,99.4081
146.2613,99.5457
146.6067,99.6452
146.6067,99.6452
146.6067,99.6452
146.9611,99.7054
146.9611,99.7054
146.9611,99.7054
147.3200,99.7255
147.3200,99.7255
147.3200,99.7255
147.6789,99.7054
147.6789,99.7054
147.6789,99.7054
148.0333,99.6452
148.3787,99.5457
148.7108,99.4081
149.0255,99.2342
149.3186,99.0262
149.5867,98.7867
149.8262,98.5186
150.0342,98.2255
150.2081,97.9108
150.3457,97.5787
150.4452,97.2333
150.5054,96.8789
150.5255,96.5200
150.5054,96.1611
150.4452,95.8067
150.3457,95.4613
150.2081,95.1292
150.2081,95.1292
150.0342,94.8145
149.9619,94.7127
149.8262,94.5214
149.5867,94.2533
149.3186,94.0138
149.3186,94.0138
149.3186,94.0138
149.0254,93.8058
148.7108,93.6319
148.7108,93.6319
148.3787,93.4943
148.0333,93.3948
148.0333,93.3948
147.6789,93.3346
147.6789,93.3346
147.3200,93.3145
147.3200,93.3145
146.9611,93.3346
146.9611,93.3346
146.6067,93.3948
146.6067,93.3948
146.2613,93.4943
145.9292,93.6319
145.6145,93.8058
145.3214,94.0138
145.0533,94.2533
145.0533,94.2533
144.8138,94.5214
144.6058,94.8145
144.4319,95.1292
144.2943,95.4613
144.1948,95.8067
144.1948,95.8067
144.1346,96.1611
144.1346,96.1611
144.1145,96.5200
144.1145,96.5200
107.3455,96.5200
107.3455,96.5200
107.3254,96.1611
107.2652,95.8067
107.1657,95.4613
107.0781,95.2500
115.8728,95.2500
115.8914,95.4387
115.8914,95.4387
115.9465,95.6201
115.9465,95.6201
116.0148,95.7480
116.0358,95.7873
116.0358,95.7873
116.0358,95.7873
116.0517,95.8067
116.1561,95.9339
116.3027,96.0542
116.4699,96.1435
116.5963,96.1819
116.6513,96.1986
116.6513,96.1986
116.8400,96.2172
116.8400,96.2172
116.8400,96.2172
117.0287,96.1986
117.0287,96.1986
117.2101,96.1435
117.3773,96.0542
117.5239,95.9339
117.6442,95.7873
117.7335,95.6201
117.7886,95.4387
117.7886,95.4387
117.8072,95.2500
133.6528,95.2500
133.6714,95.4387
133.6714,95.4387
133.7265,95.6201
133.7265,95.6201
133.7948,95.7480
133.8158,95.7873
133.8158,95.7873
133.8158,95.7873
133.8317,95.8067
133.9361,95.9339
134.0827,96.0542
134.2499,96.1435
134.3763,96.1819
134.4313,96.1986
134.4313,96.1986
134.6200,96.2172
134.6200,96.2172
134.6200,96.2172
134.8087,96.1986
134.8087,96.1986
134.9901,96.1435
135.1573,96.0542
135.3039,95.9339
135.4242,95.7873
135.5135,95.6201
135.5686,95.4387
135.5686,95.4387
135.5872,95.2500
135.5872,95.2500
135.5686,95.0613
135.5686,95.0613
135.5519,95.0063
135.5135,94.8799
135.4242,94.7127
135.3039,94.5661
135.1573,94.4458
135.1180,94.4248
134.9901,94.3565
134.9901,94.3565
134.8087,94.3014
134.8087,94.3014
134.6200,94.2828
134.6200,94.2828
134.4313,94.3014
134.4313,94.3014
134.2499,94.3565
134.2499,94.3565
134.0827,94.4458
134.0827,94.4458
133.9361,94.5661
133.9361,94.5661
133.8158,94.7127
133.8158,94.7127
133.7265,94.8799
133.7265,94.8799
133.6714,95.0613
133.6714,95.0613
133.6528,95.2500
133.6528,95.2500
117.8072,95.2500
117.8072,95.2500
117.7886,95.0613
117.7886,95.0613
117.7719,95.0063
117.7335,94.8799
117.6442,94.7127
117.5239,94.5661
117.3773,94.4458
117.3380,94.4248
117.2101,94.3565
117.2101,94.3565
117.0287,94.3014
117.0287,94.3014
116.8400,94.2828
116.8400,94.2828
116.6513,94.3014
116.6513,94.3014
116.4699,94.3565
116.4699,94.3565
116.3027,94.4458
116.3027,94.4458
116.1561,94.5661
116.1561,94.5661
116.0358,94.7127
116.0358,94.7127
115.9465,94.8799
115.9465,94.8799
115.8914,95.0613
115.8914,95.0613
115.8728,95.2500
115.8728,95.2500
107.0781,95.2500
107.0281,95.1292
107.0281,95.1292
106.8542,94.8145
106.7819,94.7127
106.6462,94.5214
106.4067,94.2533
106.1386,94.0138
106.1386,94.0138
106.1386,94.0138
105.8454,93.8058
105.5308,93.6319
105.5308,93.6319
105.1987,93.4943
104.8533,93.3948
104.8533,93.3948
104.4989,93.3346
104.4989,93.3346
104.1400,93.3145
104.1400,93.3145
103.7811,93.3346
103.7811,93.3346
103.4267,93.3948
103.4267,93.3948
103.0813,93.4943
102.7492,93.6319
102.4346,93.8058
102.1414,94.0138
101.8733,94.2533
101.8733,94.2533
101.6338,94.5214
101.4258,94.8145
101.2519,95.1292
101.1143,95.4613
101.0148,95.8067
101.0148,95.8067
100.9546,96.1611
100.9546,96.1611
100.9345,96.5200
100.9345,96.5200
99.0605,96.5200
99.0605,92.7100
115.8728,92.7100
115.8914,92.8987
115.8914,92.8987
115.9465,93.0801
115.9465,93.0801
116.0148,93.2080
116.0358,93.2473
116.1561,93.3939
116.3027,93.5142
116.4699,93.6035
116.5634,93.6319
116.6513,93.6586
116.6513,93.6586
116.8400,93.6772
116.8400,93.6772
116.8400,93.6772
117.0287,93.6586
117.0287,93.6586
117.2101,93.6035
117.3773,93.5142
117.5239,93.3939
117.6442,93.2473
117.7335,93.0801
117.7886,92.8987
117.7886,92.8987
117.8072,92.7100
133.6528,92.7100
133.6714,92.8987
133.6714,92.8987
133.7265,93.0801
133.7265,93.0801
133.7948,93.2080
133.8158,93.2473
133.9361,93.3939
134.0827,93.5142
134.2499,93.6035
134.3434,93.6319
134.4313,93.6586
134.4313,93.6586
134.6200,93.6772
134.6200,93.6772
134.6200,93.6772
134.8087,93.6586
134.8087,93.6586
134.9901,93.6035
135.1573,93.5142
135.3039,93.3939
135.4242,93.2473
135.5135,93.0801
135.5686,92.8987
135.5686,92.8987
135.5872,92.7100
135.5872,92.7100
135.5686,92.5213
135.5686,92.5213
135.5519,92.4663
135.5135,92.3399
135.4242,92.1727
135.3039,92.0261
135.1573,91.9058
135.1180,91.8848
134.9901,91.8165
134.9901,91.8165
134.8087,91.7614
134.8087,91.7614
134.6200,91.7428
134.6200,91.7428
134.4313,91.7614
134.4313,91.7614
134.2499,91.8165
134.2499,91.8165
134.0827,91.9058
134.0827,91.9058
133.9361,92.0261
133.9361,92.0261
133.8158,92.1727
133.8158,92.1727
133.7265,92.3399
133.7265,92.3399
133.6714,92.5213
133.6714,92.5213
133.6528,92.7100
133.6528,92.7100
117.8072,92.7100
117.8072,92.7100
117.7886,92.5213
117.7886,92.5213
117.7719,92.4663
117.7335,92.3399
117.6442,92.1727
117.5239,92.0261
117.3773,91.9058
117.3380,91.8848
117.2101,91.8165
117.2101,91.8165
117.0287,91.7614
117.0287,91.7614
116.8400,91.7428
116.8400,91.7428
116.6513,91.7614
116.6513,91.7614
116.4699,91.8165
116.4699,91.8165
116.3027,91.9058
116.3027,91.9058
116.1561,92.0261
116.1561,92.0261
116.0358,92.1727
116.0358,92.1727
115.9465,92.3399
115.9465,92.3399
115.8914,92.5213
115.8914,92.5213
115.8728,92.7100
115.8728,92.7100
99.0605,92.7100
99.0605,90.1700
115.8728,90.1700
115.8914,90.3587
115.8914,90.3587
115.9465,90.5401
115.9465,90.5401
116.0148,90.6680
116.0358,90.7073
116.1561,90.8539
116.3027,90.9742
116.4699,91.0635
116.5963,91.1019
116.6513,91.1186
116.6513,91.1186
116.8400,91.1372
116.8400,91.1372
116.8400,91.1372
117.0287,91.1186
117.0287,91.1186
117.2101,91.0635
117.3773,90.9742
117.5239,90.8539
117.6442,90.7073
117.7335,90.5401
117.7886,90.3587
117.7886,90.3587
117.8072,90.1700
133.6528,90.1700
133.6714,90.3587
133.6714,90.3587
133.7265,90.5401
133.7265,90.5401
133.7948,90.6680
133.8158,90.7073
133.9361,90.8539
134.0827,90.9742
134.2499,91.0635
134.3763,91.1019
134.4313,91.1186
134.4313,91.1186
134.6200,91.1372
134.6200,91.1372
134.6200,91.1372
134.8087,91.1186
134.8087,91.1186
134.9901,91.0635
135.1573,90.9742
135.3039,90.8539
135.4242,90.7073
135.5135,90.5401
135.5686,90.3587
135.5686,90.3587
135.5872,90.1700
135.5872,90.1700
135.5686,89.9813
135.5686,89.9813
135.5519,89.9263
135.5135,89.7999
135.4242,89.6327
135.3039,89.4861
135.1573,89.3658
135.1180,89.3448
134.9901,89.2765
134.9901,89.2765
134.8087,89.2214
134.8087,89.2214
134.6200,89.2028
134.6200,89.2028
134.4313,89.2214
134.4313,89.2214
134.2499,89.2765
134.2499,89.2765
134.0827,89.3658
134.0827,89.3658
133.9361,89.4861
133.9361,89.4861
133.8158,89.6327
133.8158,89.6327
133.7265,89.7999
133.7265,89.7999
133.6714,89.9813
133.6714,89.9813
133.6528,90.1700
133.6528,90.1700
117.8072,90.1700
117.8072,90.1700
117.7886,89.9813
117.7886,89.9813
117.7719,89.9263
117.7335,89.7999
117.6442,89.6327
117.5239,89.4861
117.3773,89.3658
117.3380,89.3448
117.2101,89.2765
117.2101,89.2765
117.0287,89.2214
117.0287,89.2214
116.8400,89.2028
116.8400,89.2028
116.6513,89.2214
116.6513,89.2214
116.4699,89.2765
116.4699,89.2765
116.3027,89.3658
116.3027,89.3658
116.1561,89.4861
116.1561,89.4861
116.0358,89.6327
116.0358,89.6327
115.9465,89.7999
115.9465,89.7999
115.8914,89.9813
115.8914,89.9813
115.8728,90.1700
115.8728,90.1700
99.0605,90.1700
99.0605,87.6300
115.8728,87.6300
115.8914,87.8187
115.8914,87.8187
115.9465,88.0001
115.9465,88.0001
116.0148,88.1280
116.0358,88.1673
116.1561,88.3139
116.3027,88.4342
116.4699,88.5235
116.5963,88.5619
116.6513,88.5786
116.6513,88.5786
116.8400,88.5972
116.8400,88.5972
116.8400,88.5972
117.0287,88.5786
117.0287,88.5786
117.2101,88.5235
117.3773,88.4342
117.5239,88.3139
117.6442,88.1673
117.7335,88.0001
117.7886,87.8187
117.7886,87.8187
117.8072,87.6300
133.6528,87.6300
133.6714,87.8187
133.6714,87.8187
133.7265,88.0001
133.7265,88.0001
133.7948,88.1280
133.8158,88.1673
133.9361,88.3139
134.0827,88.4342
134.2499,88.5235
134.3763,88.5619
134.4313,88.5786
134.4313,88.5786
134.6200,88.5972
134.6200,88.5972
134.6200,88.5972
134.8087,88.5786
134.8087,88.5786
134.9901,88.5235
135.1573,88.4342
135.3039,88.3139
135.4242,88.1673
135.5135,88.0001
135.5686,87.8187
135.5686,87.8187
135.5872,87.6300
135.5872,87.6300
135.5686,87.4413
135.5686,87.4413
135.5519,87.3863
135.5135,87.2599
135.4242,87.0927
135.3039,86.9461
135.1573,86.8258
135.1180,86.8048
134.9901,86.7365
134.9901,86.7365
134.8087,86.6814
134.8087,86.6814
134.6200,86.6628
134.6200,86.6628
134.4313,86.6814
134.4313,86.6814
134.2499,86.7365
134.2499,86.7365
134.0827,86.8258
134.0827,86.8258
133.9361,86.9461
133.9361,86.9461
133.8158,87.0927
133.8158,87.0927
133.7265,87.2599
133.7265,87.2599
133.6714,87.4413
133.6714,87.4413
133.6528,87.6300
133.6528,87.6300
117.8072,87.6300
117.8072,87.6300
117.7886,87.4413
117.7886,87.4413
117.7719,87.3863
117.7335,87.2599
117.6442,87.0927
117.5239,86.9461
117.3773,86.8258
117.3380,86.8048
117.2101,86.7365
117.2101,86.7365
117.0287,86.6814
117.0287,86.6814
116.8400,86.6628
116.8400,86.6628
116.6513,86.6814
116.6513,86.6814
116.4699,86.7365
116.4699,86.7365
116.3027,86.8258
116.3027,86.8258
116.1561,86.9461
116.1561,86.9461
116.0358,87.0927
116.0358,87.0927
115.9465,87.2599
115.9465,87.2599
115.8914,87.4413
115.8914,87.4413
115.8728,87.6300
115.8728,87.6300
99.0605,87.6300
99.0605,85.0900
115.8728,85.0900
115.8914,85.2787
115.8914,85.2787
115.9465,85.4601
115.9465,85.4601
116.0148,85.5880
116.0358,85.6273
116.1561,85.7739
116.3027,85.8942
116.4699,85.9835
116.5963,86.0219
116.6513,86.0386
116.6513,86.0386
116.8400,86.0572
116.8400,86.0572
116.8400,86.0572
117.0287,86.0386
117.0287,86.0386
117.2101,85.9835
117.3773,85.8942
117.5239,85.7739
117.6442,85.6273
117.7335,85.4601
117.7886,85.2787
117.7886,85.2787
117.8072,85.0900
133.6528,85.0900
133.6714,85.2787
133.6714,85.2787
133.7265,85.4601
133.7265,85.4601
133.7948,85.5880
133.8158,85.6273
133.9361,85.7739
134.0827,85.8942
134.2499,85.9835
134.3763,86.0219
134.4313,86.0386
134.4313,86.0386
134.6200,86.0572
134.6200,86.0572
134.6200,86.0572
134.8087,86.0386
134.8087,86.0386
134.9901,85.9835
135.1573,85.8942
135.3039,85.7739
135.4242,85.6273
135.5135,85.4601
135.5686,85.2787
135.5686,85.2787
135.5872,85.0900
135.5872,85.0900
135.5686,84.9013
135.5686,84.9013
135.5519,84.8463
135.5135,84.7199
135.4242,84.5527
135.3039,84.4061
135.1573,84.2858
135.1180,84.2648
134.9901,84.1965
134.9901,84.1965
134.8087,84.1414
134.8087,84.1414
134.6200,84.1228
134.6200,84.1228
134.4313,84.1414
134.4313,84.1414
134.2499,84.1965
134.2499,84.1965
134.0827,84.2858
134.0827,84.2858
133.9361,84.4061
133.9361,84.4061
133.8158,84.5527
133.8158,84.5527
133.7265,84.7199
133.7265,84.7199
133.6714,84.9013
133.6714,84.9013
133.6528,85.0900
133.6528,85.0900
117.8072,85.0900
117.8072,85.0900
117.7886,84.9013
117.7886,84.9013
117.7719,84.8463
117.7335,84.7199
117.6442,84.5527
117.5239,84.4061
117.3773,84.2858
117.3380,84.2648
117.2101,84.1965
117.2101,84.1965
117.0287,84.1414
117.0287,84.1414
116.8400,84.1228
116.8400,84.1228
116.6513,84.1414
116.6513,84.1414
116.4699,84.1965
116.4699,84.1965
116.3027,84.2858
116.3027,84.2858
116.1561,84.4061
116.1561,84.4061
116.0358,84.5527
116.0358,84.5527
115.9465,84.7199
115.9465,84.7199
115.8914,84.9013
115.8914,84.9013
115.8728,85.0900
115.8728,85.0900
99.0605,85.0900
99.0605,82.5500
115.8728,82.5500
115.8914,82.7387
115.8914,82.7387
115.9465,82.9201
115.9465,82.9201
116.0148,83.0480
116.0358,83.0873
116.1561,83.2339
116.3027,83.3542
116.4699,83.4435
116.5963,83.4819
116.6513,83.4986
116.6513,83.4986
116.8400,83.5172
116.8400,83.5172
116.8400,83.5172
117.0287,83.4986
117.0287,83.4986
117.2101,83.4435
117.3773,83.3542
117.5239,83.2339
117.6442,83.0873
117.7335,82.9201
117.7886,82.7387
117.7886,82.7387
117.8072,82.5500
133.6528,82.5500
133.6714,82.7387
133.6714,82.7387
133.7265,82.9201
133.7265,82.9201
133.7948,83.0480
133.8158,83.0873
133.9361,83.2339
134.0827,83.3542
134.2499,83.4435
134.3763,83.4819
134.4313,83.4986
134.4313,83.4986
134.6200,83.5172
134.6200,83.5172
134.6200,83.5172
134.8087,83.4986
134.8087,83.4986
134.9901,83.4435
135.1573,83.3542
135.3039,83.2339
135.4242,83.0873
135.5135,82.9201
135.5686,82.7387
135.5686,82.7387
135.5872,82.5500
135.5872,82.5500
135.5686,82.3613
135.5686,82.3613
135.5519,82.3063
135.5135,82.1799
135.4242,82.0127
135.3039,81.8661
135.1573,81.7458
135.1180,81.7248
134.9901,81.6565
134.9901,81.6565
134.8087,81.6014
134.8087,81.6014
134.6200,81.5828
134.6200,81.5828
134.4313,81.6014
134.4313,81.6014
134.2499,81.6565
134.2499,81.6565
134.0827,81.7458
134.0827,81.7458
133.9361,81.8661
133.9361,81.8661
133.8158,82.0127
133.8158,82.0127
133.7265,82.1799
133.7265,82.1799
133.6714,82.3613
133.6714,82.3613
133.6528,82.5500
133.6528,82.5500
117.8072,82.5500
117.8072,82.5500
117.7886,82.3613
117.7886,82.3613
117.7719,82.3063
117.7335,82.1799
117.6442,82.0127
117.5239,81.8661
117.3773,81.7458
117.3380,81.7248
117.2101,81.6565
117.2101,81.6565
117.0287,81.6014
117.0287,81.6014
116.8400,81.5828
116.8400,81.5828
116.6513,81.6014
116.6513,81.6014
116.4699,81.6565
116.4699,81.6565
116.3027,81.7458
116.3027,81.7458
116.1561,81.8661
116.1561,81.8661
116.0358,82.0127
116.0358,82.0127
115.9465,82.1799
115.9465,82.1799
115.8914,82.3613
115.8914,82.3613
115.8728,82.5500
115.8728,82.5500
99.0605,82.5500
99.0605,80.0100
115.8728,80.0100
115.8914,80.1987
115.8914,80.1987
115.9465,80.3801
115.9465,80.3801
116.0148,80.5080
116.0358,80.5473
116.1561,80.6939
116.3027,80.8142
116.4699,80.9035
116.5963,80.9419
116.6513,80.9586
116.6513,80.9586
116.8400,80.9772
116.8400,80.9772
116.8400,80.9772
117.0287,80.9586
117.0287,80.9586
117.2101,80.9035
117.3773,80.8142
117.5239,80.6939
117.6442,80.5473
117.7335,80.3801
117.7886,80.1987
117.7886,80.1987
117.8072,80.0100
133.6528,80.0100
133.6714,80.1987
133.6714,80.1987
133.7265,80.3801
133.7265,80.3801
133.7948,80.5080
133.8158,80.5473
133.9361,80.6939
134.0827,80.8142
134.2499,80.9035
134.3763,80.9419
134.4313,80.9586
134.4313,80.9586
134.6200,80.9772
134.6200,80.9772
134.6200,80.9772
134.8087,80.9586
134.8087,80.9586
134.9901,80.9035
135.1573,80.8142
135.3039,80.6939
135.4242,80.5473
135.5135,80.3801
135.5686,80.1987
135.5686,80.1987
135.5872,80.0100
135.5872,80.0100
135.5686,79.8213
135.5686,79.8213
135.5519,79.7663
135.5135,79.6399
135.4242,79.4727
135.3039,79.3261
135.1573,79.2058
135.1180,79.1848
134.9901,79.1165
134.9901,79.1165
134.8087,79.0614
134.8087,79.0614
134.6200,79.0428
134.6200,79.0428
134.4313,79.0614
134.4313,79.0614
134.2499,79.1165
134.2499,79.1165
134.0827,79.2058
134.0827,79.2058
133.9361,79.3261
133.9361,79.3261
133.8158,79.4727
133.8158,79.4727
133.7265,79.6399
133.7265,79.6399
133.6714,79.8213
133.6714,79.8213
133.6528,80.0100
133.6528,80.0100
117.8072,80.0100
117.8072,80.0100
117.7886,79.8213
117.7886,79.8213
117.7719,79.7663
117.7335,79.6399
117.6442,79.4727
117.5239,79.3261
117.3773,79.2058
117.3380,79.1848
117.2101,79.1165
117.2101,79.1165
117.0287,79.0614
117.0287,79.0614
116.8400,79.0428
116.8400,79.0428
116.6513,79.0614
116.6513,79.0614
116.4699,79.1165
116.4699,79.1165
116.3027,79.2058
116.3027,79.2058
116.1561,79.3261
116.1561,79.3261
116.0358,79.4727
116.0358,79.4727
115.9465,79.6399
115.9465,79.6399
115.8914,79.8213
115.8914,79.8213
115.8728,80.0100
115.8728,80.0100
99.0605,80.0100
99.0605,77.4700
115.8728,77.4700
115.8914,77.6587
115.8914,77.6587
115.9465,77.8401
115.9465,77.8401
116.0148,77.9680
116.0358,78.0073
116.1561,78.1539
116.3027,78.2742
116.4699,78.3635
116.5963,78.4019
116.6513,78.4186
116.6513,78.4186
116.8400,78.4372
116.8400,78.4372
116.8400,78.4372
117.0287,78.4186
117.0287,78.4186
117.2101,78.3635
117.3773,78.2742
117.5239,78.1539
117.6442,78.0073
117.7335,77.8401
117.7886,77.6587
117.7886,77.6587
117.8072,77.4700
133.6528,77.4700
133.6714,77.6587
133.6714,77.6587
133.7265,77.8401
133.7265,77.8401
133.7948,77.9680
133.8158,78.0073
133.9361,78.1539
134.0827,78.2742
134.2499,78.3635
134.3763,78.4019
134.4313,78.4186
134.4313,78.4186
134.6200,78.4372
134.6200,78.4372
134.6200,78.4372
134.8087,78.4186
134.8087,78.4186
134.9901,78.3635
135.1573,78.2742
135.3039,78.1539
135.4242,78.0073
135.5135,77.8401
135.5686,77.6587
135.5686,77.6587
135.5872,77.4700
135.5872,77.4700
135.5686,77.2813
135.5686,77.2813
135.5519,77.2263
135.5135,77.0999
135.4242,76.9327
135.3039,76.7861
135.1573,76.6658
135.1180,76.6448
134.9901,76.5765
134.9901,76.5765
134.8087,76.5214
134.8087,76.5214
134.6200,76.5028
134.6200,76.5028
134.4313,76.5214
134.4313,76.5214
134.2499,76.5765
134.2499,76.5765
134.0827,76.6658
134.0827,76.6658
133.9361,76.7861
133.9361,76.7861
133.8158,76.9327
133.8158,76.9327
133.7265,77.0999
133.7265,77.0999
133.6714,77.2813
133.6714,77.2813
133.6528,77.4700
133.6528,77.4700
117.8072,77.4700
117.8072,77.4700
117.7886,77.2813
117.7886,77.2813
117.7719,77.2263
117.7335,77.0999
117.6442,76.9327
117.5239,76.7861
117.3773,76.6658
117.3380,76.6448
117.2101,76.5765
117.2101,76.5765
117.0287,76.5214
117.0287,76.5214
116.8400,76.5028
116.8400,76.5028
116.6513,76.5214
116.6513,76.5214
116.4699,76.5765
116.4699,76.5765
116.3027,76.6658
116.3027,76.6658
116.1561,76.7861
116.1561,76.7861
116.0358,76.9327
116.0358,76.9327
115.9465,77.0999
115.9465,77.0999
115.8914,77.2813
115.8914,77.2813
115.8728,77.4700
115.8728,77.4700
99.0605,77.4700
99.0605,74.9300
115.8728,74.9300
115.8914,75.1187
115.8914,75.1187
115.9465,75.3001
115.9465,75.3001
116.0148,75.4280
116.0358,75.4673
116.1561,75.6139
116.3027,75.7342
116.4699,75.8235
116.5963,75.8619
116.6513,75.8786
116.6513,75.8786
116.8400,75.8972
116.8400,75.8972
116.8400,75.8972
117.0287,75.8786
117.0287,75.8786
117.2101,75.8235
117.3773,75.7342
117.5239,75.6139
117.6442,75.4673
117.7335,75.3001
117.7886,75.1187
117.7886,75.1187
117.8072,74.9300
133.6528,74.9300
133.6714,75.1187
133.6714,75.1187
133.7265,75.3001
133.7265,75.3001
133.7948,75.4280
133.8158,75.4673
133.9361,75.6139
134.0827,75.7342
134.2499,75.8235
134.3763,75.8619
134.4313,75.8786
134.4313,75.8786
134.6200,75.8972
134.6200,75.8972
134.6200,75.8972
134.8087,75.8786
134.8087,75.8786
134.9901,75.8235
135.1573,75.7342
135.3039,75.6139
135.4242,75.4673
135.5135,75.3001
135.5686,75.1187
135.5686,75.1187
135.5872,74.9300
135.5872,74.9300
135.5686,74.7413
135.5686,74.7413
135.5519,74.6863
135.5135,74.5599
135.4242,74.3927
135.3039,74.2461
135.1573,74.1258
135.1180,74.1048
134.9901,74.0365
134.9901,74.0365
134.8087,73.9814
134.8087,73.9814
134.6200,73.9628
134.6200,73.9628
134.4313,73.9814
134.4313,73.9814
134.2499,74.0365
134.2499,74.0365
134.0827,74.1258
134.0827,74.1258
133.9361,74.2461
133.9361,74.2461
133.8158,74.3927
133.8158,74.3927
133.7265,74.5599
133.7265,74.5599
133.6714,74.7413
133.6714,74.7413
133.6528,74.9300
133.6528,74.9300
117.8072,74.9300
117.8072,74.9300
117.7886,74.7413
117.7886,74.7413
117.7719,74.6863
117.7335,74.5599
117.6442,74.3927
117.5239,74.2461
117.3773,74.1258
117.3380,74.1048
117.2101,74.0365
117.2101,74.0365
117.0287,73.9814
117.0287,73.9814
116.8400,73.9628
116.8400,73.9628
116.6513,73.9814
116.6513,73.9814
116.4699,74.0365
116.4699,74.0365
116.3027,74.1258
116.3027,74.1258
116.1561,74.2461
116.1561,74.2461
116.0358,74.3927
116.0358,74.3927
115.9465,74.5599
115.9465,74.5599
115.8914,74.7413
115.8914,74.7413
115.8728,74.9300
115.8728,74.9300
99.0605,74.9300
99.0605,72.3900
115.8728,72.3900
115.8914,72.5787
115.8914,72.5787
115.9465,72.7601
115.9465,72.7601
116.0148,72.8880
116.0358,72.9273
116.1561,73.0739
116.3027,73.1942
116.4699,73.2835
116.5963,73.3219
116.6513,73.3386
116.6513,73.3386
116.8400,73.3572
116.8400,73.3572
116.8400,73.3572
117.0287,73.3386
117.0287,73.3386
117.2101,73.2835
117.3773,73.1942
117.5239,73.0739
117.6442,72.9273
117.7335,72.7601
117.7886,72.5787
117.7886,72.5787
117.8072,72.3900
133.6528,72.3900
133.6714,72.5787
133.6714,72.5787
133.7265,72.7601
133.7265,72.7601
133.7948,72.8880
133.8158,72.9273
133.9361,73.0739
134.0827,73.1942
134.2499,73.2835
134.3763,73.3219
134.4313,73.3386
134.4313,73.3386
134.6200,73.3572
134.6200,73.3572
134.6200,73.3572
134.8087,73.3386
134.8087,73.3386
134.9901,73.2835
135.1573,73.1942
135.3039,73.0739
135.4242,72.9273
135.5135,72.7601
135.5686,72.5787
135.5686,72.5787
135.5872,72.3900
135.5872,72.3900
135.5686,72.2013
135.5686,72.2013
135.5519,72.1463
135.5135,72.0199
135.4242,71.8527
135.3039,71.7061
135.1573,71.5858
135.1180,71.5648
134.9901,71.4965
134.9901,71.4965
134.8087,71.4414
134.8087,71.4414
134.6200,71.4228
134.6200,71.4228
134.4313,71.4414
134.4313,71.4414
134.2499,71.4965
134.2499,71.4965
134.0827,71.5858
134.0827,71.5858
133.9361,71.7061
133.9361,71.7061
133.8158,71.8527
133.8158,71.8527
133.7265,72.0199
133.7265,72.0199
133.6714,72.2013
133.6714,72.2013
133.6528,72.3900
133.6528,72.3900
117.8072,72.3900
117.8072,72.3900
117.7886,72.2013
117.7886,72.2013
117.7719,72.1463
117.7335,72.0199
117.6442,71.8527
117.5239,71.7061
117.3773,71.5858
117.3380,71.5648
117.2101,71.4965
117.2101,71.4965
117.0287,71.4414
117.0287,71.4414
116.8400,71.4228
116.8400,71.4228
116.6513,71.4414
116.6513,71.4414
116.4699,71.4965
116.4699,71.4965
116.3027,71.5858
116.3027,71.5858
116.1561,71.7061
116.1561,71.7061
116.0358,71.8527
116.0358,71.8527
115.9465,72.0199
115.9465,72.0199
115.8914,72.2013
115.8914,72.2013
115.8728,72.3900
115.8728,72.3900
99.0605,72.3900
99.0605,69.8500
115.8728,69.8500
115.8914,70.0387
115.8914,70.0387
115.9465,70.2201
115.9465,70.2201
116.0148,70.3480
116.0358,70.3873
116.1561,70.5339
116.3027,70.6542
116.4699,70.7435
116.5963,70.7819
116.6513,70.7986
116.6513,70.7986
116.8400,70.8172
116.8400,70.8172
116.8400,70.8172
117.0287,70.7986
117.0287,70.7986
117.2101,70.7435
117.3773,70.6542
117.5239,70.5339
117.6442,70.3873
117.7335,70.2201
117.7886,70.0387
117.7886,70.0387
117.8072,69.8500
133.6528,69.8500
133.6714,70.0387
133.6714,70.0387
133.7265,70.2201
133.7265,70.2201
133.7948,70.3480
133.8158,70.3873
133.9361,70.5339
134.0827,70.6542
134.2499,70.7435
134.3763,70.7819
134.4313,70.7986
134.4313,70.7986
134.6200,70.8172
134.6200,70.8172
134.6200,70.8172
134.8087,70.7986
134.8087,70.7986
134.9901,70.7435
135.1573,70.6542
135.3039,70.5339
135.4242,70.3873
135.5135,70.2201
135.5686,70.0387
135.5686,70.0387
135.5872,69.8500
135.5872,69.8500
135.5686,69.6613
135.5686,69.6613
135.5519,69.6063
135.5135,69.4799
135.4242,69.3127
135.3039,69.1661
135.1573,69.0458
135.1180,69.0248
134.9901,68.9565
134.9901,68.9565
134.8087,68.9014
134.8087,68.9014
134.6200,68.8828
134.6200,68.8828
134.4313,68.9014
134.4313,68.9014
134.2499,68.9565
134.2499,68.9565
134.0827,69.0458
134.0827,69.0458
133.9361,69.1661
133.9361,69.1661
133.8158,69.3127
133.8158,69.3127
133.7265,69.4799
133.7265,69.4799
133.6714,69.6613
133.6714,69.6613
133.6528,69.8500
133.6528,69.8500
117.8072,69.8500
117.8072,69.8500
117.7886,69.6613
117.7886,69.6613
117.7719,69.6063
117.7335,69.4799
117.6442,69.3127
117.5239,69.1661
117.3773,69.0458
117.3380,69.0248
117.2101,68.9565
117.2101,68.9565
117.0287,68.9014
117.0287,68.9014
116.8400,68.8828
116.8400,68.8828
116.6513,68.9014
116.6513,68.9014
116.4699,68.9565
116.4699,68.9565
116.3027,69.0458
116.3027,69.0458
116.1561,69.1661
116.1561,69.1661
116.0358,69.3127
116.0358,69.3127
115.9465,69.4799
115.9465,69.4799
115.8914,69.6613
115.8914,69.6613
115.8728,69.8500
115.8728,69.8500
99.0605,69.8500
99.0605,67.3100
115.8728,67.3100
115.8914,67.4987
115.8914,67.4987
115.9465,67.6801
115.9465,67.6801
116.0148,67.8080
116.0358,67.8473
116.1561,67.9939
116.3027,68.1142
116.4699,68.2035
116.5963,68.2419
116.6513,68.2586
116.6513,68.2586
116.8400,68.2772
116.8400,68.2772
116.8400,68.2772
117.0287,68.2586
117.0287,68.2586
117.2101,68.2035
117.3773,68.1142
117.5239,67.9939
117.6442,67.8473
117.7335,67.6801
117.7886,67.4987
117.7886,67.4987
117.8072,67.3100
133.6528,67.3100
133.6714,67.4987
133.6714,67.4987
133.7265,67.6801
133.7265,67.6801
133.7948,67.8080
133.8158,67.8473
133.9361,67.9939
134.0827,68.1142
134.2499,68.2035
134.3763,68.2419
134.4313,68.2586
134.4313,68.2586
134.6200,68.2772
134.6200,68.2772
134.6200,68.2772
134.8087,68.2586
134.8087,68.2586
134.9901,68.2035
135.1573,68.1142
135.3039,67.9939
135.4242,67.8473
135.5135,67.6801
135.5686,67.4987
135.5686,67.4987
135.5872,67.3100
135.5872,67.3100
135.5686,67.1213
135.5686,67.1213
135.5519,67.0663
135.5135,66.9399
135.4242,66.7727
135.3039,66.6261
135.1573,66.5058
135.1180,66.4848
134.9901,66.4165
134.9901,66.4165
134.8087,66.3614
134.8087,66.3614
134.6200,66.3428
134.6200,66.3428
134.4313,66.3614
134.4313,66.3614
134.2499,66.4165
134.2499,66.4165
134.0827,66.5058
134.0827,66.5058
133.9361,66.6261
133.9361,66.6261
133.8158,66.7727
133.8158,66.7727
133.7265,66.9399
133.7265,66.9399
133.6714,67.1213
133.6714,67.1213
133.6528,67.3100
133.6528,67.3100
117.8072,67.3100
117.8072,67.3100
117.7886,67.1213
117.7886,67.1213
117.7719,67.0663
117.7335,66.9399
117.6442,66.7727
117.5239,66.6261
117.3773,66.5058
117.3380,66.4848
117.2101,66.4165
117.2101,66.4165
117.0287,66.3614
117.0287,66.3614
116.8400,66.3428
116.8400,66.3428
116.6513,66.3614
116.6513,66.3614
116.4699,66.4165
116.4699,66.4165
116.3027,66.5058
116.3027,66.5058
116.1561,66.6261
116.1561,66.6261
116.0358,66.7727
116.0358,66.7727
115.9465,66.9399
115.9465,66.9399
115.8914,67.1213
115.8914,67.1213
115.8728,67.3100
115.8728,67.3100
99.0605,67.3100
99.0605,64.7700
115.8728,64.7700
115.8914,64.9587
115.8914,64.9587
115.9465,65.1401
115.9465,65.1401
116.0148,65.2680
116.0358,65.3073
116.1561,65.4539
116.3027,65.5742
116.4699,65.6635
116.5963,65.7019
116.6513,65.7186
116.6513,65.7186
116.8400,65.7372
116.8400,65.7372
116.8400,65.7372
117.0287,65.7186
117.0287,65.7186
117.2101,65.6635
117.3773,65.5742
117.5239,65.4539
117.6442,65.3073
117.7335,65.1401
117.7886,64.9587
117.7886,64.9587
117.8072,64.7700
133.6528,64.7700
133.6714,64.9587
133.6714,64.9587
133.7265,65.1401
133.7265,65.1401
133.7948,65.2680
133.8158,65.3073
133.9361,65.4539
134.0827,65.5742
134.2499,65.6635
134.3763,65.7019
134.4313,65.7186
134.4313,65.7186
134.6200,65.7372
134.6200,65.7372
134.6200,65.7372
134.8087,65.7186
134.8087,65.7186
134.9901,65.6635
135.1573,65.5742
135.3039,65.4539
135.4242,65.3073
135.5135,65.1401
135.5686,64.9587
135.5686,64.9587
135.5872,64.7700
135.5872,64.7700
135.5686,64.5813
135.5686,64.5813
135.5519,64.5263
135.5135,64.3999
135.4242,64.2327
135.3039,64.0861
135.1573,63.9658
135.1180,63.9448
134.9901,63.8765
134.9901,63.8765
134.8087,63.8214
134.8087,63.8214
134.6200,63.8028
134.6200,63.8028
134.4313,63.8214
134.4313,63.8214
134.2499,63.8765
134.2499,63.8765
134.0827,63.9658
134.0827,63.9658
133.9361,64.0861
133.9361,64.0861
133.8158,64.2327
133.8158,64.2327
133.7265,64.3999
133.7265,64.3999
133.6714,64.5813
133.6714,64.5813
133.6528,64.7700
133.6528,64.7700
117.8072,64.7700
117.8072,64.7700
117.7886,64.5813
117.7886,64.5813
117.7719,64.5263
117.7335,64.3999
117.6442,64.2327
117.5239,64.0861
117.3773,63.9658
117.3380,63.9448
117.2101,63.8765
117.2101,63.8765
117.0287,63.8214
117.0287,63.8214
116.8400,63.8028
116.8400,63.8028
116.6513,63.8214
116.6513,63.8214
116.4699,63.8765
116.4699,63.8765
116.3027,63.9658
116.3027,63.9658
116.1561,64.0861
116.1561,64.0861
116.0358,64.2327
116.0358,64.2327
115.9465,64.3999
115.9465,64.3999
115.8914,64.5813
115.8914,64.5813
115.8728,64.7700
115.8728,64.7700
99.0605,64.7700
99.0605,62.2300
115.8728,62.2300
115.8914,62.4187
115.8914,62.4187
115.9465,62.6001
115.9465,62.6001
116.0148,62.7280
116.0358,62.7673
116.1561,62.9139
116.3027,63.0342
116.4699,63.1235
116.5963,63.1619
116.6513,63.1786
116.6513,63.1786
116.8400,63.1972
116.8400,63.1972
116.8400,63.1972
117.0287,63.1786
117.0287,63.1786
117.2101,63.1235
117.3773,63.0342
117.5239,62.9139
117.6442,62.7673
117.7335,62.6001
117.7886,62.4187
117.7886,62.4187
117.8072,62.2300
133.6528,62.2300
133.6714,62.4187
133.6714,62.4187
133.7265,62.6001
133.7265,62.6001
133.7948,62.7280
133.8158,62.7673
133.9361,62.9139
134.0827,63.0342
134.2499,63.1235
134.3763,63.1619
134.4313,63.1786
134.4313,63.1786
134.6200,63.1972
134.6200,63.1972
134.6200,63.1972
134.8087,63.1786
134.8087,63.1786
134.9901,63.1235
135.1573,63.0342
135.3039,62.9139
135.4242,62.7673
135.5135,62.6001
135.5686,62.4187
135.5686,62.4187
135.5872,62.2300
135.5872,62.2300
135.5686,62.0413
135.5686,62.0413
135.5519,61.9863
135.5135,61.8599
135.4242,61.6927
135.3039,61.5461
135.1573,61.4258
135.1180,61.4048
134.9901,61.3365
134.9901,61.3365
134.8087,61.2814
134.8087,61.2814
134.6200,61.2628
134.6200,61.2628
134.4313,61.2814
134.4313,61.2814
134.2499,61.3365
134.2499,61.3365
134.0827,61.4258
134.0827,61.4258
133.9361,61.5461
133.9361,61.5461
133.8158,61.6927
133.8158,61.6927
133.7265,61.8599
133.7265,61.8599
133.6714,62.0413
133.6714,62.0413
133.6528,62.2300
133.6528,62.2300
117.8072,62.2300
117.8072,62.2300
117.7886,62.0413
117.7886,62.0413
117.7719,61.9863
117.7335,61.8599
117.6442,61.6927
117.5239,61.5461
117.3773,61.4258
117.3380,61.4048
117.2101,61.3365
117.2101,61.3365
117.0287,61.2814
117.0287,61.2814
116.8400,61.2628
116.8400,61.2628
116.6513,61.2814
116.6513,61.2814
116.4699,61.3365
116.4699,61.3365
116.3027,61.4258
116.3027,61.4258
116.1561,61.5461
116.1561,61.5461
116.0358,61.6927
116.0358,61.6927
115.9465,61.8599
115.9465,61.8599
115.8914,62.0413
115.8914,62.0413
115.8728,62.2300
115.8728,62.2300
99.0605,62.2300
99.0605,59.6900
115.8728,59.6900
115.8914,59.8787
115.8914,59.8787
115.9465,60.0601
115.9465,60.0601
116.0148,60.1880
116.0358,60.2273
116.1561,60.3739
116.3027,60.4942
116.4699,60.5835
116.5963,60.6219
116.6513,60.6386
116.6513,60.6386
116.8400,60.6572
116.8400,60.6572
116.8400,60.6572
117.0287,60.6386
117.0287,60.6386
117.2101,60.5835
117.3773,60.4942
117.5239,60.3739
117.6442,60.2273
117.7335,60.0601
117.7886,59.8787
117.7886,59.8787
117.8072,59.6900
133.6528,59.6900
133.6714,59.8787
133.6714,59.8787
133.7265,60.0601
133.7265,60.0601
133.7948,60.1880
133.8158,60.2273
133.9361,60.3739
134.0827,60.4942
134.2499,60.5835
134.3763,60.6219
134.4313,60.6386
134.4313,60.6386
134.6200,60.6572
134.6200,60.6572
134.6200,60.6572
134.8087,60.6386
134.8087,60.6386
134.9901,60.5835
135.1573,60.4942
135.3039,60.3739
135.4242,60.2273
135.5135,60.0601
135.5686,59.8787
135.5686,59.8787
135.5872,59.6900
135.5872,59.6900
135.5686,59.5013
135.5686,59.5013
135.5519,59.4463
135.5135,59.3199
135.4242,59.1527
135.3039,59.0061
135.1573,58.8858
135.1180,58.8648
134.9901,58.7965
134.9901,58.7965
134.8087,58.7414
134.8087,58.7414
134.6200,58.7228
134.6200,58.7228
134.4313,58.7414
134.4313,58.7414
134.2499,58.7965
134.2499,58.7965
134.0827,58.8858
134.0827,58.8858
133.9361,59.0061
133.9361,59.0061
133.8158,59.1527
133.8158,59.1527
133.7265,59.3199
133.7265,59.3199
133.6714,59.5013
133.6714,59.5013
133.6528,59.6900
133.6528,59.6900
117.8072,59.6900
117.8072,59.6900
117.7886,59.5013
117.7886,59.5013
117.7719,59.4463
117.7335,59.3199
117.6442,59.1527
117.5239,59.0061
117.3773,58.8858
117.3380,58.8648
117.2101,58.7965
117.2101,58.7965
117.0287,58.7414
117.0287,58.7414
116.8400,58.7228
116.8400,58.7228
116.6513,58.7414
116.6513,58.7414
116.4699,58.7965
116.4699,58.7965
116.3027,58.8858
116.3027,58.8858
116.1561,59.0061
116.1561,59.0061
116.0358,59.1527
116.0358,59.1527
115.9465,59.3199
115.9465,59.3199
115.8914,59.5013
115.8914,59.5013
115.8728,59.6900
115.8728,59.6900
99.0605,59.6900
99.0605,55.8800
100.9345,55.8800
100.9546,56.2389
100.9546,56.2389
101.0148,56.5933
101.0148,56.5933
101.1143,56.9387
101.2519,57.2708
101.4258,57.5854
101.6021,57.8339
101.6338,57.8786
101.8733,58.1467
102.1414,58.3862
102.4345,58.5942
102.4346,58.5942
102.7492,58.7681
102.7492,58.7681
103.0813,58.9057
103.4267,59.0052
103.4267,59.0052
103.4267,59.0052
103.7811,59.0654
103.7811,59.0654
103.7811,59.0654
104.1400,59.0855
104.1400,59.0855
104.1400,59.0855
104.4989,59.0654
104.4989,59.0654
104.4989,59.0654
104.8533,59.0052
105.1987,58.9057
105.5308,58.7681
105.8455,58.5942
106.1386,58.3862
106.4067,58.1467
106.6462,57.8786
106.8542,57.5855
107.0281,57.2708
107.0781,57.1500
115.8728,57.1500
115.8914,57.3387
115.8914,57.3387
115.9465,57.5201
115.9465,57.5201
115.9814,57.5855
116.0358,57.6873
116.1561,57.8339
116.3027,57.9542
116.4699,58.0435
116.5963,58.0819
116.6513,58.0986
116.6513,58.0986
116.8400,58.1172
116.8400,58.1172
116.8400,58.1172
117.0287,58.0986
117.0287,58.0986
117.2101,58.0435
117.3773,57.9542
117.5239,57.8339
117.6442,57.6873
117.7335,57.5201
117.7886,57.3387
117.7886,57.3387
117.8072,57.1500
133.6528,57.1500
133.6714,57.3387
133.6714,57.3387
133.7265,57.5201
133.7265,57.5201
133.7614,57.5855
133.8158,57.6873
133.9361,57.8339
134.0827,57.9542
134.2499,58.0435
134.3763,58.0819
134.4313,58.0986
134.4313,58.0986
134.6200,58.1172
134.6200,58.1172
134.6200,58.1172
134.8087,58.0986
134.8087,58.0986
134.9901,58.0435
135.1573,57.9542
135.3039,57.8339
135.4242,57.6873
135.5135,57.5201
135.5686,57.3387
135.5686,57.3387
135.5872,57.1500
135.5872,57.1500
135.5686,56.9613
135.5686,56.9613
135.5519,56.9063
135.5135,56.7799
135.4242,56.6127
135.3039,56.4661
135.1573,56.3458
135.1180,56.3248
134.9901,56.2565
134.9901,56.2565
134.8087,56.2014
134.8087,56.2014
134.6200,56.1828
134.6200,56.1828
134.4313,56.2014
134.4313,56.2014
134.2499,56.2565
134.2499,56.2565
134.0827,56.3458
134.0827,56.3458
133.9361,56.4661
133.9361,56.4661
133.8158,56.6127
133.8158,56.6127
133.7265,56.7799
133.7265,56.7799
133.6714,56.9613
133.6714,56.9613
133.6528,57.1500
133.6528,57.1500
117.8072,57.1500
117.8072,57.1500
117.7886,56.9613
117.7886,56.9613
117.7719,56.9063
117.7335,56.7799
117.6442,56.6127
117.5239,56.4661
117.3773,56.3458
117.3380,56.3248
117.2101,56.2565
117.2101,56.2565
117.0287,56.2014
117.0287,56.2014
116.8400,56.1828
116.8400,56.1828
116.6513,56.2014
116.6513,56.2014
116.4699,56.2565
116.4699,56.2565
116.3027,56.3458
116.3027,56.3458
116.1561,56.4661
116.1561,56.4661
116.0358,56.6127
116.0358,56.6127
115.9465,56.7799
115.9465,56.7799
115.8914,56.9613
115.8914,56.9613
115.8728,57.1500
115.8728,57.1500
107.0781,57.1500
107.1657,56.9387
107.2652,56.5933
107.3254,56.2389
107.3455,55.8800
144.1145,55.8800
144.1346,56.2389
144.1346,56.2389
144.1948,56.5933
144.1948,56.5933
144.2943,56.9387
144.4319,57.2708
144.6058,57.5854
144.7821,57.8339
144.8138,57.8786
145.0533,58.1467
145.3214,58.3862
145.6145,58.5942
145.6145,58.5942
145.9292,58.7681
145.9292,58.7681
146.2613,58.9057
146.6067,59.0052
146.6067,59.0052
146.6067,59.0052
146.9611,59.0654
146.9611,59.0654
146.9611,59.0654
147.3200,59.0855
147.3200,59.0855
147.3200,59.0855
147.6789,59.0654
147.6789,59.0654
147.6789,59.0654
148.0333,59.0052
148.3787,58.9057
148.7108,58.7681
149.0255,58.5942
149.3186,58.3862
149.5867,58.1467
149.8262,57.8786
150.0342,57.5855
150.2081,57.2708
150.3457,56.9387
150.4452,56.5933
150.5054,56.2389
150.5255,55.8800
150.5054,55.5211
150.4452,55.1667
150.3457,54.8213
150.2081,54.4892
150.2081,54.4892
150.0342,54.1745
149.9619,54.0727
149.8262,53.8814
149.5867,53.6133
149.3186,53.3738
149.3186,53.3738
149.3186,53.3738
149.0254,53.1658
148.7108,52.9919
148.7108,52.9919
148.3787,52.8543
148.0333,52.7548
148.0333,52.7548
147.6789,52.6946
147.6789,52.6946
147.3200,52.6745
147.3200,52.6745
146.9611,52.6946
146.9611,52.6946
146.6067,52.7548
146.6067,52.7548
146.2613,52.8543
145.9292,52.9919
145.6145,53.1658
145.3214,53.3738
145.0533,53.6133
145.0533,53.6133
144.8138,53.8814
144.6058,54.1745
144.4319,54.4892
144.2943,54.8213
144.1948,55.1667
144.1948,55.1667
144.1346,55.5211
144.1346,55.5211
144.1145,55.8800
144.1145,55.8800
107.3455,55.8800
107.3455,55.8800
107.3254,55.5211
107.2652,55.1667
107.1657,54.8213
107.0781,54.6100
115.8728,54.6100
115.8914,54.7987
115.8914,54.7987
115.9465,54.9801
115.9465,54.9801
116.0148,55.1080
116.0358,55.1473
116.0358,55.1473
116.0358,55.1473
116.0517,55.1667
116.1561,55.2939
116.3027,55.4142
116.4699,55.5035
116.5963,55.5419
116.6513,55.5586
116.6513,55.5586
116.8400,55.5772
116.8400,55.5772
116.8400,55.5772
117.0287,55.5586
117.0287,55.5586
117.2101,55.5035
117.3773,55.4142
117.5239,55.2939
117.6442,55.1473
117.7335,54.9801
117.7886,54.7987
117.7886,54.7987
117.8072,54.6100
133.6528,54.6100
133.6714,54.7987
133.6714,54.7987
133.7265,54.9801
133.7265,54.9801
133.7948,55.1080
133.8158,55.1473
133.8158,55.1473
133.8158,55.1473
133.8317,55.1667
133.9361,55.2939
134.0827,55.4142
134.2499,55.5035
134.3763,55.5419
134.4313,55.5586
134.4313,55.5586
134.6200,55.5772
134.6200,55.5772
134.6200,55.5772
134.8087,55.5586
134.8087,55.5586
134.9901,55.5035
135.1573,55.4142
135.3039,55.2939
135.4242,55.1473
135.5135,54.9801
135.5686,54.7987
135.5686,54.7987
135.5872,54.6100
135.5872,54.6100
135.5686,54.4213
135.5686,54.4213
135.5519,54.3663
135.5135,54.2399
135.4242,54.0727
135.3039,53.9261
135.1573,53.8058
135.1180,53.7848
134.9901,53.7165
134.9901,53.7165
134.8087,53.6614
134.8087,53.6614
134.6200,53.6428
134.6200,53.6428
134.4313,53.6614
134.4313,53.6614
134.2499,53.7165
134.2499,53.7165
134.0827,53.8058
134.0827,53.8058
133.9361,53.9261
133.9361,53.9261
133.8158,54.0727
133.8158,54.0727
133.7265,54.2399
133.7265,54.2399
133.6714,54.4213
133.6714,54.4213
133.6528,54.6100
133.6528,54.6100
117.8072,54.6100
117.8072,54.6100
117.7886,54.4213
117.7886,54.4213
117.7719,54.3663
117.7335,54.2399
117.6442,54.0727
117.5239,53.9261
117.3773,53.8058
117.3380,53.7848
117.2101,53.7165
117.2101,53.7165
117.0287,53.6614
117.0287,53.6614
116.8400,53.6428
116.8400,53.6428
116.6513,53.6614
116.6513,53.6614
116.4699,53.7165
116.4699,53.7165
116.3027,53.8058
116.3027,53.8058
116.1561,53.9261
116.1561,53.9261
116.0358,54.0727
116.0358,54.0727
115.9465,54.2399
115.9465,54.2399
115.8914,54.4213
115.8914,54.4213
115.8728,54.6100
115.8728,54.6100
107.0781,54.6100
107.0281,54.4892
107.0281,54.4892
106.8542,54.1745
106.7819,54.0727
106.6462,53.8814
106.4067,53.6133
106.1386,53.3738
106.1386,53.3738
106.1386,53.3738
105.8454,53.1658
105.5308,52.9919
105.5308,52.9919
105.1987,52.8543
104.8533,52.7548
104.8533,52.7548
104.4989,52.6946
104.4989,52.6946
104.1400,52.6745
104.1400,52.6745
103.7811,52.6946
103.7811,52.6946
103.4267,52.7548
103.4267,52.7548
103.0813,52.8543
102.7492,52.9919
102.4346,53.1658
102.1414,53.3738
101.8733,53.6133
101.8733,53.6133
101.6338,53.8814
101.4258,54.1745
101.2519,54.4892
101.1143,54.8213
101.0148,55.1667
101.0148,55.1667
100.9546,55.5211
100.9546,55.5211
100.9345,55.8800
100.9345,55.8800
99.0605,55.8800
99.0605,52.0700
115.8728,52.0700
115.8914,52.2587
115.8914,52.2587
115.9465,52.4401
115.9465,52.4401
116.0148,52.5680
116.0358,52.6073
116.1561,52.7539
116.3027,52.8742
116.4699,52.9635
116.5634,52.9919
116.6513,53.0186
116.6513,53.0186
116.8400,53.0372
116.8400,53.0372
116.8400,53.0372
117.0287,53.0186
117.0287,53.0186
117.2101,52.9635
117.3773,52.8742
117.5239,52.7539
117.6442,52.6073
117.7335,52.4401
117.7886,52.2587
117.7886,52.2587
117.8072,52.0700
133.6528,52.0700
133.6714,52.2587
133.6714,52.2587
133.7265,52.4401
133.7265,52.4401
133.7948,52.5680
133.8158,52.6073
133.9361,52.7539
134.0827,52.8742
134.2499,52.9635
134.3434,52.9919
134.4313,53.0186
134.4313,53.0186
134.6200,53.0372
134.6200,53.0372
134.6200,53.0372
134.8087,53.0186
134.8087,53.0186
134.9901,52.9635
135.1573,52.8742
135.3039,52.7539
135.4242,52.6073
135.5135,52.4401
135.5686,52.2587
135.5686,52.2587
135.5872,52.0700
135.5872,52.0700
135.5686,51.8813
135.5686,51.8813
135.5519,51.8263
135.5135,51.6999
135.4242,51.5327
135.3039,51.3861
135.1573,51.2658
135.1180,51.2448
134.9901,51.1765
134.9901,51.1765
134.8087,51.1214
134.8087,51.1214
134.6200,51.1028
134.6200,51.1028
134.4313,51.1214
134.4313,51.1214
134.2499,51.1765
134.2499,51.1765
134.0827,51.2658
134.0827,51.2658
133.9361,51.3861
133.9361,51.3861
133.8158,51.5327
133.8158,51.5327
133.7265,51.6999
133.7265,51.6999
133.6714,51.8813
133.6714,51.8813
133.6528,52.0700
133.6528,52.0700
117.8072,52.0700
117.8072,52.0700
117.7886,51.8813
117.7886,51.8813
117.7719,51.8263
117.7335,51.6999
117.6442,51.5327
117.5239,51.3861
117.3773,51.2658
117.3380,51.2448
117.2101,51.1765
117.2101,51.1765
117.0287,51.1214
117.0287,51.1214
116.8400,51.1028
116.8400,51.1028
116.6513,51.1214
116.6513,51.1214
116.4699,51.1765
116.4699,51.1765
116.3027,51.2658
116.3027,51.2658
116.1561,51.3861
116.1561,51.3861
116.0358,51.5327
116.0358,51.5327
115.9465,51.6999
115.9465,51.6999
115.8914,51.8813
115.8914,51.8813
115.8728,52.0700
115.8728,52.0700
99.0605,52.0700
99.0605,50.8995
99.0794,50.8413
99.1289,50.8053
99.1595,50.8005
152.3005,50.8005
Z" /> 
</g>
</g>
</g>
<g style="fill:#FFFFFF; fill-opacity:1.0000; 
stroke:#FFFFFF; stroke-width:0.0000; stroke-opacity:1; 
stroke-linecap:round; stroke-linejoin:round;">
<circle cx="104.1400" cy="96.5200" r="1.6000" /> 
</g>
<g style="fill:#FFFFFF; fill-opacity:1.0000; 
stroke:#FFFFFF; stroke-width:0.0212; stroke-opacity:1; 
stroke-linecap:round; stroke-linejoin:round;">
</g>
<g style="fill:#FFFFFF; fill-opacity:1.0000; 
stroke:#FFFFFF; stroke-width:0.0000; stroke-opacity:1; 
stroke-linecap:round; stroke-linejoin:round;">
<circle cx="147.3200" cy="96.5200" r="1.6000" /> 
</g>
<g style="fill:#FFFFFF; fill-opacity:1.0000; 
stroke:#FFFFFF; stroke-width:0.0212; stroke-opacity:1; 
stroke-linecap:round; stroke-linejoin:round;">
</g>
<g style="fill:#FFFFFF; fill-opacity:1.0000; 
stroke:#FFFFFF; stroke-width:0.0000; stroke-opacity:1; 
stroke-linecap:round; stroke-linejoin:round;">
<circle cx="104.1400" cy="55.8800" r="1.6000" /> 
</g>
<g style="fill:#FFFFFF; fill-opacity:1.0000; 
stroke:#FFFFFF; stroke-width:0.0212; stroke-opacity:1; 
stroke-linecap:round; stroke-linejoin:round;">
</g>
<g style="fill:#FFFFFF; fill-opacity:1.0000; 
stroke:#FFFFFF; stroke-width:0.0000; stroke-opacity:1; 
stroke-linecap:round; stroke-linejoin:round;">
<circle cx="147.3200" cy="55.8800" r="1.6000" /> 
</g>
<g style="fill:#FFFFFF; fill-opacity:1.0000; 
stroke:#FFFFFF; stroke-width:0.0212; stroke-opacity:1; 
stroke-linecap:round; stroke-linejoin:round;">
</g>
<g style="fill:#FFFFFF; fill-opacity:1.0000; 
stroke:#FFFFFF; stroke-width:0.0000; stroke-opacity:1; 
stroke-linecap:round; stroke-linejoin:round;">
<circle cx="116.8400" cy="52.0700" r="0.3810" /> 
</g>
<g style="fill:#FFFFFF; fill-opacity:1.0000; 
stroke:#FFFFFF; stroke-width:0.0212; stroke-opacity:1; 
stroke-linecap:round; stroke-linejoin:round;">
</g>
<g style="fill:#FFFFFF; fill-opacity:1.0000; 
stroke:#FFFFFF; stroke-width:0.0000; stroke-opacity:1; 
stroke-linecap:round; stroke-linejoin:round;">
<circle cx="116.8400" cy="54.6100" r="0.3810" /> 
</g>
<g style="fill:#FFFFFF; fill-opacity:1.0000; 
stroke:#FFFFFF; stroke-width:0.0212; stroke-opacity:1; 
stroke-linecap:round; stroke-linejoin:round;">
</g>
<g style="fill:#FFFFFF; fill-opacity:1.0000; 
stroke:#FFFFFF; stroke-width:0.0000; stroke-opacity:1; 
stroke-linecap:round; stroke-linejoin:round;">
<circle cx="116.8400" cy="57.1500" r="0.3810" /> 
</g>
<g style="fill:#FFFFFF; fill-opacity:1.0000; 
stroke:#FFFFFF; stroke-width:0.0212; stroke-opacity:1; 
stroke-linecap:round; stroke-linejoin:round;">
</g>
<g style="fill:#FFFFFF; fill-opacity:1.0000; 
stroke:#FFFFFF; stroke-width:0.0000; stroke-opacity:1; 
stroke-linecap:round; stroke-linejoin:round;">
<circle cx="116.8400" cy="59.6900" r="0.3810" /> 
</g>
<g style="fill:#FFFFFF; fill-opacity:1.0000; 
stroke:#FFFFFF; stroke-width:0.0212; stroke-opacity:1; 
stroke-linecap:round; stroke-linejoin:round;">
</g>
<g style="fill:#FFFFFF; fill-opacity:1.0000; 
stroke:#FFFFFF; stroke-width:0.0000; stroke-opacity:1; 
stroke-linecap:round; stroke-linejoin:round;">
<circle cx="116.8400" cy="62.2300" r="0.3810" /> 
</g>
<g style="fill:#FFFFFF; fill-opacity:1.0000; 
stroke:#FFFFFF; stroke-width:0.0212; stroke-opacity:1; 
stroke-linecap:round; stroke-linejoin:round;">
</g>
<g style="fill:#FFFFFF; fill-opacity:1.0000; 
stroke:#FFFFFF; stroke-width:0.0000; stroke-opacity:1; 
stroke-linecap:round; stroke-linejoin:round;">
<circle cx="116.8400" cy="64.7700" r="0.3810" /> 
</g>
<g style="fill:#FFFFFF; fill-opacity:1.0000; 
stroke:#FFFFFF; stroke-width:0.0212; stroke-opacity:1; 
stroke-linecap:round; stroke-linejoin:round;">
</g>
<g style="fill:#FFFFFF; fill-opacity:1.0000; 
stroke:#FFFFFF; stroke-width:0.0000; stroke-opacity:1; 
stroke-linecap:round; stroke-linejoin:round;">
<circle cx="116.8400" cy="67.3100" r="0.3810" /> 
</g>
<g style="fill:#FFFFFF; fill-opacity:1.0000; 
stroke:#FFFFFF; stroke-width:0.0212; stroke-opacity:1; 
stroke-linecap:round; stroke-linejoin:round;">
</g>
<g style="fill:#FFFFFF; fill-opacity:1.0000; 
stroke:#FFFFFF; stroke-width:0.0000; stroke-opacity:1; 
stroke-linecap:round; stroke-linejoin:round;">
<circle cx="116.8400" cy="69.8500" r="0.3810" /> 
</g>
<g style="fill:#FFFFFF; fill-opacity:1.0000; 
stroke:#FFFFFF; stroke-width:0.0212; stroke-opacity:1; 
stroke-linecap:round; stroke-linejoin:round;">
</g>
<g style="fill:#FFFFFF; fill-opacity:1.0000; 
stroke:#FFFFFF; stroke-width:0.0000; stroke-opacity:1; 
stroke-linecap:round; stroke-linejoin:round;">
<circle cx="116.8400" cy="72.3900" r="0.3810" /> 
</g>
<g style="fill:#FFFFFF; fill-opacity:1.0000; 
stroke:#FFFFFF; stroke-width:0.0212; stroke-opacity:1; 
stroke-linecap:round; stroke-linejoin:round;">
</g>
<g style="fill:#FFFFFF; fill-opacity:1.0000; 
stroke:#FFFFFF; stroke-width:0.0000; stroke-opacity:1; 
stroke-linecap:round; stroke-linejoin:round;">
<circle cx="116.8400" cy="74.9300" r="0.3810" /> 
</g>
<g style="fill:#FFFFFF; fill-opacity:1.0000; 
stroke:#FFFFFF; stroke-width:0.0212; stroke-opacity:1; 
stroke-linecap:round; stroke-linejoin:round;">
</g>
<g style="fill:#FFFFFF; fill-opacity:1.0000; 
stroke:#FFFFFF; stroke-width:0.0000; stroke-opacity:1; 
stroke-linecap:round; stroke-linejoin:round;">
<circle cx="116.8400" cy="77.4700" r="0.3810" /> 
</g>
<g style="fill:#FFFFFF; fill-opacity:1.0000; 
stroke:#FFFFFF; stroke-width:0.0212; stroke-opacity:1; 
stroke-linecap:round; stroke-linejoin:round;">
</g>
<g style="fill:#FFFFFF; fill-opacity:1.0000; 
stroke:#FFFFFF; stroke-width:0.0000; stroke-opacity:1; 
stroke-linecap:round; stroke-linejoin:round;">
<circle cx="116.8400" cy="80.0100" r="0.3810" /> 
</g>
<g style="fill:#FFFFFF; fill-opacity:1.0000; 
stroke:#FFFFFF; stroke-width:0.0212; stroke-opacity:1; 
stroke-linecap:round; stroke-linejoin:round;">
</g>
<g style="fill:#FFFFFF; fill-opacity:1.0000; 
stroke:#FFFFFF; stroke-width:0.0000; stroke-opacity:1; 
stroke-linecap:round; stroke-linejoin:round;">
<circle cx="116.8400" cy="82.5500" r="0.3810" /> 
</g>
<g style="fill:#FFFFFF; fill-opacity:1.0000; 
stroke:#FFFFFF; stroke-width:0.0212; stroke-opacity:1; 
stroke-linecap:round; stroke-linejoin:round;">
</g>
<g style="fill:#FFFFFF; fill-opacity:1.0000; 
stroke:#FFFFFF; stroke-width:0.0000; stroke-opacity:1; 
stroke-linecap:round; stroke-linejoin:round;">
<circle cx="116.8400" cy="85.0900" r="0.3810" /> 
</g>
<g style="fill:#FFFFFF; fill-opacity:1.0000; 
stroke:#FFFFFF; stroke-width:0.0212; stroke-opacity:1; 
stroke-linecap:round; stroke-linejoin:round;">
</g>
<g style="fill:#FFFFFF; fill-opacity:1.0000; 
stroke:#FFFFFF; stroke-width:0.0000; stroke-opacity:1; 
stroke-linecap:round; stroke-linejoin:round;">
<circle cx="116.8400" cy="87.6300" r="0.3810" /> 
</g>
<g style="fill:#FFFFFF; fill-opacity:1.0000; 
stroke:#FFFFFF; stroke-width:0.0212; stroke-opacity:1; 
stroke-linecap:round; stroke-linejoin:round;">
</g>
<g style="fill:#FFFFFF; fill-opacity:1.0000; 
stroke:#FFFFFF; stroke-width:0.0000; stroke-opacity:1; 
stroke-linecap:round; stroke-linejoin:round;">
<circle cx="116.8400" cy="90.1700" r="0.3810" /> 
</g>
<g style="fill:#FFFFFF; fill-opacity:1.0000; 
stroke:#FFFFFF; stroke-width:0.0212; stroke-opacity:1; 
stroke-linecap:round; stroke-linejoin:round;">
</g>
<g style="fill:#FFFFFF; fill-opacity:1.0000; 
stroke:#FFFFFF; stroke-width:0.0000; stroke-opacity:1; 
stroke-linecap:round; stroke-linejoin:round;">
<circle cx="116.8400" cy="92.7100" r="0.3810" /> 
</g>
<g style="fill:#FFFFFF; fill-opacity:1.0000; 
stroke:#FFFFFF; stroke-width:0.0212; stroke-opacity:1; 
stroke-linecap:round; stroke-linejoin:round;">
</g>
<g style="fill:#FFFFFF; fill-opacity:1.0000; 
stroke:#FFFFFF; stroke-width:0.0000; stroke-opacity:1; 
stroke-linecap:round; stroke-linejoin:round;">
<circle cx="116.8400" cy="95.2500" r="0.3810" /> 
</g>
<g style="fill:#FFFFFF; fill-opacity:1.0000; 
stroke:#FFFFFF; stroke-width:0.0212; stroke-opacity:1; 
stroke-linecap:round; stroke-linejoin:round;">
</g>
<g style="fill:#FFFFFF; fill-opacity:1.0000; 
stroke:#FFFFFF; stroke-width:0.0000; stroke-opacity:1; 
stroke-linecap:round; stroke-linejoin:round;">
<circle cx="116.8400" cy="97.7900" r="0.3810" /> 
</g>
<g style="fill:#FFFFFF; fill-opacity:1.0000; 
stroke:#FFFFFF; stroke-width:0.0212; stroke-opacity:1; 
stroke-linecap:round; stroke-linejoin:round;">
</g>
<g style="fill:#FFFFFF; fill-opacity:1.0000; 
stroke:#FFFFFF; stroke-width:0.0000; stroke-opacity:1; 
stroke-linecap:round; stroke-linejoin:round;">
<circle cx="116.8400" cy="100.3300" r="0.3810" /> 
</g>
<g style="fill:#FFFFFF; fill-opacity:1.0000; 
stroke:#FFFFFF; stroke-width:0.0212; stroke-opacity:1; 
stroke-linecap:round; stroke-linejoin:round;">
</g>
<g style="fill:#FFFFFF; fill-opacity:1.0000; 
stroke:#FFFFFF; stroke-width:0.0000; stroke-opacity:1; 
stroke-linecap:round; stroke-linejoin:round;">
<circle cx="134.6200" cy="52.0700" r="0.3810" /> 
</g>
<g style="fill:#FFFFFF; fill-opacity:1.0000; 
stroke:#FFFFFF; stroke-width:0.0212; stroke-opacity:1; 
stroke-linecap:round; stroke-linejoin:round;">
</g>
<g style="fill:#FFFFFF; fill-opacity:1.0000; 
stroke:#FFFFFF; stroke-width:0.0000; stroke-opacity:1; 
stroke-linecap:round; stroke-linejoin:round;">
<circle cx="134.6200" cy="54.6100" r="0.3810" /> 
</g>
<g style="fill:#FFFFFF; fill-opacity:1.0000; 
stroke:#FFFFFF; stroke-width:0.0212; stroke-opacity:1; 
stroke-linecap:round; stroke-linejoin:round;">
</g>
<g style="fill:#FFFFFF; fill-opacity:1.0000; 
stroke:#FFFFFF; stroke-width:0.0000; stroke-opacity:1; 
stroke-linecap:round; stroke-linejoin:round;">
<circle cx="134.6200" cy="57.1500" r="0.3810" /> 
</g>
<g style="fill:#FFFFFF; fill-opacity:1.0000; 
stroke:#FFFFFF; stroke-width:0.0212; stroke-opacity:1; 
stroke-linecap:round; stroke-linejoin:round;">
</g>
<g style="fill:#FFFFFF; fill-opacity:1.0000; 
stroke:#FFFFFF; stroke-width:0.0000; stroke-opacity:1; 
stroke-linecap:round; stroke-linejoin:round;">
<circle cx="134.6200" cy="59.6900" r="0.3810" /> 
</g>
<g style="fill:#FFFFFF; fill-opacity:1.0000; 
stroke:#FFFFFF; stroke-width:0.0212; stroke-opacity:1; 
stroke-linecap:round; stroke-linejoin:round;">
</g>
<g style="fill:#FFFFFF; fill-opacity:1.0000; 
stroke:#FFFFFF; stroke-width:0.0000; stroke-opacity:1; 
stroke-linecap:round; stroke-linejoin:round;">
<circle cx="134.6200" cy="62.2300" r="0.3810" /> 
</g>
<g style="fill:#FFFFFF; fill-opacity:1.0000; 
stroke:#FFFFFF; stroke-width:0.0212; stroke-opacity:1; 
stroke-linecap:round; stroke-linejoin:round;">
</g>
<g style="fill:#FFFFFF; fill-opacity:1.0000; 
stroke:#FFFFFF; stroke-width:0.0000; stroke-opacity:1; 
stroke-linecap:round; stroke-linejoin:round;">
<circle cx="134.6200" cy="64.7700" r="0.3810" /> 
</g>
<g style="fill:#FFFFFF; fill-opacity:1.0000; 
stroke:#FFFFFF; stroke-width:0.0212; stroke-opacity:1; 
stroke-linecap:round; stroke-linejoin:round;">
</g>
<g style="fill:#FFFFFF; fill-opacity:1.0000; 
stroke:#FFFFFF; stroke-width:0.0000; stroke-opacity:1; 
stroke-linecap:round; stroke-linejoin:round;">
<circle cx="134.6200" cy="67.3100" r="0.3810" /> 
</g>
<g style="fill:#FFFFFF; fill-opacity:1.0000; 
stroke:#FFFFFF; stroke-width:0.0212; stroke-opacity:1; 
stroke-linecap:round; stroke-linejoin:round;">
</g>
<g style="fill:#FFFFFF; fill-opacity:1.0000; 
stroke:#FFFFFF; stroke-width:0.0000; stroke-opacity:1; 
stroke-linecap:round; stroke-linejoin:round;">
<circle cx="134.6200" cy="69.8500" r="0.3810" /> 
</g>
<g style="fill:#FFFFFF; fill-opacity:1.0000; 
stroke:#FFFFFF; stroke-width:0.0212; stroke-opacity:1; 
stroke-linecap:round; stroke-linejoin:round;">
</g>
<g style="fill:#FFFFFF; fill-opacity:1.0000; 
stroke:#FFFFFF; stroke-width:0.0000; stroke-opacity:1; 
stroke-linecap:round; stroke-linejoin:round;">
<circle cx="134.6200" cy="72.3900" r="0.3810" /> 
</g>
<g style="fill:#FFFFFF; fill-opacity:1.0000; 
stroke:#FFFFFF; stroke-width:0.0212; stroke-opacity:1; 
stroke-linecap:round; stroke-linejoin:round;">
</g>
<g style="fill:#FFFFFF; fill-opacity:1.0000; 
stroke:#FFFFFF; stroke-width:0.0000; stroke-opacity:1; 
stroke-linecap:round; stroke-linejoin:round;">
<circle cx="134.6200" cy="74.9300" r="0.3810" /> 
</g>
<g style="fill:#FFFFFF; fill-opacity:1.0000; 
stroke:#FFFFFF; stroke-width:0.0212; stroke-opacity:1; 
stroke-linecap:round; stroke-linejoin:round;">
</g>
<g style="fill:#FFFFFF; fill-opacity:1.0000; 
stroke:#FFFFFF; stroke-width:0.0000; stroke-opacity:1; 
stroke-linecap:round; stroke-linejoin:round;">
<circle cx="134.6200" cy="77.4700" r="0.3810" /> 
</g>
<g style="fill:#FFFFFF; fill-opacity:1.0000; 
stroke:#FFFFFF; stroke-width:0.0212; stroke-opacity:1; 
stroke-linecap:round; stroke-linejoin:round;">
</g>
<g style="fill:#FFFFFF; fill-opacity:1.0000; 
stroke:#FFFFFF; stroke-width:0.0000; stroke-opacity:1; 
stroke-linecap:round; stroke-linejoin:round;">
<circle cx="134.6200" cy="80.0100" r="0.3810" /> 
</g>
<g style="fill:#FFFFFF; fill-opacity:1.0000; 
stroke:#FFFFFF; stroke-width:0.0212; stroke-opacity:1; 
stroke-linecap:round; stroke-linejoin:round;">
</g>
<g style="fill:#FFFFFF; fill-opacity:1.0000; 
stroke:#FFFFFF; stroke-width:0.0000; stroke-opacity:1; 
stroke-linecap:round; stroke-linejoin:round;">
<circle cx="134.6200" cy="82.5500" r="0.3810" /> 
</g>
<g style="fill:#FFFFFF; fill-opacity:1.0000; 
stroke:#FFFFFF; stroke-width:0.0212; stroke-opacity:1; 
stroke-linecap:round; stroke-linejoin:round;">
</g>
<g style="fill:#FFFFFF; fill-opacity:1.0000; 
stroke:#FFFFFF; stroke-width:0.0000; stroke-opacity:1; 
stroke-linecap:round; stroke-linejoin:round;">
<circle cx="134.6200" cy="85.0900" r="0.3810" /> 
</g>
<g style="fill:#FFFFFF; fill-opacity:1.0000; 
stroke:#FFFFFF; stroke-width:0.0212; stroke-opacity:1; 
stroke-linecap:round; stroke-linejoin:round;">
</g>
<g style="fill:#FFFFFF; fill-opacity:1.0000; 
stroke:#FFFFFF; stroke-width:0.0000; stroke-opacity:1; 
stroke-linecap:round; stroke-linejoin:round;">
<circle cx="134.6200" cy="87.6300" r="0.3810" /> 
</g>
<g style="fill:#FFFFFF; fill-opacity:1.0000; 
stroke:#FFFFFF; stroke-width:0.0212; stroke-opacity:1; 
stroke-linecap:round; stroke-linejoin:round;">
</g>
<g style="fill:#FFFFFF; fill-opacity:1.0000; 
stroke:#FFFFFF; stroke-width:0.0000; stroke-opacity:1; 
stroke-linecap:round; stroke-linejoin:round;">
<circle cx="134.6200" cy="90.1700" r="0.3810" /> 
</g>
<g style="fill:#FFFFFF; fill-opacity:1.0000; 
stroke:#FFFFFF; stroke-width:0.0212; stroke-opacity:1; 
stroke-linecap:round; stroke-linejoin:round;">
</g>
<g style="fill:#FFFFFF; fill-opacity:1.0000; 
stroke:#FFFFFF; stroke-width:0.0000; stroke-opacity:1; 
stroke-linecap:round; stroke-linejoin:round;">
<circle cx="134.6200" cy="92.7100" r="0.3810" /> 
</g>
<g style="fill:#FFFFFF; fill-opacity:1.0000; 
stroke:#FFFFFF; stroke-width:0.0212; stroke-opacity:1; 
stroke-linecap:round; stroke-linejoin:round;">
</g>
<g style="fill:#FFFFFF; fill-opacity:1.0000; 
stroke:#FFFFFF; stroke-width:0.0000; stroke-opacity:1; 
stroke-linecap:round; stroke-linejoin:round;">
<circle cx="134.6200" cy="95.2500" r="0.3810" /> 
</g>
<g style="fill:#FFFFFF; fill-opacity:1.0000; 
stroke:#FFFFFF; stroke-width:0.0212; stroke-opacity:1; 
stroke-linecap:round; stroke-linejoin:round;">
</g>
<g style="fill:#FFFFFF; fill-opacity:1.0000; 
stroke:#FFFFFF; stroke-width:0.0000; stroke-opacity:1; 
stroke-linecap:round; stroke-linejoin:round;">
<circle cx="134.6200" cy="97.7900" r="0.3810" /> 
</g>
<g style="fill:#FFFFFF; fill-opacity:1.0000; 
stroke:#FFFFFF; stroke-width:0.0212; stroke-opacity:1; 
stroke-linecap:round; stroke-linejoin:round;">
</g>
<g style="fill:#FFFFFF; fill-opacity:1.0000; 
stroke:#FFFFFF; stroke-width:0.0000; stroke-opacity:1; 
stroke-linecap:round; stroke-linejoin:round;">
<circle cx="134.6200" cy="100.3300" r="0.3810" /> 
</g>
<g style="fill:#FFFFFF; fill-opacity:1.0000; 
stroke:#FFFFFF; stroke-width:0.0212; stroke-opacity:1; 
stroke-linecap:round; stroke-linejoin:round;">
</g>
<g style="fill:#000000; fill-opacity:1.0000; 
stroke:#000000; stroke-width:0.0212; stroke-opacity:1; 
stroke-linecap:round; stroke-linejoin:round;">
</g> 
</svg>
