<?xml version="1.0" standalone="no"?>
 <!DOCTYPE svg PUBLIC "-//W3C//DTD SVG 1.1//EN" 
 "http://www.w3.org/Graphics/SVG/1.1/DTD/svg11.dtd"> 
<svg
  xmlns:svg="http://www.w3.org/2000/svg"
  xmlns="http://www.w3.org/2000/svg"
  xmlns:xlink="http://www.w3.org/1999/xlink"
  version="1.1"
  width="297.0022mm" height="210.0072mm" viewBox="0.0000 0.0000 297.0022 210.0072">
<title>SVG Image created as template_project_kicad-F_Silkscreen.svg date 2023/11/28 01:22:39 </title>
  <desc>Image generated by PCBNEW </desc>
<g style="fill:#000000; fill-opacity:1.0000;stroke:#000000; stroke-opacity:1.0000;
stroke-linecap:round; stroke-linejoin:round;"
 transform="translate(0 0) scale(1 1)">
</g>
<g style="fill:#000000; fill-opacity:0.0; 
stroke:#000000; stroke-width:0.0000; stroke-opacity:1; 
stroke-linecap:round; stroke-linejoin:round;">
</g>
<g style="fill:#000000; fill-opacity:0.0; 
stroke:#000000; stroke-width:0.1500; stroke-opacity:1; 
stroke-linecap:round; stroke-linejoin:round;">
<text x="104.1400" y="92.8200"
textLength="4.5357" font-size="1.3333" lengthAdjust="spacingAndGlyphs"
text-anchor="middle" opacity="0">REF**</text>
<g class="stroked-text"><desc>REF**</desc>
<path d="M102.8067 92.7748
L102.4733 92.2986
" />
<path d="M102.2352 92.7748
L102.2352 91.7748
" />
<path d="M102.2352 91.7748
L102.6162 91.7748
" />
<path d="M102.6162 91.7748
L102.7114 91.8224
" />
<path d="M102.7114 91.8224
L102.7590 91.8701
" />
<path d="M102.7590 91.8701
L102.8067 91.9653
" />
<path d="M102.8067 91.9653
L102.8067 92.1082
" />
<path d="M102.8067 92.1082
L102.7590 92.2034
" />
<path d="M102.7590 92.2034
L102.7114 92.2510
" />
<path d="M102.7114 92.2510
L102.6162 92.2986
" />
<path d="M102.6162 92.2986
L102.2352 92.2986
" />
<path d="M103.2352 92.2510
L103.5686 92.2510
" />
<path d="M103.7114 92.7748
L103.2352 92.7748
" />
<path d="M103.2352 92.7748
L103.2352 91.7748
" />
<path d="M103.2352 91.7748
L103.7114 91.7748
" />
<path d="M104.4733 92.2510
L104.1400 92.2510
" />
<path d="M104.1400 92.7748
L104.1400 91.7748
" />
<path d="M104.1400 91.7748
L104.6162 91.7748
" />
<path d="M105.1400 91.7748
L105.1400 92.0129
" />
<path d="M104.9019 91.9177
L105.1400 92.0129
" />
<path d="M105.1400 92.0129
L105.3781 91.9177
" />
<path d="M104.9971 92.2034
L105.1400 92.0129
" />
<path d="M105.1400 92.0129
L105.2829 92.2034
" />
<path d="M105.9019 91.7748
L105.9019 92.0129
" />
<path d="M105.6638 91.9177
L105.9019 92.0129
" />
<path d="M105.9019 92.0129
L106.1400 91.9177
" />
<path d="M105.7590 92.2034
L105.9019 92.0129
" />
<path d="M105.9019 92.0129
L106.0448 92.2034
" />
</g><text x="147.3200" y="92.8200"
textLength="4.5357" font-size="1.3333" lengthAdjust="spacingAndGlyphs"
text-anchor="middle" opacity="0">REF**</text>
<g class="stroked-text"><desc>REF**</desc>
<path d="M145.9867 92.7748
L145.6533 92.2986
" />
<path d="M145.4152 92.7748
L145.4152 91.7748
" />
<path d="M145.4152 91.7748
L145.7962 91.7748
" />
<path d="M145.7962 91.7748
L145.8914 91.8224
" />
<path d="M145.8914 91.8224
L145.9390 91.8701
" />
<path d="M145.9390 91.8701
L145.9867 91.9653
" />
<path d="M145.9867 91.9653
L145.9867 92.1082
" />
<path d="M145.9867 92.1082
L145.9390 92.2034
" />
<path d="M145.9390 92.2034
L145.8914 92.2510
" />
<path d="M145.8914 92.2510
L145.7962 92.2986
" />
<path d="M145.7962 92.2986
L145.4152 92.2986
" />
<path d="M146.4152 92.2510
L146.7486 92.2510
" />
<path d="M146.8914 92.7748
L146.4152 92.7748
" />
<path d="M146.4152 92.7748
L146.4152 91.7748
" />
<path d="M146.4152 91.7748
L146.8914 91.7748
" />
<path d="M147.6533 92.2510
L147.3200 92.2510
" />
<path d="M147.3200 92.7748
L147.3200 91.7748
" />
<path d="M147.3200 91.7748
L147.7962 91.7748
" />
<path d="M148.3200 91.7748
L148.3200 92.0129
" />
<path d="M148.0819 91.9177
L148.3200 92.0129
" />
<path d="M148.3200 92.0129
L148.5581 91.9177
" />
<path d="M148.1771 92.2034
L148.3200 92.0129
" />
<path d="M148.3200 92.0129
L148.4629 92.2034
" />
<path d="M149.0819 91.7748
L149.0819 92.0129
" />
<path d="M148.8438 91.9177
L149.0819 92.0129
" />
<path d="M149.0819 92.0129
L149.3200 91.9177
" />
<path d="M148.9390 92.2034
L149.0819 92.0129
" />
<path d="M149.0819 92.0129
L149.2248 92.2034
" />
</g><text x="104.1400" y="52.1800"
textLength="4.5357" font-size="1.3333" lengthAdjust="spacingAndGlyphs"
text-anchor="middle" opacity="0">REF**</text>
<g class="stroked-text"><desc>REF**</desc>
<path d="M102.8067 52.1348
L102.4733 51.6586
" />
<path d="M102.2352 52.1348
L102.2352 51.1348
" />
<path d="M102.2352 51.1348
L102.6162 51.1348
" />
<path d="M102.6162 51.1348
L102.7114 51.1824
" />
<path d="M102.7114 51.1824
L102.7590 51.2301
" />
<path d="M102.7590 51.2301
L102.8067 51.3253
" />
<path d="M102.8067 51.3253
L102.8067 51.4682
" />
<path d="M102.8067 51.4682
L102.7590 51.5634
" />
<path d="M102.7590 51.5634
L102.7114 51.6110
" />
<path d="M102.7114 51.6110
L102.6162 51.6586
" />
<path d="M102.6162 51.6586
L102.2352 51.6586
" />
<path d="M103.2352 51.6110
L103.5686 51.6110
" />
<path d="M103.7114 52.1348
L103.2352 52.1348
" />
<path d="M103.2352 52.1348
L103.2352 51.1348
" />
<path d="M103.2352 51.1348
L103.7114 51.1348
" />
<path d="M104.4733 51.6110
L104.1400 51.6110
" />
<path d="M104.1400 52.1348
L104.1400 51.1348
" />
<path d="M104.1400 51.1348
L104.6162 51.1348
" />
<path d="M105.1400 51.1348
L105.1400 51.3729
" />
<path d="M104.9019 51.2777
L105.1400 51.3729
" />
<path d="M105.1400 51.3729
L105.3781 51.2777
" />
<path d="M104.9971 51.5634
L105.1400 51.3729
" />
<path d="M105.1400 51.3729
L105.2829 51.5634
" />
<path d="M105.9019 51.1348
L105.9019 51.3729
" />
<path d="M105.6638 51.2777
L105.9019 51.3729
" />
<path d="M105.9019 51.3729
L106.1400 51.2777
" />
<path d="M105.7590 51.5634
L105.9019 51.3729
" />
<path d="M105.9019 51.3729
L106.0448 51.5634
" />
</g><text x="147.3200" y="52.1800"
textLength="4.5357" font-size="1.3333" lengthAdjust="spacingAndGlyphs"
text-anchor="middle" opacity="0">REF**</text>
<g class="stroked-text"><desc>REF**</desc>
<path d="M145.9867 52.1348
L145.6533 51.6586
" />
<path d="M145.4152 52.1348
L145.4152 51.1348
" />
<path d="M145.4152 51.1348
L145.7962 51.1348
" />
<path d="M145.7962 51.1348
L145.8914 51.1824
" />
<path d="M145.8914 51.1824
L145.9390 51.2301
" />
<path d="M145.9390 51.2301
L145.9867 51.3253
" />
<path d="M145.9867 51.3253
L145.9867 51.4682
" />
<path d="M145.9867 51.4682
L145.9390 51.5634
" />
<path d="M145.9390 51.5634
L145.8914 51.6110
" />
<path d="M145.8914 51.6110
L145.7962 51.6586
" />
<path d="M145.7962 51.6586
L145.4152 51.6586
" />
<path d="M146.4152 51.6110
L146.7486 51.6110
" />
<path d="M146.8914 52.1348
L146.4152 52.1348
" />
<path d="M146.4152 52.1348
L146.4152 51.1348
" />
<path d="M146.4152 51.1348
L146.8914 51.1348
" />
<path d="M147.6533 51.6110
L147.3200 51.6110
" />
<path d="M147.3200 52.1348
L147.3200 51.1348
" />
<path d="M147.3200 51.1348
L147.7962 51.1348
" />
<path d="M148.3200 51.1348
L148.3200 51.3729
" />
<path d="M148.0819 51.2777
L148.3200 51.3729
" />
<path d="M148.3200 51.3729
L148.5581 51.2777
" />
<path d="M148.1771 51.5634
L148.3200 51.3729
" />
<path d="M148.3200 51.3729
L148.4629 51.5634
" />
<path d="M149.0819 51.1348
L149.0819 51.3729
" />
<path d="M148.8438 51.2777
L149.0819 51.3729
" />
<path d="M149.0819 51.3729
L149.3200 51.2777
" />
<path d="M148.9390 51.5634
L149.0819 51.3729
" />
<path d="M149.0819 51.3729
L149.2248 51.5634
" />
</g></g>
<g style="fill:#000000; fill-opacity:0.0; 
stroke:#000000; stroke-width:0.1000; stroke-opacity:1; 
stroke-linecap:round; stroke-linejoin:round;">
<text x="125.7300" y="47.4900"
textLength="1.9095" font-size="1.3333" lengthAdjust="spacingAndGlyphs"
text-anchor="middle" opacity="0">A1</text>
<g class="stroked-text"><desc>A1</desc>
<path d="M125.0157 47.1617
L125.4919 47.1617
" />
<path d="M124.9205 47.4474
L125.2538 46.4474
" />
<path d="M125.2538 46.4474
L125.5871 47.4474
" />
<path d="M126.4443 47.4474
L125.8729 47.4474
" />
<path d="M126.1586 47.4474
L126.1586 46.4474
" />
<path d="M126.1586 46.4474
L126.0633 46.5903
" />
<path d="M126.0633 46.5903
L125.9681 46.6855
" />
<path d="M125.9681 46.6855
L125.8729 46.7331
" />
</g><g >
</g>
<g >
</g>
<g >
</g>
<g >
</g>
<g >
</g>
<g >
</g>
<g >
</g>
<g >
</g>
</g> 
</svg>
