<?xml version="1.0" standalone="no"?>
 <!DOCTYPE svg PUBLIC "-//W3C//DTD SVG 1.1//EN" 
 "http://www.w3.org/Graphics/SVG/1.1/DTD/svg11.dtd"> 
<svg
  xmlns:svg="http://www.w3.org/2000/svg"
  xmlns="http://www.w3.org/2000/svg"
  xmlns:xlink="http://www.w3.org/1999/xlink"
  version="1.1"
  width="297.0022mm" height="210.0072mm" viewBox="0.0000 0.0000 297.0022 210.0072">
<title>SVG Image created as wirebug-F_Silkscreen.svg date 2023/12/02 22:55:34 </title>
  <desc>Image generated by PCBNEW </desc>
<g style="fill:#000000; fill-opacity:1.0000;stroke:#000000; stroke-opacity:1.0000;
stroke-linecap:round; stroke-linejoin:round;"
 transform="translate(0 0) scale(1 1)">
</g>
<g style="fill:#000000; fill-opacity:0.0; 
stroke:#000000; stroke-width:0.0000; stroke-opacity:1; 
stroke-linecap:round; stroke-linejoin:round;">
</g>
<g style="fill:#000000; fill-opacity:0.0; 
stroke:#000000; stroke-width:0.1500; stroke-opacity:1; 
stroke-linecap:round; stroke-linejoin:round;">
<text x="114.0510" y="60.9320"
textLength="1.9643" font-size="1.3333" lengthAdjust="spacingAndGlyphs"
text-anchor="middle" opacity="0">J3</text>
<g class="stroked-text"><desc>J3</desc>
<path d="M113.7177 59.8868
L113.7177 60.6011
" />
<path d="M113.7177 60.6011
L113.6700 60.7440
" />
<path d="M113.6700 60.7440
L113.5748 60.8392
" />
<path d="M113.5748 60.8392
L113.4320 60.8868
" />
<path d="M113.4320 60.8868
L113.3367 60.8868
" />
<path d="M114.0986 59.8868
L114.7177 59.8868
" />
<path d="M114.7177 59.8868
L114.3843 60.2678
" />
<path d="M114.3843 60.2678
L114.5272 60.2678
" />
<path d="M114.5272 60.2678
L114.6224 60.3154
" />
<path d="M114.6224 60.3154
L114.6700 60.3630
" />
<path d="M114.6700 60.3630
L114.7177 60.4582
" />
<path d="M114.7177 60.4582
L114.7177 60.6963
" />
<path d="M114.7177 60.6963
L114.6700 60.7916
" />
<path d="M114.6700 60.7916
L114.6224 60.8392
" />
<path d="M114.6224 60.8392
L114.5272 60.8868
" />
<path d="M114.5272 60.8868
L114.2415 60.8868
" />
<path d="M114.2415 60.8868
L114.1462 60.8392
" />
<path d="M114.1462 60.8392
L114.0986 60.7916
" />
</g><text x="118.4140" y="74.1450"
textLength="2.2024" font-size="1.3333" lengthAdjust="spacingAndGlyphs"
text-anchor="middle" opacity="0">R2</text>
<g class="stroked-text"><desc>R2</desc>
<path d="M118.2473 74.0998
L117.9140 73.6236
" />
<path d="M117.6759 74.0998
L117.6759 73.0998
" />
<path d="M117.6759 73.0998
L118.0569 73.0998
" />
<path d="M118.0569 73.0998
L118.1521 73.1474
" />
<path d="M118.1521 73.1474
L118.1997 73.1951
" />
<path d="M118.1997 73.1951
L118.2473 73.2903
" />
<path d="M118.2473 73.2903
L118.2473 73.4332
" />
<path d="M118.2473 73.4332
L118.1997 73.5284
" />
<path d="M118.1997 73.5284
L118.1521 73.5760
" />
<path d="M118.1521 73.5760
L118.0569 73.6236
" />
<path d="M118.0569 73.6236
L117.6759 73.6236
" />
<path d="M118.6283 73.1951
L118.6759 73.1474
" />
<path d="M118.6759 73.1474
L118.7711 73.0998
" />
<path d="M118.7711 73.0998
L119.0092 73.0998
" />
<path d="M119.0092 73.0998
L119.1045 73.1474
" />
<path d="M119.1045 73.1474
L119.1521 73.1951
" />
<path d="M119.1521 73.1951
L119.1997 73.2903
" />
<path d="M119.1997 73.2903
L119.1997 73.3855
" />
<path d="M119.1997 73.3855
L119.1521 73.5284
" />
<path d="M119.1521 73.5284
L118.5807 74.0998
" />
<path d="M118.5807 74.0998
L119.1997 74.0998
" />
</g><text x="125.6030" y="105.9010"
textLength="4.5357" font-size="1.3333" lengthAdjust="spacingAndGlyphs"
text-anchor="middle" opacity="0">REF**</text>
<g class="stroked-text"><desc>REF**</desc>
<path d="M124.2697 105.8558
L123.9363 105.3796
" />
<path d="M123.6982 105.8558
L123.6982 104.8558
" />
<path d="M123.6982 104.8558
L124.0792 104.8558
" />
<path d="M124.0792 104.8558
L124.1744 104.9034
" />
<path d="M124.1744 104.9034
L124.2220 104.9511
" />
<path d="M124.2220 104.9511
L124.2697 105.0463
" />
<path d="M124.2697 105.0463
L124.2697 105.1892
" />
<path d="M124.2697 105.1892
L124.2220 105.2844
" />
<path d="M124.2220 105.2844
L124.1744 105.3320
" />
<path d="M124.1744 105.3320
L124.0792 105.3796
" />
<path d="M124.0792 105.3796
L123.6982 105.3796
" />
<path d="M124.6982 105.3320
L125.0316 105.3320
" />
<path d="M125.1744 105.8558
L124.6982 105.8558
" />
<path d="M124.6982 105.8558
L124.6982 104.8558
" />
<path d="M124.6982 104.8558
L125.1744 104.8558
" />
<path d="M125.9363 105.3320
L125.6030 105.3320
" />
<path d="M125.6030 105.8558
L125.6030 104.8558
" />
<path d="M125.6030 104.8558
L126.0792 104.8558
" />
<path d="M126.6030 104.8558
L126.6030 105.0939
" />
<path d="M126.3649 104.9987
L126.6030 105.0939
" />
<path d="M126.6030 105.0939
L126.8411 104.9987
" />
<path d="M126.4601 105.2844
L126.6030 105.0939
" />
<path d="M126.6030 105.0939
L126.7459 105.2844
" />
<path d="M127.3649 104.8558
L127.3649 105.0939
" />
<path d="M127.1268 104.9987
L127.3649 105.0939
" />
<path d="M127.3649 105.0939
L127.6030 104.9987
" />
<path d="M127.2220 105.2844
L127.3649 105.0939
" />
<path d="M127.3649 105.0939
L127.5078 105.2844
" />
</g><text x="111.5560" y="74.1450"
textLength="2.2024" font-size="1.3333" lengthAdjust="spacingAndGlyphs"
text-anchor="middle" opacity="0">R1</text>
<g class="stroked-text"><desc>R1</desc>
<path d="M111.3893 74.0998
L111.0560 73.6236
" />
<path d="M110.8179 74.0998
L110.8179 73.0998
" />
<path d="M110.8179 73.0998
L111.1989 73.0998
" />
<path d="M111.1989 73.0998
L111.2941 73.1474
" />
<path d="M111.2941 73.1474
L111.3417 73.1951
" />
<path d="M111.3417 73.1951
L111.3893 73.2903
" />
<path d="M111.3893 73.2903
L111.3893 73.4332
" />
<path d="M111.3893 73.4332
L111.3417 73.5284
" />
<path d="M111.3417 73.5284
L111.2941 73.5760
" />
<path d="M111.2941 73.5760
L111.1989 73.6236
" />
<path d="M111.1989 73.6236
L110.8179 73.6236
" />
<path d="M112.3417 74.0998
L111.7703 74.0998
" />
<path d="M112.0560 74.0998
L112.0560 73.0998
" />
<path d="M112.0560 73.0998
L111.9608 73.2427
" />
<path d="M111.9608 73.2427
L111.8655 73.3379
" />
<path d="M111.8655 73.3379
L111.7703 73.3855
" />
</g><g transform="rotate(-90.000000 115.1640 80.2640)">
<text x="115.1640" y="80.7640"
textLength="2.2500" font-size="1.3333" lengthAdjust="spacingAndGlyphs"
text-anchor="middle" opacity="0">Q2</text>
</g>
<g class="stroked-text"><desc>Q2</desc>
<path d="M115.7141 80.3592
L115.6664 80.4545
" />
<path d="M115.6664 80.4545
L115.5712 80.5497
" />
<path d="M115.5712 80.5497
L115.4283 80.6926
" />
<path d="M115.4283 80.6926
L115.3807 80.7878
" />
<path d="M115.3807 80.7878
L115.3807 80.8830
" />
<path d="M115.6188 80.8354
L115.5712 80.9307
" />
<path d="M115.5712 80.9307
L115.4760 81.0259
" />
<path d="M115.4760 81.0259
L115.2855 81.0735
" />
<path d="M115.2855 81.0735
L114.9522 81.0735
" />
<path d="M114.9522 81.0735
L114.7617 81.0259
" />
<path d="M114.7617 81.0259
L114.6664 80.9307
" />
<path d="M114.6664 80.9307
L114.6188 80.8354
" />
<path d="M114.6188 80.8354
L114.6188 80.6450
" />
<path d="M114.6188 80.6450
L114.6664 80.5497
" />
<path d="M114.6664 80.5497
L114.7617 80.4545
" />
<path d="M114.7617 80.4545
L114.9522 80.4069
" />
<path d="M114.9522 80.4069
L115.2855 80.4069
" />
<path d="M115.2855 80.4069
L115.4760 80.4545
" />
<path d="M115.4760 80.4545
L115.5712 80.5497
" />
<path d="M115.5712 80.5497
L115.6188 80.6450
" />
<path d="M115.6188 80.6450
L115.6188 80.8354
" />
<path d="M114.7141 80.0259
L114.6664 79.9783
" />
<path d="M114.6664 79.9783
L114.6188 79.8830
" />
<path d="M114.6188 79.8830
L114.6188 79.6450
" />
<path d="M114.6188 79.6450
L114.6664 79.5497
" />
<path d="M114.6664 79.5497
L114.7141 79.5021
" />
<path d="M114.7141 79.5021
L114.8093 79.4545
" />
<path d="M114.8093 79.4545
L114.9045 79.4545
" />
<path d="M114.9045 79.4545
L115.0474 79.5021
" />
<path d="M115.0474 79.5021
L115.6188 80.0735
" />
<path d="M115.6188 80.0735
L115.6188 79.4545
" />
</g><g transform="rotate(-90.000000 110.1410 69.2470)">
<text x="110.1410" y="69.7470"
textLength="3.1548" font-size="1.3333" lengthAdjust="spacingAndGlyphs"
text-anchor="middle" opacity="0">PS1</text>
</g>
<g class="stroked-text"><desc>PS1</desc>
<path d="M110.5958 70.4613
L109.5958 70.4613
" />
<path d="M109.5958 70.4613
L109.5958 70.0803
" />
<path d="M109.5958 70.0803
L109.6434 69.9851
" />
<path d="M109.6434 69.9851
L109.6911 69.9375
" />
<path d="M109.6911 69.9375
L109.7863 69.8899
" />
<path d="M109.7863 69.8899
L109.9292 69.8899
" />
<path d="M109.9292 69.8899
L110.0244 69.9375
" />
<path d="M110.0244 69.9375
L110.0720 69.9851
" />
<path d="M110.0720 69.9851
L110.1196 70.0803
" />
<path d="M110.1196 70.0803
L110.1196 70.4613
" />
<path d="M110.5482 69.5089
L110.5958 69.3660
" />
<path d="M110.5958 69.3660
L110.5958 69.1280
" />
<path d="M110.5958 69.1280
L110.5482 69.0327
" />
<path d="M110.5482 69.0327
L110.5006 68.9851
" />
<path d="M110.5006 68.9851
L110.4053 68.9375
" />
<path d="M110.4053 68.9375
L110.3101 68.9375
" />
<path d="M110.3101 68.9375
L110.2149 68.9851
" />
<path d="M110.2149 68.9851
L110.1672 69.0327
" />
<path d="M110.1672 69.0327
L110.1196 69.1280
" />
<path d="M110.1196 69.1280
L110.0720 69.3184
" />
<path d="M110.0720 69.3184
L110.0244 69.4137
" />
<path d="M110.0244 69.4137
L109.9768 69.4613
" />
<path d="M109.9768 69.4613
L109.8815 69.5089
" />
<path d="M109.8815 69.5089
L109.7863 69.5089
" />
<path d="M109.7863 69.5089
L109.6911 69.4613
" />
<path d="M109.6911 69.4613
L109.6434 69.4137
" />
<path d="M109.6434 69.4137
L109.5958 69.3184
" />
<path d="M109.5958 69.3184
L109.5958 69.0803
" />
<path d="M109.5958 69.0803
L109.6434 68.9375
" />
<path d="M110.5958 67.9851
L110.5958 68.5565
" />
<path d="M110.5958 68.2708
L109.5958 68.2708
" />
<path d="M109.5958 68.2708
L109.7387 68.3660
" />
<path d="M109.7387 68.3660
L109.8339 68.4613
" />
<path d="M109.8339 68.4613
L109.8815 68.5565
" />
</g><g transform="rotate(-90.000000 108.3060 80.2640)">
<text x="108.3060" y="80.7640"
textLength="2.2500" font-size="1.3333" lengthAdjust="spacingAndGlyphs"
text-anchor="middle" opacity="0">Q1</text>
</g>
<g class="stroked-text"><desc>Q1</desc>
<path d="M108.8561 80.3592
L108.8084 80.4545
" />
<path d="M108.8084 80.4545
L108.7132 80.5497
" />
<path d="M108.7132 80.5497
L108.5703 80.6926
" />
<path d="M108.5703 80.6926
L108.5227 80.7878
" />
<path d="M108.5227 80.7878
L108.5227 80.8830
" />
<path d="M108.7608 80.8354
L108.7132 80.9307
" />
<path d="M108.7132 80.9307
L108.6180 81.0259
" />
<path d="M108.6180 81.0259
L108.4275 81.0735
" />
<path d="M108.4275 81.0735
L108.0942 81.0735
" />
<path d="M108.0942 81.0735
L107.9037 81.0259
" />
<path d="M107.9037 81.0259
L107.8084 80.9307
" />
<path d="M107.8084 80.9307
L107.7608 80.8354
" />
<path d="M107.7608 80.8354
L107.7608 80.6450
" />
<path d="M107.7608 80.6450
L107.8084 80.5497
" />
<path d="M107.8084 80.5497
L107.9037 80.4545
" />
<path d="M107.9037 80.4545
L108.0942 80.4069
" />
<path d="M108.0942 80.4069
L108.4275 80.4069
" />
<path d="M108.4275 80.4069
L108.6180 80.4545
" />
<path d="M108.6180 80.4545
L108.7132 80.5497
" />
<path d="M108.7132 80.5497
L108.7608 80.6450
" />
<path d="M108.7608 80.6450
L108.7608 80.8354
" />
<path d="M108.7608 79.4545
L108.7608 80.0259
" />
<path d="M108.7608 79.7402
L107.7608 79.7402
" />
<path d="M107.7608 79.7402
L107.9037 79.8354
" />
<path d="M107.9037 79.8354
L107.9989 79.9307
" />
<path d="M107.9989 79.9307
L108.0465 80.0259
" />
</g><text x="114.9350" y="93.9720"
textLength="2.2024" font-size="1.3333" lengthAdjust="spacingAndGlyphs"
text-anchor="middle" opacity="0">K1</text>
<g class="stroked-text"><desc>K1</desc>
<path d="M114.1969 93.9268
L114.1969 92.9268
" />
<path d="M114.7683 93.9268
L114.3398 93.3554
" />
<path d="M114.7683 92.9268
L114.1969 93.4982
" />
<path d="M115.7207 93.9268
L115.1493 93.9268
" />
<path d="M115.4350 93.9268
L115.4350 92.9268
" />
<path d="M115.4350 92.9268
L115.3398 93.0697
" />
<path d="M115.3398 93.0697
L115.2445 93.1649
" />
<path d="M115.2445 93.1649
L115.1493 93.2125
" />
</g><text x="109.8550" y="81.1662"
textLength="1.0119" font-size="1.3333" lengthAdjust="spacingAndGlyphs"
text-anchor="middle" opacity="0">*</text>
<g class="stroked-text"><desc>*</desc>
<path d="M109.8550 80.1210
L109.8550 80.3591
" />
<path d="M109.6169 80.2638
L109.8550 80.3591
" />
<path d="M109.8550 80.3591
L110.0931 80.2638
" />
<path d="M109.7121 80.5496
L109.8550 80.3591
" />
<path d="M109.8550 80.3591
L109.9979 80.5496
" />
</g><text x="109.8550" y="81.1662"
textLength="1.0119" font-size="1.3333" lengthAdjust="spacingAndGlyphs"
text-anchor="middle" opacity="0">*</text>
<g class="stroked-text"><desc>*</desc>
<path d="M109.8550 80.1210
L109.8550 80.3591
" />
<path d="M109.6169 80.2638
L109.8550 80.3591
" />
<path d="M109.8550 80.3591
L110.0931 80.2638
" />
<path d="M109.7121 80.5496
L109.8550 80.3591
" />
<path d="M109.8550 80.3591
L109.9979 80.5496
" />
</g><g transform="rotate(-90.000000 133.3700 109.7330)">
<text x="133.3700" y="110.2330"
textLength="1.9643" font-size="1.3333" lengthAdjust="spacingAndGlyphs"
text-anchor="middle" opacity="0">J1</text>
</g>
<g class="stroked-text"><desc>J1</desc>
<path d="M132.8248 110.0663
L133.5391 110.0663
" />
<path d="M133.5391 110.0663
L133.6820 110.1140
" />
<path d="M133.6820 110.1140
L133.7772 110.2092
" />
<path d="M133.7772 110.2092
L133.8248 110.3520
" />
<path d="M133.8248 110.3520
L133.8248 110.4473
" />
<path d="M133.8248 109.0663
L133.8248 109.6378
" />
<path d="M133.8248 109.3520
L132.8248 109.3520
" />
<path d="M132.8248 109.3520
L132.9677 109.4473
" />
<path d="M132.9677 109.4473
L133.0629 109.5425
" />
<path d="M133.0629 109.5425
L133.1105 109.6378
" />
</g></g>
<g style="fill:#000000; fill-opacity:0.0; 
stroke:#000000; stroke-width:0.1000; stroke-opacity:1; 
stroke-linecap:round; stroke-linejoin:round;">
<text x="132.5880" y="47.7440"
textLength="1.9095" font-size="1.3333" lengthAdjust="spacingAndGlyphs"
text-anchor="middle" opacity="0">A1</text>
<g class="stroked-text"><desc>A1</desc>
<path d="M131.8737 47.4157
L132.3499 47.4157
" />
<path d="M131.7785 47.7014
L132.1118 46.7014
" />
<path d="M132.1118 46.7014
L132.4451 47.7014
" />
<path d="M133.3023 47.7014
L132.7309 47.7014
" />
<path d="M133.0166 47.7014
L133.0166 46.7014
" />
<path d="M133.0166 46.7014
L132.9213 46.8443
" />
<path d="M132.9213 46.8443
L132.8261 46.9395
" />
<path d="M132.8261 46.9395
L132.7309 46.9871
" />
</g></g>
<g style="fill:#000000; fill-opacity:0.0; 
stroke:#000000; stroke-width:0.1500; stroke-opacity:1; 
stroke-linecap:round; stroke-linejoin:round;">
<g transform="rotate(-90.000000 118.0900 109.9770)">
<text x="118.0900" y="110.4770"
textLength="1.9643" font-size="1.3333" lengthAdjust="spacingAndGlyphs"
text-anchor="middle" opacity="0">J2</text>
</g>
<g class="stroked-text"><desc>J2</desc>
<path d="M117.5448 110.3103
L118.2591 110.3103
" />
<path d="M118.2591 110.3103
L118.4020 110.3580
" />
<path d="M118.4020 110.3580
L118.4972 110.4532
" />
<path d="M118.4972 110.4532
L118.5448 110.5960
" />
<path d="M118.5448 110.5960
L118.5448 110.6913
" />
<path d="M117.6401 109.8818
L117.5924 109.8341
" />
<path d="M117.5924 109.8341
L117.5448 109.7389
" />
<path d="M117.5448 109.7389
L117.5448 109.5008
" />
<path d="M117.5448 109.5008
L117.5924 109.4056
" />
<path d="M117.5924 109.4056
L117.6401 109.3580
" />
<path d="M117.6401 109.3580
L117.7353 109.3103
" />
<path d="M117.7353 109.3103
L117.8305 109.3103
" />
<path d="M117.8305 109.3103
L117.9734 109.3580
" />
<path d="M117.9734 109.3580
L118.5448 109.9294
" />
<path d="M118.5448 109.9294
L118.5448 109.3103
" />
</g></g>
<g style="fill:#000000; fill-opacity:0.0; 
stroke:#000000; stroke-width:0.1200; stroke-opacity:1; 
stroke-linecap:round; stroke-linejoin:round;">
<path d="M119.4310 53.3120
L119.4310 51.0720
" />
<path d="M119.4310 51.0720
L117.4310 51.0720
" />
<path d="M119.1910 59.4320
L119.1910 51.3120
" />
<path d="M119.1910 59.4320
L108.9110 59.4320
" />
<path d="M119.1910 57.3720
L108.9110 57.3720
" />
<path d="M119.1910 53.3720
L108.9110 53.3720
" />
<path d="M119.1910 51.3120
L108.9110 51.3120
" />
<path d="M112.6910 54.3960
L112.7850 54.3030
" />
<path d="M112.5210 54.1560
L112.5800 54.0980
" />
<path d="M110.4410 56.6470
L110.5000 56.5880
" />
<path d="M110.2360 56.4410
L110.3300 56.3480
" />
<path d="M108.9110 59.4320
L108.9110 51.3120
" />
<path d="M118.0750 56.1610 A1.6807 1.6807 0.0 0 0 118.0750 54.5829" />
<path d="M115.8020 56.8560 A1.6807 1.6807 0.0 0 0 117.3801 56.8560" />
<path d="M117.3800 53.8880 A1.6807 1.6807 0.0 0 0 116.5616 53.6915" />
<path d="M116.5910 53.6920 A1.6800 1.6800 0.0 0 0 115.8023 53.8886" />
<path d="M115.1070 54.5830 A1.6807 1.6807 0.0 0 0 115.1070 56.1611" />
<circle cx="111.5110" cy="55.3720" r="1.6800" /> 
<path d="M118.0640 75.5650
L118.6840 75.5650
" />
<circle cx="117.1440" cy="75.5650" r="0.9200" /> 
<path d="M111.2060 75.5650
L111.8260 75.5650
" />
<circle cx="110.2860" cy="75.5650" r="0.9200" /> 
<path d="M120.5740 82.0640
L120.5740 78.4640
" />
<path d="M116.1240 80.2640 A2.6000 2.6000 0.0 0 0 120.5625 82.1025" />
<path d="M120.5625 78.4255 A2.6000 2.6000 0.0 0 0 116.1240 80.2640" />
<path d="M121.5710 74.3670
L121.5710 64.1670
" />
<path d="M108.8710 74.3270
L121.5710 74.3270
" />
<path d="M108.8710 64.1670
L108.8710 74.3270
" />
<path d="M121.5710 64.1670
L108.8710 64.1670
" />
<path d="M113.7160 82.0640
L113.7160 78.4640
" />
<path d="M109.2660 80.2640 A2.6000 2.6000 0.0 0 0 113.7045 82.1025" />
<path d="M113.7045 78.4255 A2.6000 2.6000 0.0 0 0 109.2660 80.2640" />
</g>
<g style="fill:#000000; fill-opacity:0.0; 
stroke:#000000; stroke-width:0.1524; stroke-opacity:1; 
stroke-linecap:round; stroke-linejoin:round;">
<path d="M108.5596 83.3501
L108.5596 103.5939
" />
<path d="M108.5596 103.5939
L121.3104 103.5939
" />
<path d="M121.3104 83.3501
L108.5596 83.3501
" />
<path d="M121.3104 103.5939
L121.3104 83.3501
" />
</g>
<g style="fill:#000000; fill-opacity:0.0; 
stroke:#000000; stroke-width:0.1200; stroke-opacity:1; 
stroke-linecap:round; stroke-linejoin:round;">
<path d="M140.4900 115.1130
L142.7300 115.1130
" />
<path d="M142.7300 115.1130
L142.7300 113.1130
" />
<path d="M134.3700 114.8730
L142.4900 114.8730
" />
<path d="M134.3700 114.8730
L134.3700 104.5930
" />
<path d="M136.4300 114.8730
L136.4300 104.5930
" />
<path d="M140.4300 114.8730
L140.4300 104.5930
" />
<path d="M142.4900 114.8730
L142.4900 104.5930
" />
<path d="M139.4060 108.3730
L139.4990 108.4670
" />
<path d="M139.6460 108.2030
L139.7040 108.2620
" />
<path d="M137.1550 106.1230
L137.2140 106.1820
" />
<path d="M137.3610 105.9180
L137.4540 106.0120
" />
<path d="M134.3700 104.5930
L142.4900 104.5930
" />
<path d="M137.6410 113.7570 A1.6807 1.6807 0.0 0 0 139.2191 113.7570" />
<path d="M136.9460 111.4840 A1.6807 1.6807 0.0 0 0 136.9460 113.0621" />
<path d="M139.9140 113.0620 A1.6807 1.6807 0.0 0 0 140.1104 112.2436" />
<path d="M140.1100 112.2730 A1.6800 1.6800 0.0 0 0 139.9134 111.4843" />
<path d="M139.2190 110.7890 A1.6807 1.6807 0.0 0 0 137.6409 110.7890" />
<circle cx="138.4300" cy="107.1930" r="1.6800" /> 
<path d="M110.9700 104.5970
L108.7300 104.5970
" />
<path d="M108.7300 104.5970
L108.7300 106.5970
" />
<path d="M117.0900 104.8370
L108.9700 104.8370
" />
<path d="M117.0900 104.8370
L117.0900 115.1170
" />
<path d="M115.0300 104.8370
L115.0300 115.1170
" />
<path d="M111.0300 104.8370
L111.0300 115.1170
" />
<path d="M108.9700 104.8370
L108.9700 115.1170
" />
<path d="M112.0540 111.3370
L111.9610 111.2430
" />
<path d="M111.8140 111.5070
L111.7560 111.4480
" />
<path d="M114.3050 113.5870
L114.2460 113.5280
" />
<path d="M114.0990 113.7920
L114.0060 113.6980
" />
<path d="M117.0900 115.1170
L108.9700 115.1170
" />
<path d="M113.8190 105.9530 A1.6807 1.6807 0.0 0 0 112.2409 105.9530" />
<path d="M114.5140 108.2260 A1.6807 1.6807 0.0 0 0 114.5140 106.6479" />
<path d="M111.5460 106.6480 A1.6807 1.6807 0.0 0 0 111.3495 107.4664" />
<path d="M111.3500 107.4370 A1.6800 1.6800 0.0 0 0 111.5466 108.2257" />
<path d="M112.2410 108.9210 A1.6807 1.6807 0.0 0 0 113.8191 108.9210" />
<circle cx="113.0300" cy="112.5170" r="1.6800" /> 
<g >
</g>
<g >
</g>
<g >
</g>
<g >
</g>
<g >
</g>
<g >
</g>
<g >
</g>
<g >
</g>
<g >
</g>
<g >
</g>
<g >
</g>
<g >
</g>
<g >
</g>
<g >
</g>
</g> 
</svg>
